<svg width="26" height="26" viewBox="0 0 26 26" fill="none" xmlns="http://www.w3.org/2000/svg">
<path d="M22.4054 1H3.59459C2.16164 1 1 2.16164 1 3.59459V22.4054C1 23.8384 2.16164 25 3.59459 25H22.4054C23.8384 25 25 23.8384 25 22.4054V3.59459C25 2.16164 23.8384 1 22.4054 1Z" stroke="black" stroke-linecap="round" stroke-linejoin="round"/>
<path d="M18.6755 10.0809C17.9444 10.0809 17.2432 9.79045 16.7262 9.27346C16.2092 8.75647 15.9187 8.05528 15.9187 7.32414C15.9187 6.593 15.6283 5.89181 15.1113 5.37482C14.5943 4.85783 13.8931 4.56738 13.162 4.56738H12.8377C12.1065 4.56738 11.4053 4.85783 10.8883 5.37482C10.3713 5.89181 10.0809 6.593 10.0809 7.32414C10.0809 8.05528 9.79045 8.75647 9.27346 9.27346C8.75647 9.79045 8.05528 10.0809 7.32414 10.0809C6.593 10.0809 5.89181 10.3713 5.37482 10.8883C4.85783 11.4053 4.56738 12.1065 4.56738 12.8377V13.162C4.56738 13.8931 4.85783 14.5943 5.37482 15.1113C5.89181 15.6283 6.593 15.9187 7.32414 15.9187C8.05528 15.9187 8.75647 16.2092 9.27346 16.7262C9.79045 17.2432 10.0809 17.9444 10.0809 18.6755C10.0809 19.4066 10.3713 20.1078 10.8883 20.6248C11.4053 21.1418 12.1065 21.4322 12.8377 21.4322H13.162C13.8931 21.4322 14.5943 21.1418 15.1113 20.6248C15.6283 20.1078 15.9187 19.4066 15.9187 18.6755C15.9187 17.9444 16.2092 17.2432 16.7262 16.7262C17.2432 16.2092 17.9444 15.9187 18.6755 15.9187C19.4066 15.9187 20.1078 15.6283 20.6248 15.1113C21.1418 14.5943 21.4322 13.8931 21.4322 13.162V12.8377C21.4322 12.1065 21.1418 11.4053 20.6248 10.8883C20.1078 10.3713 19.4066 10.0809 18.6755 10.0809Z" stroke="black" stroke-linecap="round" stroke-linejoin="round"/>
<path d="M19.0776 14.9489C18.5607 14.4319 18.2703 13.7308 18.2703 12.9997C18.2703 12.2687 18.5607 11.5675 19.0776 11.0505C19.5945 10.5336 19.8849 9.83242 19.8849 9.10135C19.8849 8.37028 19.5945 7.66914 19.0776 7.15216L18.8479 6.92254C18.331 6.40563 17.6298 6.11523 16.8988 6.11523C16.1677 6.11523 15.4665 6.40563 14.9496 6.92254C14.6936 7.17858 14.3896 7.38169 14.0551 7.52027C13.7206 7.65884 13.3621 7.73016 13.0001 7.73016C12.638 7.73016 12.2795 7.65884 11.945 7.52027C11.6105 7.38169 11.3065 7.17858 11.0505 6.92254C10.5336 6.40563 9.83242 6.11523 9.10135 6.11523C8.37028 6.11523 7.66914 6.40563 7.15216 6.92254L6.92254 7.15151C6.40563 7.66849 6.11523 8.36963 6.11523 9.1007C6.11523 9.83177 6.40563 10.5329 6.92254 11.0499C7.17858 11.3059 7.38169 11.6098 7.52027 11.9443C7.65884 12.2788 7.73016 12.6373 7.73016 12.9994C7.73016 13.3615 7.65884 13.72 7.52027 14.0545C7.38169 14.389 7.17858 14.6929 6.92254 14.9489C6.40563 15.4659 6.11523 16.167 6.11523 16.8981C6.11523 17.6292 6.40563 18.3303 6.92254 18.8473L7.15151 19.0769C7.66849 19.5938 8.36963 19.8842 9.1007 19.8842C9.83177 19.8842 10.5329 19.5938 11.0499 19.0769C11.3059 18.8209 11.6098 18.6178 11.9443 18.4792C12.2788 18.3406 12.6373 18.2693 12.9994 18.2693C13.3615 18.2693 13.72 18.3406 14.0545 18.4792C14.389 18.6178 14.6929 18.8209 14.9489 19.0769C15.4659 19.5938 16.167 19.8842 16.8981 19.8842C17.6292 19.8842 18.3303 19.5938 18.8473 19.0769L19.0769 18.8479C19.5938 18.331 19.8842 17.6298 19.8842 16.8988C19.8842 16.1677 19.5938 15.4665 19.0769 14.9496" stroke="black" stroke-linecap="round" stroke-linejoin="round"/>
</svg>
