<svg width="26" height="26" viewBox="0 0 26 26" fill="none" xmlns="http://www.w3.org/2000/svg">
<path d="M20 12.9468C20.0005 12.3318 19.8711 11.7262 19.6235 11.1838C19.3758 10.6415 19.0175 10.179 18.5804 9.83767C18.1433 9.4963 17.6409 9.28655 17.1179 9.22704C16.5948 9.16754 16.0673 9.26012 15.5822 9.49657C15.0971 9.73303 14.6694 10.106 14.3371 10.5824C14.0048 11.0588 13.7782 11.6239 13.6774 12.2275C13.5766 12.831 13.6048 13.4543 13.7594 14.0421C13.914 14.6298 14.1903 15.1638 14.5636 15.5965V19.585C14.5636 19.6557 14.579 19.7252 14.6084 19.787C14.6379 19.8488 14.6803 19.9007 14.7316 19.9379C14.783 19.9751 14.8417 19.9964 14.9021 19.9996C14.9624 20.0028 15.0225 19.9879 15.0765 19.9563L16.8091 18.9426L18.5416 19.9563C18.5908 19.985 18.645 19.9999 18.7 19.9999C18.7658 20 18.8303 19.9784 18.8861 19.9376C18.9376 19.9005 18.98 19.8486 19.0095 19.7869C19.039 19.7252 19.0545 19.6557 19.0545 19.585V15.5965C19.3542 15.2501 19.5921 14.8375 19.7544 14.3826C19.9167 13.9277 20.0002 13.4397 20 12.9468ZM14.3273 12.9468C14.3273 12.3723 14.4728 11.8108 14.7455 11.3332C15.0182 10.8557 15.4058 10.4834 15.8593 10.2636C16.3128 10.0438 16.8118 9.98627 17.2933 10.0983C17.7747 10.2104 18.2169 10.487 18.564 10.8932C18.9111 11.2993 19.1475 11.8168 19.2432 12.3802C19.339 12.9435 19.2898 13.5275 19.102 14.0582C18.9141 14.5888 18.596 15.0424 18.1879 15.3615C17.7798 15.6806 17.2999 15.851 16.8091 15.851C16.1509 15.851 15.5196 15.545 15.0542 15.0003C14.5887 14.4557 14.3273 13.717 14.3273 12.9468ZM18.3455 18.9136L16.9675 18.1073C16.9183 18.0786 16.8641 18.0636 16.8091 18.0636C16.7541 18.0636 16.6999 18.0786 16.6507 18.1073L15.2727 18.9136V16.2168C15.7433 16.5202 16.2718 16.6794 16.8091 16.6794C17.3464 16.6794 17.8749 16.5202 18.3455 16.2168V18.9136ZM13.3818 17.3722C13.3818 17.4823 13.3445 17.5878 13.278 17.6656C13.2115 17.7434 13.1213 17.7871 13.0273 17.7871H7.82727C7.60787 17.7871 7.39745 17.6851 7.2423 17.5036C7.08716 17.322 7 17.0758 7 16.8191V7.96808C7 7.71133 7.08716 7.46509 7.2423 7.28354C7.39745 7.10199 7.60787 7 7.82727 7H18.2273C18.4467 7 18.6571 7.10199 18.8122 7.28354C18.9674 7.46509 19.0545 7.71133 19.0545 7.96808C19.0545 8.07811 19.0172 8.18364 18.9507 8.26145C18.8842 8.33925 18.794 8.38297 18.7 8.38297C18.606 8.38297 18.5158 8.33925 18.4493 8.26145C18.3828 8.18364 18.3455 8.07811 18.3455 7.96808C18.3455 7.9314 18.333 7.89622 18.3108 7.87029C18.2887 7.84435 18.2586 7.82978 18.2273 7.82978H7.82727C7.79593 7.82978 7.76587 7.84435 7.74371 7.87029C7.72154 7.89622 7.70909 7.9314 7.70909 7.96808V16.8191C7.70909 16.8557 7.72154 16.8909 7.74371 16.9168C7.76587 16.9428 7.79593 16.9574 7.82727 16.9574H13.0273C13.1213 16.9574 13.2115 17.0011 13.278 17.0789C13.3445 17.1567 13.3818 17.2622 13.3818 17.3722ZM12.4364 13.4999C12.4364 13.61 12.399 13.7155 12.3325 13.7933C12.266 13.8711 12.1758 13.9148 12.0818 13.9148H9.71818C9.62415 13.9148 9.53397 13.8711 9.46748 13.7933C9.40099 13.7155 9.36364 13.61 9.36364 13.4999C9.36364 13.3899 9.40099 13.2844 9.46748 13.2066C9.53397 13.1288 9.62415 13.085 9.71818 13.085H12.0818C12.1758 13.085 12.266 13.1288 12.3325 13.2066C12.399 13.2844 12.4364 13.3899 12.4364 13.4999ZM12.4364 11.2872C12.4364 11.3972 12.399 11.5028 12.3325 11.5806C12.266 11.6584 12.1758 11.7021 12.0818 11.7021H9.71818C9.62415 11.7021 9.53397 11.6584 9.46748 11.5806C9.40099 11.5028 9.36364 11.3972 9.36364 11.2872C9.36364 11.1772 9.40099 11.0716 9.46748 10.9938C9.53397 10.916 9.62415 10.8723 9.71818 10.8723H12.0818C12.1758 10.8723 12.266 10.916 12.3325 10.9938C12.399 11.0716 12.4364 11.1772 12.4364 11.2872Z" fill="black"/>
<path d="M22.4054 1H3.59459C2.16164 1 1 2.16164 1 3.59459V22.4054C1 23.8384 2.16164 25 3.59459 25H22.4054C23.8384 25 25 23.8384 25 22.4054V3.59459C25 2.16164 23.8384 1 22.4054 1Z" stroke="black" stroke-linecap="round" stroke-linejoin="round"/>
</svg>
