<svg width="26" height="26" viewBox="0 0 26 26" fill="none" xmlns="http://www.w3.org/2000/svg">
<path d="M23 13C23 7.48 18.52 3 13 3C7.48 3 3 7.48 3 13C3 17.84 6.44 21.87 11 22.8V16H9V13H11V10.5C11 8.57 12.57 7 14.5 7H17V10H15C14.45 10 14 10.45 14 11V13H17V16H14V22.95C19.05 22.45 23 18.19 23 13Z" fill="black"/>
<path d="M22.4054 1H3.59459C2.16164 1 1 2.16164 1 3.59459V22.4054C1 23.8384 2.16164 25 3.59459 25H22.4054C23.8384 25 25 23.8384 25 22.4054V3.59459C25 2.16164 23.8384 1 22.4054 1Z" stroke="black" stroke-linecap="round" stroke-linejoin="round"/>
</svg>
