<svg width="26" height="26" viewBox="0 0 26 26" fill="none" xmlns="http://www.w3.org/2000/svg">
<path d="M14.0286 3C15.1536 3.003 15.7246 3.009 16.2176 3.023L16.4116 3.03C16.6356 3.038 16.8566 3.048 17.1236 3.06C18.1876 3.11 18.9136 3.278 19.5506 3.525C20.2106 3.779 20.7666 4.123 21.3226 4.678C21.8311 5.1779 22.2245 5.78259 22.4756 6.45C22.7226 7.087 22.8906 7.813 22.9406 8.878C22.9526 9.144 22.9626 9.365 22.9706 9.59L22.9766 9.784C22.9916 10.276 22.9976 10.847 22.9996 11.972L23.0006 12.718V14.028C23.003 14.7574 22.9954 15.4868 22.9776 16.216L22.9716 16.41C22.9636 16.635 22.9536 16.856 22.9416 17.122C22.8916 18.187 22.7216 18.912 22.4756 19.55C22.2253 20.2178 21.8317 20.8226 21.3226 21.322C20.8225 21.8303 20.2179 22.2238 19.5506 22.475C18.9136 22.722 18.1876 22.89 17.1236 22.94C16.8863 22.9512 16.649 22.9612 16.4116 22.97L16.2176 22.976C15.7246 22.99 15.1536 22.997 14.0286 22.999L13.2826 23H11.9736C11.2438 23.0025 10.5141 22.9949 9.78458 22.977L9.59058 22.971C9.35319 22.962 9.11585 22.9517 8.87858 22.94C7.81458 22.89 7.08858 22.722 6.45058 22.475C5.78325 22.2244 5.17879 21.8308 4.67958 21.322C4.17062 20.8223 3.7768 20.2176 3.52558 19.55C3.27858 18.913 3.11058 18.187 3.06058 17.122C3.04944 16.8847 3.03944 16.6474 3.03058 16.41L3.02558 16.216C3.00715 15.4868 2.99881 14.7574 3.00058 14.028V11.972C2.99779 11.2426 3.00512 10.5132 3.02258 9.784L3.02958 9.59C3.03758 9.365 3.04758 9.144 3.05958 8.878C3.10958 7.813 3.27758 7.088 3.52458 6.45C3.77569 5.7819 4.1703 5.17702 4.68058 4.678C5.17967 4.16947 5.78372 3.77599 6.45058 3.525C7.08858 3.278 7.81358 3.11 8.87858 3.06C9.14458 3.048 9.36658 3.038 9.59058 3.03L9.78458 3.024C10.5138 3.00623 11.2432 2.99857 11.9726 3.001L14.0286 3ZM13.0006 8C11.6745 8 10.4027 8.52678 9.46504 9.46447C8.52736 10.4021 8.00058 11.6739 8.00058 13C8.00058 14.3261 8.52736 15.5979 9.46504 16.5355C10.4027 17.4732 11.6745 18 13.0006 18C14.3267 18 15.5984 17.4732 16.5361 16.5355C17.4738 15.5979 18.0006 14.3261 18.0006 13C18.0006 11.6739 17.4738 10.4021 16.5361 9.46447C15.5984 8.52678 14.3267 8 13.0006 8ZM13.0006 10C13.3945 9.99993 13.7847 10.0775 14.1487 10.2282C14.5127 10.3789 14.8434 10.5998 15.122 10.8783C15.4007 11.1569 15.6217 11.4875 15.7725 11.8515C15.9233 12.2154 16.001 12.6055 16.0011 12.9995C16.0011 13.3935 15.9236 13.7836 15.7729 14.1476C15.6222 14.5116 15.4013 14.8423 15.1228 15.121C14.8442 15.3996 14.5135 15.6206 14.1496 15.7714C13.7856 15.9223 13.3955 15.9999 13.0016 16C12.2059 16 11.4429 15.6839 10.8803 15.1213C10.3176 14.5587 10.0016 13.7956 10.0016 13C10.0016 12.2044 10.3176 11.4413 10.8803 10.8787C11.4429 10.3161 12.2059 10 13.0016 10M18.2516 6.5C17.9201 6.5 17.6021 6.6317 17.3677 6.86612C17.1333 7.10054 17.0016 7.41848 17.0016 7.75C17.0016 8.08152 17.1333 8.39946 17.3677 8.63388C17.6021 8.8683 17.9201 9 18.2516 9C18.5831 9 18.901 8.8683 19.1355 8.63388C19.3699 8.39946 19.5016 8.08152 19.5016 7.75C19.5016 7.41848 19.3699 7.10054 19.1355 6.86612C18.901 6.6317 18.5831 6.5 18.2516 6.5Z" fill="black"/>
<path d="M22.4054 1H3.59459C2.16164 1 1 2.16164 1 3.59459V22.4054C1 23.8384 2.16164 25 3.59459 25H22.4054C23.8384 25 25 23.8384 25 22.4054V3.59459C25 2.16164 23.8384 1 22.4054 1Z" stroke="black" stroke-linecap="round" stroke-linejoin="round"/>
</svg>
