<svg width="26" height="26" viewBox="0 0 26 26" fill="none" xmlns="http://www.w3.org/2000/svg">
<path d="M12.923 20.538L6.923 17.277V12.431L4 10.846L12.923 6L21.846 10.846V17.231H20.846V11.408L18.923 12.431V17.277L12.923 20.538ZM12.923 14.546L19.753 10.846L12.923 7.146L6.093 10.846L12.923 14.546ZM12.923 19.398L17.923 16.698V12.981L12.923 15.689L7.923 12.981V16.698L12.923 19.398Z" fill="black"/>
<path d="M22.4054 1H3.59459C2.16164 1 1 2.16164 1 3.59459V22.4054C1 23.8384 2.16164 25 3.59459 25H22.4054C23.8384 25 25 23.8384 25 22.4054V3.59459C25 2.16164 23.8384 1 22.4054 1Z" stroke="black" stroke-linecap="round" stroke-linejoin="round"/>
</svg>
