<svg width="30" height="30" viewBox="0 0 30 30" fill="none" xmlns="http://www.w3.org/2000/svg">
<path id="Vector" d="M29.629 12.7202L26.2757 11.7202C26.0438 10.9115 25.725 10.1302 25.3247 9.39015L26.9664 6.32015C27.0279 6.20427 27.0505 6.07164 27.0307 5.94193C27.0108 5.81223 26.9497 5.69237 26.8562 5.60015L24.4639 3.20015C24.3716 3.10682 24.2516 3.04571 24.1218 3.0259C23.992 3.00608 23.8592 3.02862 23.7432 3.09015L20.6902 4.72015C19.9421 4.30081 19.1498 3.96544 18.3279 3.72015L17.3269 0.410153C17.2846 0.288169 17.2046 0.182752 17.0985 0.109075C16.9923 0.0353978 16.8656 -0.00273924 16.7364 0.000153169H13.353C13.2231 0.000757742 13.0967 0.0427877 12.9922 0.120126C12.8878 0.197465 12.8108 0.306076 12.7725 0.430153L11.7715 3.73015C10.9427 3.97413 10.1437 4.30953 9.38917 4.73015L6.38624 3.11015C6.27025 3.04862 6.13748 3.02608 6.00765 3.0459C5.87782 3.06571 5.75785 3.12682 5.66554 3.22015L3.23316 5.59015C3.13974 5.68237 3.07857 5.80223 3.05873 5.93193C3.0389 6.06164 3.06145 6.19427 3.12305 6.31015L4.74464 9.31015C4.32428 10.0607 3.98857 10.8556 3.74366 11.6802L0.430421 12.6802C0.306222 12.7185 0.197505 12.7954 0.120091 12.8997C0.0426762 13.004 0.000605165 13.1303 0 13.2602V16.6402C0.000605165 16.77 0.0426762 16.8963 0.120091 17.0006C0.197505 17.1049 0.306222 17.1818 0.430421 17.2202L3.76368 18.2202C4.01127 19.031 4.34692 19.8123 4.76466 20.5502L3.12305 23.6902C3.06145 23.806 3.0389 23.9387 3.05873 24.0684C3.07857 24.1981 3.13974 24.3179 3.23316 24.4102L5.6255 26.8002C5.71781 26.8935 5.83778 26.9546 5.96761 26.9744C6.09744 26.9942 6.23021 26.9717 6.3462 26.9102L9.43922 25.2602C10.1709 25.6546 10.9427 25.9697 11.7415 26.2002L12.7425 29.5702C12.7808 29.6942 12.8578 29.8028 12.9622 29.8802C13.0666 29.9575 13.193 29.9995 13.323 30.0002H16.7063C16.8363 29.9995 16.9627 29.9575 17.0671 29.8802C17.1715 29.8028 17.2485 29.6942 17.2869 29.5702L18.2879 26.1902C19.0798 25.9585 19.8449 25.6434 20.5701 25.2502L23.6831 26.9102C23.7991 26.9717 23.9319 26.9942 24.0617 26.9744C24.1916 26.9546 24.3115 26.8935 24.4038 26.8002L26.7962 24.4102C26.8896 24.3179 26.9508 24.1981 26.9706 24.0684C26.9904 23.9387 26.9679 23.806 26.9063 23.6902L25.2447 20.5902C25.6424 19.8628 25.9612 19.0952 26.1956 18.3002L29.5689 17.3002C29.6931 17.2618 29.8018 17.1849 29.8792 17.0806C29.9566 16.9763 29.9987 16.85 29.9993 16.7202V13.3102C30.0052 13.1858 29.9729 13.0626 29.9067 12.9572C29.8405 12.8517 29.7436 12.769 29.629 12.7202ZM15.0447 20.5002C13.9558 20.5002 12.8914 20.1776 11.9861 19.5732C11.0807 18.9689 10.3751 18.1099 9.95839 17.1049C9.5417 16.0999 9.43268 14.9941 9.64511 13.9272C9.85753 12.8603 10.3819 11.8803 11.1518 11.1111C11.9218 10.3419 12.9027 9.81805 13.9707 9.60583C15.0386 9.39362 16.1455 9.50253 17.1515 9.91882C18.1575 10.3351 19.0173 11.04 19.6223 11.9445C20.2272 12.849 20.5501 13.9124 20.5501 15.0002C20.5501 16.4588 19.9701 17.8578 18.9376 18.8892C17.9051 19.9207 16.5048 20.5002 15.0447 20.5002Z" fill="#0189CD"/>
</svg>
