<svg width="26" height="26" viewBox="0 0 26 26" fill="none" xmlns="http://www.w3.org/2000/svg">
<path d="M12.0073 6H16.0073V7.33279H12.0073V6ZM18.6867 10.2576L19.6427 9.30199L18.7 8.35971L17.7447 9.31465C16.6979 8.4762 15.4001 8.01302 14.0588 7.99925C12.7175 7.98547 11.4104 8.42191 10.3467 9.23869L11.2933 10.1983C12.0843 9.63676 13.0299 9.3341 14 9.33198L14.0067 9.33265V13.9841L17.3087 17.2881C16.6568 17.9427 15.8252 18.3892 14.9192 18.571C14.0132 18.7528 13.0737 18.6617 12.2196 18.3092C11.3654 17.9567 10.6352 17.3587 10.1214 16.591C9.60759 15.8233 9.33332 14.9204 9.33333 13.9968H11.3333L8.66667 11.3312L6 13.9968H8C7.99909 14.9551 8.22796 15.8998 8.66744 16.7516C9.10692 17.6033 9.7442 18.3374 10.5259 18.8924C11.3076 19.4473 12.211 19.8069 13.1603 19.941C14.1096 20.0751 15.0773 19.9799 15.9823 19.6632C16.8872 19.3466 17.7031 18.8178 18.3615 18.1211C19.0199 17.4245 19.5017 16.5802 19.7665 15.6592C20.0314 14.7381 20.0716 13.7669 19.8837 12.8271C19.6958 11.8873 19.2853 11.0062 18.6867 10.2576Z" fill="black"/>
<path d="M22.4054 1H3.59459C2.16164 1 1 2.16164 1 3.59459V22.4054C1 23.8384 2.16164 25 3.59459 25H22.4054C23.8384 25 25 23.8384 25 22.4054V3.59459C25 2.16164 23.8384 1 22.4054 1Z" stroke="black" stroke-linecap="round" stroke-linejoin="round"/>
</svg>
