<svg width="23" height="23" viewBox="0 0 23 23" fill="none" xmlns="http://www.w3.org/2000/svg">
<path d="M21.7615 10.3105L17.2731 14.376L18.6176 20.4288C18.6888 20.7453 18.6685 21.0764 18.5592 21.381C18.45 21.6855 18.2567 21.9498 18.0036 22.1409C17.7504 22.3321 17.4485 22.4415 17.1357 22.4555C16.823 22.4696 16.5131 22.3876 16.245 22.2199L11.1584 19.0179L6.08267 22.2199C5.81453 22.3876 5.50469 22.4696 5.19191 22.4555C4.87913 22.4415 4.57728 22.3321 4.32409 22.1409C4.07091 21.9498 3.87762 21.6855 3.76841 21.381C3.65919 21.0764 3.63889 20.7453 3.71004 20.4288L5.05261 14.3822L0.563118 10.3105C0.325664 10.0979 0.15396 9.81735 0.0695386 9.50392C-0.0148831 9.1905 -0.00826484 8.85818 0.0885635 8.54865C0.185392 8.23911 0.36812 7.96614 0.613833 7.76396C0.859546 7.56177 1.15731 7.43938 1.46977 7.41213L7.38742 6.88018L9.69735 1.162C9.81798 0.86196 10.0214 0.605665 10.2821 0.425392C10.5428 0.245119 10.8491 0.148926 11.1623 0.148926C11.4756 0.148926 11.7818 0.245119 12.0425 0.425392C12.3032 0.605665 12.5067 0.86196 12.6273 1.162L14.9442 6.88018L20.8599 7.41213C21.1723 7.43938 21.4701 7.56177 21.7158 7.76396C21.9615 7.96614 22.1442 8.23911 22.2411 8.54865C22.3379 8.85818 22.3445 9.1905 22.2601 9.50392C22.1757 9.81735 22.004 10.0979 21.7665 10.3105H21.7615Z" fill="black"/>
</svg>
