<svg width="26" height="26" viewBox="0 0 26 26" fill="none" xmlns="http://www.w3.org/2000/svg">
<path d="M7.00781 11.0605V16.1214M18.993 11.0605V16.1214" stroke="black" stroke-linecap="round" stroke-linejoin="round"/>
<path d="M13.0004 16.1217C16.31 16.1217 18.993 13.8559 18.993 11.0608C18.993 8.26582 16.31 6 13.0004 6C9.69079 6 7.00781 8.26582 7.00781 11.0608C7.00781 13.8559 9.69079 16.1217 13.0004 16.1217Z" stroke="black" stroke-linecap="round" stroke-linejoin="round"/>
<path d="M13.0004 14.3198C15.1315 14.3198 16.8591 12.8608 16.8591 11.061C16.8591 9.26125 15.1315 7.80225 13.0004 7.80225C10.8692 7.80225 9.1416 9.26125 9.1416 11.061C9.1416 12.8608 10.8692 14.3198 13.0004 14.3198Z" stroke="black" stroke-linecap="round" stroke-linejoin="round"/>
<path d="M13.0003 12.5175C13.953 12.5175 14.7252 11.8653 14.7252 11.0607C14.7252 10.2562 13.953 9.604 13.0003 9.604C12.0477 9.604 11.2754 10.2562 11.2754 11.0607C11.2754 11.8653 12.0477 12.5175 13.0003 12.5175Z" stroke="black" stroke-linecap="round" stroke-linejoin="round"/>
<path d="M6 16.1216H8.01482V19.1495C8.0147 19.3751 7.90852 19.5914 7.7196 19.7509C7.53069 19.9104 7.27452 20 7.00741 20C6.74023 20 6.48399 19.9103 6.29506 19.7508C6.10614 19.5912 6 19.3748 6 19.1492V16.1216ZM17.9856 16.1216H20V19.1495C19.9999 19.3751 19.8937 19.5914 19.7048 19.7509C19.5159 19.9104 19.2597 20 18.9926 20C18.7254 20 18.4692 19.9103 18.2802 19.7508C18.0913 19.5912 17.9852 19.3748 17.9852 19.1492L17.9856 16.1216Z" stroke="black" stroke-linecap="round" stroke-linejoin="round"/>
<path d="M22.4054 1H3.59459C2.16164 1 1 2.16164 1 3.59459V22.4054C1 23.8384 2.16164 25 3.59459 25H22.4054C23.8384 25 25 23.8384 25 22.4054V3.59459C25 2.16164 23.8384 1 22.4054 1Z" stroke="black" stroke-linecap="round" stroke-linejoin="round"/>
</svg>
