<svg width="280" height="219" viewBox="0 0 280 219" fill="none" xmlns="http://www.w3.org/2000/svg">
<path d="M280 193.167H0V193.308H280V193.167Z" fill="#EBEBEB"/>
<path d="M47.9242 198.536H29.377V198.677H47.9242V198.536Z" fill="#EBEBEB"/>
<path d="M122.019 197.008H95.8389V197.149H122.019V197.008Z" fill="#EBEBEB"/>
<path d="M73.9153 202.896H63.1689V203.037H73.9153V202.896Z" fill="#EBEBEB"/>
<path d="M191.824 200.448H174.906V200.589H191.824V200.448Z" fill="#EBEBEB"/>
<path d="M207.625 200.448H196.806V200.589H207.625V200.448Z" fill="#EBEBEB"/>
<path d="M251.95 202.828H219.156V202.969H251.95V202.828Z" fill="#EBEBEB"/>
<path d="M132.72 168.013H24.5895C23.7424 168.011 22.9305 167.671 22.332 167.067C21.7336 166.464 21.3975 165.645 21.3975 164.792V11.7057C21.4048 10.8574 21.7442 10.0464 22.3419 9.44866C22.9395 8.85096 23.7472 8.51488 24.5895 8.51343H132.72C133.568 8.51343 134.381 8.85272 134.981 9.45667C135.581 10.0606 135.917 10.8798 135.917 11.7339V164.792C135.917 165.646 135.581 166.465 134.981 167.069C134.381 167.673 133.568 168.013 132.72 168.013ZM24.5895 8.62623C23.7795 8.62772 23.0032 8.95282 22.431 9.53017C21.8588 10.1075 21.5375 10.8899 21.5375 11.7057V164.792C21.5375 165.608 21.8588 166.39 22.431 166.968C23.0032 167.545 23.7795 167.87 24.5895 167.872H132.72C133.53 167.87 134.307 167.545 134.88 166.968C135.453 166.391 135.776 165.608 135.777 164.792V11.7057C135.776 10.8894 135.453 10.107 134.88 9.52982C134.307 8.95264 133.53 8.62772 132.72 8.62623H24.5895Z" fill="#EBEBEB"/>
<path d="M253.854 168.013H145.718C144.871 168.011 144.058 167.671 143.459 167.068C142.859 166.464 142.522 165.646 142.521 164.792V11.7057C142.529 10.8569 142.87 10.0459 143.469 9.44831C144.067 8.85076 144.875 8.51486 145.718 8.51343H253.854C254.695 8.51636 255.502 8.8531 256.098 9.45064C256.695 10.0482 257.033 10.8584 257.041 11.7057V164.792C257.041 165.644 256.705 166.462 256.108 167.065C255.511 167.669 254.7 168.01 253.854 168.013ZM145.718 8.62623C144.908 8.62772 144.131 8.95264 143.558 9.52982C142.985 10.107 142.662 10.8894 142.661 11.7057V164.792C142.662 165.608 142.985 166.391 143.558 166.968C144.131 167.545 144.908 167.87 145.718 167.872H253.854C254.665 167.87 255.441 167.545 256.015 166.968C256.588 166.391 256.91 165.608 256.912 164.792V11.7057C256.91 10.8894 256.588 10.107 256.015 9.52982C255.441 8.95264 254.665 8.62772 253.854 8.62623H145.718Z" fill="#EBEBEB"/>
<path d="M163.996 29.9963H38.4443V109.126H163.996V29.9963Z" fill="#F0F0F0"/>
<path d="M161.543 105.409V33.7188L40.9022 33.7188V105.409L161.543 105.409Z" fill="#FAFAFA"/>
<path d="M56.7793 105.403L69.1553 33.7129H78.2833L65.9073 105.403H56.7793Z" fill="white"/>
<path d="M68.0127 105.403L80.3887 33.7129H84.4711L72.0951 105.403H68.0127Z" fill="white"/>
<path d="M87.9805 105.403L100.356 33.7129H109.479L97.1029 105.403H87.9805Z" fill="white"/>
<path d="M110.985 105.403L123.361 33.7129H127.444L115.068 105.403H110.985Z" fill="white"/>
<path d="M73.2207 105.403V33.7129H72.5991V105.403H73.2207Z" fill="#E0E0E0"/>
<path d="M41.5244 105.403L41.5244 33.7129H40.9028L40.9028 105.403H41.5244Z" fill="#E0E0E0"/>
<path d="M72.5986 105.403V33.7129H70.1402V105.403H72.5986Z" fill="#F0F0F0"/>
<path d="M103.678 105.409V33.7188H103.056V105.409H103.678Z" fill="#E0E0E0"/>
<path d="M103.051 105.409V33.7188H100.592V105.409H103.051Z" fill="#F0F0F0"/>
<path d="M134.148 105.403V33.7129H133.527V105.403H134.148Z" fill="#E0E0E0"/>
<path d="M133.525 105.403V33.7129H131.067V105.403H133.525Z" fill="#F0F0F0"/>
<path d="M164.618 109.126V29.9963H163.997V109.126H164.618Z" fill="#E0E0E0"/>
<path d="M176.753 24.5591H32.8664C32.651 24.5577 32.4447 24.4712 32.2919 24.3183C32.139 24.1654 32.0518 23.9583 32.0488 23.7413C32.0488 23.5224 32.1348 23.3124 32.288 23.157C32.4411 23.0017 32.6491 22.9137 32.8664 22.9122H176.753C176.861 22.9122 176.968 22.9337 177.068 22.9753C177.168 23.017 177.258 23.0781 177.335 23.1551C177.411 23.2321 177.472 23.3234 177.513 23.424C177.555 23.5246 177.576 23.6324 177.576 23.7413C177.573 23.9592 177.485 24.1672 177.331 24.3203C177.177 24.4733 176.969 24.5591 176.753 24.5591Z" fill="#E0E0E0"/>
<g opacity="0.8">
<path d="M89.4772 21.3164H34.8828V128.155H89.4772V21.3164Z" fill="#F5F5F5"/>
<path d="M56.2754 129.334H51.7002L52.9882 22.4951H55.0322L56.2754 129.334Z" fill="#E6E6E6"/>
<path d="M46.1837 129.334H43.9717L44.5933 22.4951H45.5789L46.1837 129.334Z" fill="#E6E6E6"/>
<path d="M69.547 129.334H67.335L67.9566 22.4951H68.9422L69.547 129.334Z" fill="#E6E6E6"/>
<path d="M80.7865 129.334H78.5801L79.1961 22.4951H80.1873L80.7865 129.334Z" fill="#E6E6E6"/>
</g>
<g opacity="0.8">
<path d="M173.937 21.3107H146.643V128.149H173.937V21.3107Z" fill="#F5F5F5"/>
<path d="M157.338 129.328H155.053L155.691 22.495H156.716L157.338 129.328Z" fill="#E6E6E6"/>
<path d="M152.294 129.328H151.19L151.498 22.495H151.991L152.294 129.328Z" fill="#E6E6E6"/>
<path d="M163.974 129.328H162.871L163.179 22.495H163.672L163.974 129.328Z" fill="#E6E6E6"/>
<path d="M169.591 129.328H168.488L168.802 22.495H169.295L169.591 129.328Z" fill="#E6E6E6"/>
</g>
<path d="M145.202 192.203H150.455V138.273H145.202V192.203Z" fill="#F0F0F0"/>
<path d="M35.9692 138.279L151.732 138.279V135.052H35.9692V138.279Z" fill="#F0F0F0"/>
<path d="M39.3908 193.167H148.316V192.203H39.3908V193.167Z" fill="#F0F0F0"/>
<path d="M145.202 138.273H37.251V192.203H145.202V138.273Z" fill="#FAFAFA"/>
<path d="M140.829 144.28H41.6357V160.827H140.829V144.28Z" fill="#F0F0F0"/>
<path d="M140.829 168.622H41.6357V185.17H140.829V168.622Z" fill="#F0F0F0"/>
<path d="M56.817 145.881H125.641C126.204 145.881 126.66 145.422 126.66 144.855V144.336C126.66 143.769 126.204 143.31 125.641 143.31H56.817C56.2541 143.31 55.7978 143.769 55.7978 144.336V144.855C55.7978 145.422 56.2541 145.881 56.817 145.881Z" fill="#FAFAFA"/>
<path d="M56.817 170.212H125.641C126.204 170.212 126.66 169.753 126.66 169.186V168.667C126.66 168.1 126.204 167.64 125.641 167.64H56.817C56.2541 167.64 55.7978 168.1 55.7978 168.667V169.186C55.7978 169.753 56.2541 170.212 56.817 170.212Z" fill="#FAFAFA"/>
<path d="M232.734 190.656C236.056 187.311 236.056 181.886 232.734 178.541C229.412 175.195 224.026 175.195 220.704 178.541C217.382 181.886 217.382 187.311 220.704 190.656C224.026 194.002 229.412 194.002 232.734 190.656Z" fill="#EBEBEB"/>
<path d="M239.781 193.161C245.642 193.161 250.393 188.376 250.393 182.474C250.393 176.571 245.642 171.786 239.781 171.786C233.92 171.786 229.169 176.571 229.169 182.474C229.169 188.376 233.92 193.161 239.781 193.161Z" fill="#F5F5F5"/>
<path d="M186.423 102.594L246.226 102.594V27.4243L186.423 27.4243V102.594Z" fill="#E6E6E6"/>
<path d="M183.798 102.594L245.331 102.594V27.4243L183.798 27.4243V102.594Z" fill="#F5F5F5"/>
<path d="M243.453 100.496V29.5226L185.667 29.5226V100.496H243.453Z" fill="#FAFAFA"/>
<path d="M214.563 77.6035C225.468 77.6035 234.309 68.6999 234.309 57.7168C234.309 46.7338 225.468 37.8302 214.563 37.8302C203.658 37.8302 194.817 46.7338 194.817 57.7168C194.817 68.6999 203.658 77.6035 214.563 77.6035Z" fill="white"/>
<path d="M186.212 100.496V29.5226H185.674V100.496H186.212Z" fill="#E6E6E6"/>
<path d="M235.507 53.47C232.645 51.8964 228.737 53.2105 227.208 53.7294C225.679 54.2483 221.793 55.6921 220.561 53.1654C220 52.048 219.142 51.1092 218.084 50.4533C217.025 49.7973 215.806 49.4501 214.563 49.4501C213.32 49.4501 212.101 49.7973 211.042 50.4533C209.984 51.1092 209.126 52.048 208.565 53.1654C207.333 55.6865 203.447 54.2483 201.918 53.7294C200.389 53.2105 196.475 51.8964 193.619 53.47C190.763 55.0435 193.059 59.2961 195.753 61.1403C198.446 62.9846 201.733 59.4483 198.687 58.6475C195.641 57.8466 194.207 57.3051 194.61 55.4214C195.013 53.5376 198.967 53.9832 202.041 54.66L202.747 54.8235C204.722 55.3052 206.498 56.3955 207.828 57.9423C209.158 59.4892 209.976 61.4155 210.167 63.4527V63.5035C210.329 65.2688 210.089 68.9123 209.999 70.8806C209.909 72.849 211.606 77.3441 211.752 78.9176C211.897 80.4912 214.552 80.5194 214.552 80.5194C214.552 80.5194 217.212 80.4517 217.352 78.9176C217.492 77.3835 219.194 72.7869 219.11 70.8806C219.026 68.9743 218.78 65.2406 218.942 63.5035V63.4471C219.135 61.4094 219.955 59.4832 221.287 57.9373C222.619 56.3914 224.397 55.3028 226.373 54.8235L227.068 54.66C230.142 53.9832 234.118 53.532 234.499 55.4214C234.88 57.3108 233.469 57.8409 230.422 58.6475C227.376 59.454 230.652 62.979 233.357 61.1403C236.061 59.3017 238.363 55.0379 235.507 53.47Z" fill="#F0F0F0"/>
<path opacity="0.9" d="M236.594 55.5567C236.585 55.1616 236.468 54.7767 236.257 54.4436C236.046 54.1106 235.748 53.8421 235.396 53.6673C234.427 53.1685 233.348 52.9222 232.26 52.951C230.558 53.0136 228.878 53.3507 227.282 53.9493L227.108 54.0057H227.074C225.268 54.7224 223.314 54.9819 221.385 54.7614C219.761 54.4907 217.246 53.8872 214.564 53.8872C211.882 53.8872 209.367 54.4907 207.76 54.7614C205.833 54.9852 203.882 54.7296 202.076 54.0169H202.042L201.869 53.9606C200.273 53.3626 198.592 53.0256 196.89 52.9623C195.802 52.9335 194.724 53.1798 193.754 53.6786C193.403 53.8534 193.105 54.1219 192.894 54.4549C192.682 54.788 192.566 55.1729 192.556 55.5679C192.466 57.4573 194.191 59.7923 195.916 60.9598C196.363 61.2735 196.894 61.4427 197.439 61.4448C198.626 61.4448 199.618 60.644 199.707 59.9277C199.769 59.4483 199.399 59.076 198.66 58.8786C195.748 58.1116 193.984 57.5307 194.421 55.3875C194.628 54.3723 195.709 53.859 197.635 53.859C199.143 53.8977 200.644 54.0866 202.115 54.423L202.826 54.5922C206.965 55.6018 213.466 59.1494 213.842 63.4188V63.4696C213.982 64.9473 214.295 63.9039 214.189 65.923C214.189 66.346 214.15 66.7351 214.133 67.051C214.082 68.1395 211.893 70.1756 212.414 71.9747C212.772 73.2719 213.086 78.1787 213.147 78.8668C213.17 79.2334 213.331 79.5775 213.597 79.829C213.862 80.0804 214.213 80.2204 214.578 80.2204C214.943 80.2204 215.294 80.0804 215.56 79.829C215.825 79.5775 215.986 79.2334 216.009 78.8668C216.07 78.2013 216.384 73.2719 216.748 71.9747C217.246 70.1756 215.068 68.1395 215.023 67.051C215.023 66.7126 214.99 66.3234 214.967 65.923C214.861 63.9039 215.18 64.9473 215.314 63.4696V63.4132C215.718 59.1437 222.202 55.5962 226.346 54.5866L227.046 54.423C228.518 54.0859 230.018 53.897 231.526 53.859C233.453 53.859 234.534 54.3723 234.741 55.3875C235.172 57.5307 233.408 58.1116 230.496 58.8786C229.762 59.076 229.376 59.4426 229.449 59.9277C229.544 60.644 230.53 61.4448 231.689 61.4448C232.235 61.4428 232.769 61.2736 233.218 60.9598C234.959 59.781 236.678 57.4461 236.594 55.5567Z" fill="#E0E0E0"/>
<path d="M208.628 58.7716C208.578 59.2115 208.539 60.0801 207.094 61.2306C206.08 62.0371 203.28 62.2627 202.16 61.5295C202.142 61.4465 202.112 61.3667 202.071 61.2927C202.104 61.1985 202.121 61.0993 202.121 60.9994C202.121 60.8742 202.093 60.7505 202.04 60.6374C201.987 60.5243 201.909 60.4244 201.813 60.3451C201.849 60.2456 201.868 60.1408 201.869 60.0349C201.869 59.8212 201.788 59.6154 201.642 59.4601C201.496 59.3048 201.297 59.2118 201.085 59.2002C201.088 59.1495 201.088 59.0987 201.085 59.0479C201.086 58.9374 201.065 58.8278 201.023 58.7255C200.981 58.6232 200.92 58.5302 200.842 58.452C200.765 58.3739 200.672 58.312 200.571 58.27C200.469 58.2281 200.36 58.2068 200.251 58.2076C200.155 58.2075 200.06 58.2247 199.971 58.2583C199.91 58.1004 199.803 57.9647 199.664 57.8691C199.525 57.7735 199.36 57.7224 199.192 57.7225C199.049 57.7241 198.909 57.7622 198.785 57.8333C198.66 57.9043 198.556 58.0059 198.481 58.1286C198.404 58.0315 198.306 57.9533 198.194 57.8996C198.083 57.8459 197.961 57.8181 197.837 57.8184C197.616 57.8184 197.403 57.907 197.247 58.0646C197.09 58.2222 197.003 58.4359 197.003 58.6588C197.002 58.7371 197.014 58.815 197.036 58.89C196.86 58.9472 196.708 59.0616 196.604 59.2154C196.499 59.3691 196.449 59.5534 196.459 59.7393C196.47 59.9252 196.542 60.1022 196.664 60.2425C196.786 60.3828 196.95 60.4784 197.131 60.5143C197.097 60.6024 197.08 60.6962 197.081 60.7907C197.081 61.0136 197.169 61.2273 197.325 61.3849C197.482 61.5425 197.694 61.6311 197.915 61.6311C198.088 61.6309 198.256 61.5777 198.397 61.4788C198.372 61.5553 198.359 61.6352 198.358 61.7157C198.358 61.9385 198.446 62.1523 198.602 62.3099C198.759 62.4675 198.971 62.556 199.192 62.556C199.398 62.5595 199.598 62.485 199.752 62.3473C199.82 62.4952 199.928 62.6206 200.064 62.7086C200.2 62.7965 200.358 62.8434 200.519 62.8437C200.643 62.844 200.765 62.8162 200.877 62.7625C200.988 62.7088 201.086 62.6305 201.163 62.5335C201.227 62.542 201.291 62.542 201.354 62.5335H201.415L201.606 62.6406C201.886 62.7915 202.183 62.9071 202.491 62.9847C203.319 63.1894 204.182 63.2029 205.016 63.0241C205.858 62.8497 206.628 62.4254 207.228 61.8059C207.723 61.2523 208.306 60.7853 208.953 60.4241C209.119 60.3496 209.294 60.2966 209.474 60.2662C209.491 59.736 209.239 58.9521 208.628 58.7716Z" fill="#FAFAFA"/>
<path d="M232.636 59.6853C232.636 59.5098 232.583 59.3384 232.483 59.1949C232.382 59.0514 232.24 58.9429 232.076 58.8844C232.098 58.8094 232.11 58.7315 232.109 58.6532C231.329 58.4727 230.586 58.1558 229.914 57.7169C229.747 57.7171 229.583 57.7684 229.445 57.8641C229.307 57.9597 229.201 58.0952 229.141 58.2527C229.05 58.2186 228.953 58.2014 228.856 58.202C228.634 58.202 228.422 58.2905 228.266 58.4481C228.109 58.6057 228.021 58.8194 228.021 59.0423C228.016 59.0929 228.016 59.144 228.021 59.1946C227.809 59.2062 227.61 59.2992 227.464 59.4545C227.318 59.6098 227.237 59.8155 227.237 60.0293C227.236 60.1354 227.255 60.2408 227.293 60.3395C227.196 60.4177 227.116 60.5172 227.062 60.6305C227.008 60.7438 226.98 60.868 226.98 60.9938C227.024 61.0766 227.045 61.1706 227.038 61.2646C227.031 61.3587 226.997 61.4487 226.941 61.5239C225.821 62.2628 223.049 62.0372 222.029 61.2306C220.579 60.1026 220.545 59.2115 220.495 58.7716C219.885 58.9521 219.633 59.736 219.627 60.2775C219.808 60.3078 219.985 60.3608 220.153 60.4354C220.799 60.7967 221.38 61.2637 221.873 61.8172C222.481 62.4408 223.261 62.8653 224.113 63.0354C224.947 63.2142 225.81 63.2007 226.638 62.996C226.946 62.9184 227.243 62.8028 227.523 62.6519L227.708 62.5448H227.775C227.836 62.5537 227.898 62.5537 227.96 62.5448C228.261 62.3823 228.598 62.2973 228.94 62.2973C229.282 62.2973 229.618 62.3823 229.92 62.5448C230.141 62.5448 230.353 62.4562 230.51 62.2986C230.666 62.141 230.754 61.9273 230.754 61.7044C230.755 61.6242 230.743 61.5443 230.721 61.4675C230.846 61.555 230.992 61.6063 231.144 61.616C231.296 61.6257 231.447 61.5933 231.582 61.5225C231.717 61.4516 231.83 61.3449 231.909 61.2139C231.989 61.083 232.031 60.9327 232.031 60.7794C232.031 60.6855 232.016 60.5922 231.986 60.5031C232.17 60.4609 232.335 60.3571 232.453 60.2085C232.571 60.06 232.635 59.8755 232.636 59.6853Z" fill="#FAFAFA"/>
<path d="M230.747 91.805H198.374C197.873 91.8035 197.394 91.6028 197.041 91.2467C196.687 90.8906 196.488 90.408 196.486 89.9043C196.488 89.4007 196.687 88.9181 197.041 88.562C197.394 88.2059 197.873 88.0051 198.374 88.0037H230.747C231.247 88.0051 231.726 88.2059 232.08 88.562C232.434 88.9181 232.633 89.4007 232.634 89.9043C232.633 90.408 232.434 90.8906 232.08 91.2467C231.726 91.6028 231.247 91.8035 230.747 91.805Z" fill="white"/>
<path d="M140 218.637C199.966 218.637 248.579 215.779 248.579 212.253C248.579 208.727 199.966 205.868 140 205.868C80.0341 205.868 31.4219 208.727 31.4219 212.253C31.4219 215.779 80.0341 218.637 140 218.637Z" fill="#F5F5F5"/>
<path d="M109.693 132.92H107.431V203.764H109.693V132.92Z" fill="#0574B2"/>
<path opacity="0.8" d="M109.693 132.92H107.431V203.764H109.693V132.92Z" fill="white"/>
<path d="M105.168 203.77H107.431L107.431 132.926H105.168L105.168 203.77Z" fill="#0574B2"/>
<path opacity="0.7" d="M105.168 203.77H107.431L107.431 132.926H105.168L105.168 203.77Z" fill="white"/>
<path d="M107.43 207.814C108.404 207.814 109.194 207.019 109.194 206.037C109.194 205.056 108.404 204.261 107.43 204.261C106.456 204.261 105.666 205.056 105.666 206.037C105.666 207.019 106.456 207.814 107.43 207.814Z" fill="#263238"/>
<path d="M109.407 203.77H105.453V204.537H109.407V203.77Z" fill="#263238"/>
<path d="M151.581 132.92V127.568H108.164V132.92H151.581Z" fill="#0574B2"/>
<path opacity="0.8" d="M151.581 132.92V127.568H108.164V132.92H151.581Z" fill="white"/>
<path d="M108.164 132.92V127.568H94.9761V132.92H108.164Z" fill="#0574B2"/>
<path opacity="0.7" d="M108.164 132.92V127.568H94.9761V132.92H108.164Z" fill="white"/>
<path d="M100.604 132.92H98.3418V203.764H100.604V132.92Z" fill="#0574B2"/>
<path opacity="0.8" d="M100.604 132.92H98.3418V203.764H100.604V132.92Z" fill="white"/>
<path d="M96.0735 203.77H98.3359L98.3359 132.926H96.0735L96.0735 203.77Z" fill="#0574B2"/>
<path opacity="0.7" d="M96.0735 203.77H98.3359L98.3359 132.926H96.0735L96.0735 203.77Z" fill="white"/>
<path d="M98.3421 207.814C99.3164 207.814 100.106 207.019 100.106 206.037C100.106 205.056 99.3164 204.261 98.3421 204.261C97.3679 204.261 96.5781 205.056 96.5781 206.037C96.5781 207.019 97.3679 207.814 98.3421 207.814Z" fill="#263238"/>
<path d="M100.319 203.77H96.3652V204.537H100.319V203.77Z" fill="#263238"/>
<path d="M150.315 132.92H148.053V203.764H150.315V132.92Z" fill="#0574B2"/>
<path opacity="0.8" d="M150.315 132.92H148.053V203.764H150.315V132.92Z" fill="white"/>
<path d="M145.79 203.77H148.053V132.926H145.79V203.77Z" fill="#0574B2"/>
<path opacity="0.7" d="M145.79 203.77H148.053V132.926H145.79V203.77Z" fill="white"/>
<path d="M149.817 206.037C149.817 206.389 149.714 206.732 149.52 207.024C149.326 207.317 149.05 207.544 148.728 207.679C148.406 207.813 148.051 207.848 147.709 207.78C147.367 207.711 147.052 207.542 146.806 207.294C146.559 207.045 146.391 206.729 146.323 206.384C146.255 206.039 146.29 205.682 146.423 205.358C146.557 205.033 146.783 204.755 147.073 204.56C147.363 204.365 147.704 204.261 148.053 204.261C148.52 204.262 148.968 204.45 149.299 204.783C149.629 205.116 149.816 205.567 149.817 206.037Z" fill="#263238"/>
<path d="M150.03 203.77H146.076V204.537H150.03V203.77Z" fill="#263238"/>
<path d="M141.227 132.92H138.965V203.764H141.227V132.92Z" fill="#0574B2"/>
<path opacity="0.8" d="M141.227 132.92H138.965V203.764H141.227V132.92Z" fill="white"/>
<path d="M136.702 203.77H138.965V132.926H136.702V203.77Z" fill="#0574B2"/>
<path opacity="0.7" d="M136.702 203.77H138.965V132.926H136.702V203.77Z" fill="white"/>
<path d="M140.729 206.037C140.73 206.39 140.627 206.736 140.433 207.03C140.239 207.324 139.962 207.553 139.639 207.689C139.315 207.824 138.959 207.86 138.615 207.791C138.271 207.723 137.956 207.553 137.708 207.303C137.46 207.054 137.291 206.736 137.223 206.389C137.155 206.043 137.191 205.684 137.325 205.358C137.46 205.033 137.688 204.754 137.979 204.559C138.271 204.363 138.614 204.26 138.965 204.261C139.432 204.262 139.88 204.45 140.21 204.783C140.541 205.116 140.727 205.567 140.729 206.037Z" fill="#263238"/>
<path d="M140.941 203.77H136.987V204.537H140.941V203.77Z" fill="#263238"/>
<path d="M106.636 166.935V163.732H96.5781V166.935H106.636Z" fill="#0574B2"/>
<path opacity="0.7" d="M106.636 166.935V163.732H96.5781V166.935H106.636Z" fill="white"/>
<path d="M149.627 166.924V163.721H108.562V166.924H149.627Z" fill="#0574B2"/>
<path opacity="0.8" d="M149.627 166.924V163.721H108.562V166.924H149.627Z" fill="white"/>
<path d="M124.405 154.617H119.863C119.316 154.617 118.872 155.064 118.872 155.616V162.728C118.872 163.279 119.316 163.726 119.863 163.726H124.405C124.952 163.726 125.396 163.279 125.396 162.728V155.616C125.396 155.064 124.952 154.617 124.405 154.617Z" fill="#0574B2"/>
<path opacity="0.3" d="M124.405 154.617H119.863C119.316 154.617 118.872 155.064 118.872 155.616V162.728C118.872 163.279 119.316 163.726 119.863 163.726H124.405C124.952 163.726 125.396 163.279 125.396 162.728V155.616C125.396 155.064 124.952 154.617 124.405 154.617Z" fill="white"/>
<path d="M125.395 157.223H123.144V161.797H125.395V157.223Z" fill="white"/>
<path d="M122.517 157.223H120.266V161.797H122.517V157.223Z" fill="white"/>
<path d="M124.214 153.382H120.048C119.884 153.382 119.751 153.516 119.751 153.681V154.313C119.751 154.478 119.884 154.612 120.048 154.612H124.214C124.378 154.612 124.511 154.478 124.511 154.313V153.681C124.511 153.516 124.378 153.382 124.214 153.382Z" fill="#0574B2"/>
<path d="M118.378 153.833H113.444C112.851 153.833 112.369 154.318 112.369 154.916V162.643C112.369 163.241 112.851 163.726 113.444 163.726H118.378C118.972 163.726 119.453 163.241 119.453 162.643V154.916C119.453 154.318 118.972 153.833 118.378 153.833Z" fill="#0574B2"/>
<path opacity="0.5" d="M118.378 153.833H113.444C112.851 153.833 112.369 154.318 112.369 154.916V162.643C112.369 163.241 112.851 163.726 113.444 163.726H118.378C118.972 163.726 119.453 163.241 119.453 162.643V154.916C119.453 154.318 118.972 153.833 118.378 153.833Z" fill="white"/>
<path d="M118.709 156.665H114.683V161.634H118.709V156.665Z" fill="white"/>
<path d="M118.178 152.491H113.653C113.474 152.491 113.328 152.638 113.328 152.818V153.501C113.328 153.681 113.474 153.828 113.653 153.828H118.178C118.357 153.828 118.503 153.681 118.503 153.501V152.818C118.503 152.638 118.357 152.491 118.178 152.491Z" fill="#0574B2"/>
<path d="M116.356 118.206H101.236V127.568H116.356V118.206Z" fill="#0574B2"/>
<path opacity="0.2" d="M106.299 127.568H116.356V118.206H106.299V127.568Z" fill="white"/>
<path opacity="0.5" d="M101.236 122.069H116.356V118.2H101.236V122.069Z" fill="white"/>
<path opacity="0.5" d="M101.236 123.699H116.356V122.887H101.236V123.699Z" fill="white"/>
<path d="M115.55 124.556H107.105V126.711H115.55V124.556Z" fill="white"/>
<path d="M135.817 123.913C135.731 123.84 135.677 123.736 135.667 123.623C135.656 123.51 135.69 123.398 135.761 123.31L140.241 117.907C140.314 117.819 140.418 117.764 140.532 117.753C140.645 117.743 140.758 117.777 140.846 117.85C140.931 117.924 140.985 118.028 140.995 118.141C141.006 118.253 140.972 118.366 140.902 118.454L136.422 123.857C136.348 123.945 136.244 124 136.131 124.011C136.017 124.021 135.905 123.986 135.817 123.913Z" fill="#0574B2"/>
<path d="M137.273 123.947C137.185 123.874 137.13 123.768 137.12 123.654C137.11 123.54 137.144 123.426 137.217 123.338L141.697 117.941C141.732 117.897 141.775 117.86 141.825 117.833C141.874 117.807 141.928 117.79 141.984 117.785C142.04 117.78 142.097 117.786 142.15 117.803C142.203 117.82 142.253 117.848 142.296 117.884C142.339 117.92 142.376 117.964 142.402 118.013C142.429 118.063 142.445 118.118 142.45 118.174C142.455 118.23 142.449 118.287 142.432 118.341C142.416 118.395 142.388 118.445 142.352 118.488L137.872 123.891C137.799 123.977 137.695 124.031 137.584 124.042C137.472 124.052 137.36 124.018 137.273 123.947Z" fill="#0574B2"/>
<path d="M138.499 124.257C138.456 124.221 138.419 124.177 138.393 124.127C138.366 124.076 138.35 124.021 138.345 123.965C138.339 123.908 138.345 123.851 138.362 123.796C138.379 123.742 138.407 123.692 138.443 123.648L142.923 118.251C142.959 118.207 143.002 118.17 143.052 118.144C143.101 118.117 143.155 118.1 143.211 118.095C143.267 118.09 143.323 118.096 143.377 118.113C143.43 118.13 143.48 118.158 143.523 118.194C143.61 118.267 143.664 118.371 143.675 118.484C143.685 118.598 143.651 118.71 143.579 118.798L139.099 124.201C139.027 124.288 138.923 124.344 138.811 124.354C138.698 124.365 138.586 124.33 138.499 124.257Z" fill="#0574B2"/>
<path d="M132.982 122.966C130.91 122.966 128.57 122.362 126.503 121.838C125.008 121.448 122.751 120.868 122.432 121.2C122.432 121.2 122.37 121.353 122.583 121.866C122.618 121.935 122.638 122.011 122.643 122.088C122.647 122.165 122.636 122.243 122.609 122.316C122.583 122.389 122.542 122.455 122.488 122.511C122.435 122.567 122.371 122.611 122.3 122.641C122.229 122.671 122.153 122.686 122.076 122.685C121.999 122.684 121.923 122.667 121.852 122.635C121.782 122.603 121.72 122.556 121.668 122.499C121.616 122.441 121.577 122.374 121.553 122.3C121.43 122.001 121.049 121.093 121.586 120.461C122.331 119.593 124.101 120.05 126.783 120.743C128.782 121.262 131.05 121.871 132.982 121.871C134.914 121.871 137.177 121.307 139.182 120.743C141.864 120.05 143.662 119.615 144.378 120.461C144.938 121.093 144.535 122.001 144.406 122.3C144.351 122.44 144.242 122.552 144.104 122.611C143.967 122.67 143.812 122.672 143.673 122.616C143.534 122.56 143.423 122.45 143.364 122.312C143.305 122.173 143.303 122.017 143.359 121.877C143.578 121.364 143.51 121.206 143.51 121.206C143.191 120.879 140.934 121.46 139.445 121.849C137.395 122.362 135.049 122.966 132.982 122.966Z" fill="#0574B2"/>
<path opacity="0.5" d="M132.982 122.966C130.91 122.966 128.57 122.362 126.503 121.838C125.008 121.448 122.751 120.868 122.432 121.2C122.432 121.2 122.37 121.353 122.583 121.866C122.618 121.935 122.638 122.011 122.643 122.088C122.647 122.165 122.636 122.243 122.609 122.316C122.583 122.389 122.542 122.455 122.488 122.511C122.435 122.567 122.371 122.611 122.3 122.641C122.229 122.671 122.153 122.686 122.076 122.685C121.999 122.684 121.923 122.667 121.852 122.635C121.782 122.603 121.72 122.556 121.668 122.499C121.616 122.441 121.577 122.374 121.553 122.3C121.43 122.001 121.049 121.093 121.586 120.461C122.331 119.593 124.101 120.05 126.783 120.743C128.782 121.262 131.05 121.871 132.982 121.871C134.914 121.871 137.177 121.307 139.182 120.743C141.864 120.05 143.662 119.615 144.378 120.461C144.938 121.093 144.535 122.001 144.406 122.3C144.351 122.44 144.242 122.552 144.104 122.611C143.967 122.67 143.812 122.672 143.673 122.616C143.534 122.56 143.423 122.45 143.364 122.312C143.305 122.173 143.303 122.017 143.359 121.877C143.578 121.364 143.51 121.206 143.51 121.206C143.191 120.879 140.934 121.46 139.445 121.849C137.395 122.362 135.049 122.966 132.982 122.966Z" fill="white"/>
<path d="M132.983 122.402C127.859 122.402 120.551 118.454 122.069 122.075C123.586 125.696 127.764 127.568 132.983 127.568C138.202 127.568 142.374 125.707 143.892 122.075C145.409 118.442 138.107 122.402 132.983 122.402Z" fill="#0574B2"/>
<path d="M102.9 78.8441C102.945 79.0938 103.076 79.3195 103.269 79.4815L104.949 80.914C105.109 81.0483 105.302 81.1352 105.508 81.1651C105.714 81.195 105.924 81.1666 106.114 81.0832L107.794 80.3218C109.437 79.5833 110.9 78.4941 112.084 77.1296L112.481 76.6784C112.641 76.4938 112.763 76.279 112.839 76.0465C112.916 75.8141 112.945 75.5686 112.926 75.3245C112.908 75.0804 112.841 74.8425 112.73 74.6247C112.619 74.4068 112.466 74.2134 112.28 74.0558L110.555 72.595C110.225 72.3129 109.806 72.158 109.373 72.158C108.941 72.158 108.522 72.3129 108.192 72.595L106.181 74.3321C106.181 74.3321 102.519 76.5599 102.9 78.8441Z" fill="#FFB573"/>
<path d="M101.813 79.7353C101.874 78.8696 102.062 78.0179 102.373 77.2086C103.796 76.9435 107.357 79.9101 107.828 81.1566C107.525 81.8446 105.812 83.2208 105.812 83.2208C104.72 82.0251 102.665 80.5869 101.813 79.7353Z" fill="#E0E0E0"/>
<path d="M87.1916 70.4575C87.6844 72.1495 88.222 73.8415 88.7652 75.5335C89.3084 77.2255 89.8852 78.9175 90.4452 80.6095C91.0052 82.3015 91.6324 83.9146 92.2708 85.4656C92.59 86.2439 92.9204 86.994 93.2508 87.6595C93.4076 87.9923 93.57 88.2799 93.7044 88.5281L93.7884 88.6691L93.8276 88.7368C93.7866 88.6835 93.7351 88.6394 93.6764 88.607L93.3292 88.3194C93.1869 88.2413 93.0341 88.1843 92.8756 88.1502C92.7167 88.1178 92.5529 88.1178 92.394 88.1502C92.226 88.2179 92.5172 88.184 92.898 87.9528C93.9463 87.2584 94.8894 86.4149 95.698 85.4486C96.7023 84.2971 97.6373 83.0861 98.498 81.8221C98.946 81.1792 99.3884 80.5136 99.8084 79.8425L100.436 78.8329L100.996 77.8516L108.13 81.574C107.895 82.0534 107.704 82.4256 107.486 82.843L106.909 84.0894C106.472 84.8828 106.017 85.6705 105.543 86.4526C104.578 88.0596 103.52 89.6076 102.373 91.0886C101.755 91.876 101.095 92.6291 100.396 93.3446C99.608 94.1652 98.7415 94.9057 97.8092 95.5555C96.5705 96.4391 95.1504 97.0308 93.654 97.287C92.6548 97.4382 91.636 97.3961 90.6524 97.1629C89.6691 96.9211 88.74 96.4944 87.914 95.9052H87.886C87.7796 95.8262 87.662 95.7304 87.5612 95.6401C87.3484 95.4427 87.1412 95.234 86.9396 95.0197C86.738 94.8054 86.654 94.687 86.514 94.5121L86.318 94.264L86.1668 94.0553L85.87 93.6266C85.5284 93.1021 85.2316 92.6058 84.9684 92.1377C84.442 91.1958 83.9996 90.299 83.5796 89.4136C82.7396 87.6426 82.0004 85.9055 81.2836 84.1684C80.5668 82.4312 79.8948 80.6998 79.234 78.9626C78.5732 77.2255 77.9404 75.5053 77.3076 73.7062L87.1916 70.4575Z" fill="#0574B2"/>
<path opacity="0.6" d="M87.1916 70.4575C87.6844 72.1495 88.222 73.8415 88.7652 75.5335C89.3084 77.2255 89.8852 78.9175 90.4452 80.6095C91.0052 82.3015 91.6324 83.9146 92.2708 85.4656C92.59 86.2439 92.9204 86.994 93.2508 87.6595C93.4076 87.9923 93.57 88.2799 93.7044 88.5281L93.7884 88.6691L93.8276 88.7368C93.7866 88.6835 93.7351 88.6394 93.6764 88.607L93.3292 88.3194C93.1869 88.2413 93.0341 88.1843 92.8756 88.1502C92.7167 88.1178 92.5529 88.1178 92.394 88.1502C92.226 88.2179 92.5172 88.184 92.898 87.9528C93.9463 87.2584 94.8894 86.4149 95.698 85.4486C96.7023 84.2971 97.6373 83.0861 98.498 81.8221C98.946 81.1792 99.3884 80.5136 99.8084 79.8425L100.436 78.8329L100.996 77.8516L108.13 81.574C107.895 82.0534 107.704 82.4256 107.486 82.843L106.909 84.0894C106.472 84.8828 106.017 85.6705 105.543 86.4526C104.578 88.0596 103.52 89.6076 102.373 91.0886C101.755 91.876 101.095 92.6291 100.396 93.3446C99.608 94.1652 98.7415 94.9057 97.8092 95.5555C96.5705 96.4391 95.1504 97.0308 93.654 97.287C92.6548 97.4382 91.636 97.3961 90.6524 97.1629C89.6691 96.9211 88.74 96.4944 87.914 95.9052H87.886C87.7796 95.8262 87.662 95.7304 87.5612 95.6401C87.3484 95.4427 87.1412 95.234 86.9396 95.0197C86.738 94.8054 86.654 94.687 86.514 94.5121L86.318 94.264L86.1668 94.0553L85.87 93.6266C85.5284 93.1021 85.2316 92.6058 84.9684 92.1377C84.442 91.1958 83.9996 90.299 83.5796 89.4136C82.7396 87.6426 82.0004 85.9055 81.2836 84.1684C80.5668 82.4312 79.8948 80.6998 79.234 78.9626C78.5732 77.2255 77.9404 75.5053 77.3076 73.7062L87.1916 70.4575Z" fill="white"/>
<path d="M76.5199 157.048C69.9231 135.989 64.8271 110.361 64.8271 110.361L84.6567 108.398C84.6567 108.398 85.9559 141.369 87.1935 155.971C88.4815 171.154 93.5216 206.415 93.5216 206.415L87.4903 206.912C87.4903 206.912 77.1303 175.897 76.5199 157.048Z" fill="#0574B2"/>
<path opacity="0.2" d="M72.5587 127.568L69.7979 132.52C71.2091 138.301 72.8611 144.657 74.6643 150.878C74.4123 141.116 73.3987 129.836 72.5587 127.568Z" fill="black"/>
<path d="M101.59 207.825C101.59 207.825 93.0612 207.115 92.2436 205.896L87.6572 206.596L88.4188 211.463L91.2188 211.035L91.5884 210.521L92.3668 210.86C94.6572 210.516 100.716 209.506 102.077 208.767C102.083 208.581 102.041 208.397 101.956 208.232C101.871 208.067 101.745 207.927 101.59 207.825Z" fill="#263238"/>
<path d="M57.237 155.644C57.5954 133.992 56.2122 119.52 58.0546 108.832L76.1762 108.556C76.1762 108.556 71.7298 142.909 69.5122 157.212C67.2946 171.515 64.4722 206.844 64.4722 206.844H58.8722C58.8722 206.844 54.0002 172.389 57.237 155.644Z" fill="#0574B2"/>
<path d="M69.9991 209.861C69.9991 209.861 64.6231 207.882 63.9119 206.556H59.2695L59.6223 211.486H63.4079L63.8167 211.029L64.5727 211.486C66.8855 211.486 69.0079 211.396 70.4303 210.871C70.4473 210.68 70.4167 210.488 70.3414 210.311C70.2662 210.135 70.1485 209.98 69.9991 209.861Z" fill="#263238"/>
<path d="M58.8682 65.6466C65.2746 64.8457 74.4362 64.919 80.5738 65.985C82.1072 66.2673 83.5141 67.0271 84.5961 68.1573C85.6781 69.2875 86.3807 70.7312 86.605 72.2849C87.8986 81.6247 86.7842 97.9469 85.961 114.376C71.961 119.21 57.1378 114.309 57.1378 114.309C56.6282 110.998 57.7762 100.135 58.549 94.3373C57.3898 88.3532 54.937 81.495 53.313 73.5426C53.1155 72.6525 53.1057 71.7306 53.2841 70.8364C53.4625 69.9423 53.8253 69.0958 54.3488 68.3516C54.8724 67.6074 55.5451 66.9822 56.3236 66.5162C57.102 66.0503 57.9689 65.754 58.8682 65.6466Z" fill="white"/>
<path d="M64.585 53.3176L72.5034 59.3411C71.5626 61.8735 71.2602 64.5074 75.3818 65.517C76.4122 66.8875 74.5978 68.461 72.8898 69.1773C70.1402 68.8333 66.2594 67.9139 64.585 65.5903C65.1114 63.7855 65.2906 57.0569 64.585 53.3176Z" fill="#FFB573"/>
<path d="M74.6313 67.6544C74.3268 68.537 73.8068 69.3283 73.1193 69.9555C71.9993 69.9555 70.3809 68.6922 70.3809 68.6922C70.3809 68.6922 71.0081 66.9156 71.8929 66.549C74.1497 67.1073 74.6313 67.6544 74.6313 67.6544Z" fill="#263238"/>
<path d="M72.0938 69.2844C72.245 69.1144 72.4377 68.987 72.6528 68.9148C72.8678 68.8427 73.0978 68.8281 73.3201 68.8727C74.7817 71.625 77.0721 88.5732 77.9681 93.5026C77.5817 96.4918 77.005 97.5183 76.2322 100.936C75.5266 98.2909 74.5186 96.723 73.3986 93.7733C73.7178 90.2483 72.553 73.8133 72.0938 69.2844Z" fill="#263238"/>
<path opacity="0.2" d="M72.5091 59.3411L72.4419 59.2904L68.0179 55.9064C67.5755 55.9064 66.7243 55.8782 67.0883 59.0027C67.3123 60.9937 70.3083 63.1425 72.2795 63.5429C71.6355 62.3473 71.9491 60.847 72.4979 59.375L72.5091 59.3411Z" fill="black"/>
<path d="M77.8396 45.9913C79.43 48.4841 78.3156 52.325 77.0948 53.5545C74.8716 49.4147 75.4036 44.8576 77.8396 45.9913Z" fill="#263238"/>
<path d="M65.2233 48.5574C65.1001 53.2104 64.7921 55.9345 66.9033 58.4951C70.0953 62.3528 75.9697 60.6834 77.4761 56.1432C78.8313 52.0598 78.8033 45.1283 74.4465 42.9286C73.4833 42.4433 72.4136 42.2118 71.3374 42.2556C70.2612 42.2995 69.2137 42.6173 68.2925 43.1795C67.3714 43.7416 66.6067 44.5298 66.07 45.4702C65.5333 46.4107 65.242 47.4728 65.2233 48.5574Z" fill="#FFB573"/>
<path d="M66.3643 52.2234C68.6491 52.0091 69.3043 48.016 67.9379 44.8125C70.8107 44.0736 73.5939 45.2862 75.5147 46.0025C77.4355 46.7188 80.2859 46.826 80.2859 44.429C79.3003 44.993 77.3683 44.1018 77.1667 43.1092C79.2499 43.3799 79.4627 40.0974 78.2867 39.5673C78.2867 41.2593 72.7259 40.2046 69.8027 39.1556C64.2699 37.1646 61.0667 40.3794 62.7523 43.3292C58.4179 45.4724 61.0723 49.646 64.5107 52.9172C65.097 52.608 65.7198 52.375 66.3643 52.2234Z" fill="#263238"/>
<path d="M67.7591 50.3C67.4063 53.4415 76.3271 55.0884 77.8391 54.9587C78.3095 57.6828 80.1631 59.4707 78.2927 61.1627C76.4223 62.8547 69.7695 63.289 67.4175 59.8486C65.0655 56.4082 66.8855 50.5426 66.8855 50.5426L67.7591 50.3Z" fill="#263238"/>
<path d="M74.2275 56.0642C74.466 56.0835 74.7057 56.0835 74.9443 56.0642C74.9634 56.0616 74.9816 56.0545 74.9974 56.0435C75.0133 56.0325 75.0264 56.0179 75.0356 56.0009C75.0449 55.984 75.05 55.965 75.0507 55.9456C75.0514 55.9263 75.0475 55.907 75.0395 55.8894C75.0327 55.8554 75.0132 55.8254 74.9851 55.8055C74.957 55.7855 74.9223 55.7772 74.8883 55.7822C74.3505 55.851 73.8042 55.7975 73.2897 55.6257C72.7751 55.4539 72.3052 55.1682 71.9147 54.7896C71.8907 54.7662 71.8585 54.7531 71.8251 54.7531C71.7916 54.7531 71.7595 54.7662 71.7355 54.7896C71.7122 54.8138 71.6992 54.8461 71.6992 54.8798C71.6992 54.9135 71.7122 54.9459 71.7355 54.9701C72.4063 55.6281 73.2923 56.0171 74.2275 56.0642Z" fill="#FFB573"/>
<path d="M64.1093 43.2558C61.9981 43.6055 61.3093 41.4961 62.0989 39.8718C59.1309 41.2254 61.4717 44.8125 64.1093 43.2558Z" fill="#263238"/>
<path d="M63.0906 51.806C63.2181 52.3194 63.4456 52.8022 63.76 53.2263C64.0743 53.6504 64.4693 54.0073 64.9218 54.2763C66.1426 54.9926 67.1114 53.983 67.0834 52.6407C67.0498 51.4337 66.3834 49.6064 65.0114 49.4428C64.7124 49.4112 64.4102 49.455 64.1321 49.5702C63.854 49.6854 63.6087 49.8684 63.4182 50.1027C63.2278 50.337 63.0981 50.6154 63.0409 50.9127C62.9837 51.21 63.0008 51.517 63.0906 51.806Z" fill="#FFB573"/>
<path d="M72.4026 49.9617C72.369 50.3396 72.5426 50.6611 72.789 50.678C73.0354 50.6949 73.2594 50.4073 73.293 50.035C73.3266 49.6628 73.153 49.3357 72.9066 49.3131C72.6602 49.2905 72.4362 49.5838 72.4026 49.9617Z" fill="#263238"/>
<path d="M76.8381 50.6216C76.8045 50.9995 76.9781 51.3209 77.2245 51.3379C77.4709 51.3548 77.6949 51.0671 77.7285 50.6893C77.7621 50.3114 77.5885 49.9899 77.3421 49.973C77.0957 49.9561 76.8717 50.2494 76.8381 50.6216Z" fill="#263238"/>
<path d="M75.5997 50.9205C75.9435 52.1144 76.4525 53.2536 77.1117 54.3045C76.8398 54.4686 76.5357 54.5712 76.2205 54.6053C75.9053 54.6393 75.5865 54.6041 75.2861 54.5019L75.5997 50.9205Z" fill="#ED893E"/>
<path d="M70.6388 48.5067C70.6008 48.506 70.5638 48.4943 70.5324 48.4728C70.4834 48.4415 70.4485 48.3922 70.4349 48.3354C70.4214 48.2786 70.4302 48.2187 70.4596 48.1683C70.6351 47.8574 70.8815 47.5929 71.1785 47.3968C71.4755 47.2007 71.8145 47.0785 72.1676 47.0403C72.2202 47.0487 72.2681 47.0758 72.3027 47.1167C72.3373 47.1575 72.3563 47.2094 72.3563 47.2631C72.3563 47.3167 72.3373 47.3686 72.3027 47.4095C72.2681 47.4503 72.2202 47.4774 72.1676 47.4858C71.8901 47.5162 71.6237 47.6123 71.3901 47.7662C71.1565 47.9201 70.9624 48.1274 70.8236 48.3713C70.8093 48.4096 70.7842 48.4429 70.7514 48.467C70.7185 48.491 70.6794 48.5049 70.6388 48.5067Z" fill="#263238"/>
<path d="M78.4 49.2399C78.3637 49.2406 78.3278 49.2322 78.2955 49.2155C78.2633 49.1988 78.2356 49.1742 78.2152 49.144C78.0685 48.9073 77.8659 48.7109 77.6256 48.5721C77.3852 48.4334 77.1145 48.3566 76.8376 48.3488C76.8084 48.3495 76.7794 48.3444 76.7523 48.3337C76.7251 48.3229 76.7004 48.3069 76.6795 48.2864C76.6586 48.2659 76.642 48.2414 76.6307 48.2143C76.6194 48.1872 76.6136 48.1582 76.6136 48.1288C76.6121 48.0997 76.6164 48.0706 76.6264 48.0433C76.6365 48.016 76.6519 47.991 76.6718 47.9699C76.6917 47.9488 76.7157 47.932 76.7423 47.9205C76.7688 47.9091 76.7975 47.9032 76.8264 47.9032C77.1759 47.9131 77.5179 48.008 77.8231 48.1799C78.1284 48.3518 78.3878 48.5955 78.5792 48.8902C78.5961 48.9141 78.6081 48.9412 78.6145 48.9699C78.6208 48.9986 78.6214 49.0283 78.6162 49.0572C78.611 49.0861 78.6001 49.1137 78.5841 49.1383C78.5681 49.1629 78.5474 49.184 78.5232 49.2004C78.4875 49.2268 78.4442 49.2407 78.4 49.2399Z" fill="#263238"/>
<path d="M64.7527 64.3495C64.7527 64.3495 62.5127 64.9586 62.5127 64.9642C62.5127 65.5282 63.1343 66.5998 64.7023 67.9816C66.1695 69.2676 69.3447 71.4897 70.7615 71.4897C70.5879 69.7977 71.1031 67.3725 71.8815 66.5491C70.0391 66.645 66.5391 65.5677 64.7527 64.3495Z" fill="#E0E0E0"/>
<path d="M71.8936 66.549C73.4672 67.1694 75.2031 69.5213 75.6847 71.1231C76.5135 70.6775 77.3984 67.4684 76.9112 65.3985C76.1448 64.9799 75.2667 64.816 74.4024 64.9304C74.296 65.6184 73.8032 66.4475 71.8936 66.549Z" fill="#E0E0E0"/>
<path d="M64.809 207.008L58.593 207.182L57.9434 203.629L65.2234 204.069L64.809 207.008Z" fill="#0574B2"/>
<path opacity="0.2" d="M64.809 207.008L58.593 207.182L57.9434 203.629L65.2234 204.069L64.809 207.008Z" fill="black"/>
<path d="M93.7999 206.37L87.1471 207.408L86.0215 204.447L93.3967 202.766L93.7999 206.37Z" fill="#0574B2"/>
<path opacity="0.2" d="M93.7999 206.37L87.1471 207.408L86.0215 204.447L93.3967 202.766L93.7999 206.37Z" fill="black"/>
<path d="M61.387 64.3495C66.987 71.9071 69.2998 116.006 66.1526 154.025C57.943 155.464 49.6494 143.67 49.6494 143.67C49.6494 143.67 55.0982 105.431 53.6702 93.2094C52.2422 80.9875 50.6518 73.8416 51.0438 70.2094C51.4358 66.5773 57.3326 64.9586 61.387 64.3495Z" fill="#0574B2"/>
<path opacity="0.7" d="M61.387 64.3495C66.987 71.9071 69.2998 116.006 66.1526 154.025C57.943 155.464 49.6494 143.67 49.6494 143.67C49.6494 143.67 55.0982 105.431 53.6702 93.2094C52.2422 80.9875 50.6518 73.8416 51.0438 70.2094C51.4358 66.5773 57.3326 64.9586 61.387 64.3495Z" fill="white"/>
<path d="M77.0508 64.9133C80.7468 78.0489 85.3276 124.218 83.6532 151.843C86.7668 149.26 90.334 143.321 90.2556 141.172C90.1828 139.17 88.8276 103.203 88.3124 97.8453C88.0156 89.1258 88.234 75.8944 87.1924 70.8015C86.1508 65.7085 80.8756 64.5749 77.0508 64.9133Z" fill="#0574B2"/>
<path opacity="0.7" d="M77.0508 64.9133C80.7468 78.0489 85.3276 124.218 83.6532 151.843C86.7668 149.26 90.334 143.321 90.2556 141.172C90.1828 139.17 88.8276 103.203 88.3124 97.8453C88.0156 89.1258 88.234 75.8944 87.1924 70.8015C86.1508 65.7085 80.8756 64.5749 77.0508 64.9133Z" fill="white"/>
<path d="M74.6812 107.777L58.7996 107.45C58.6522 107.451 58.5066 107.417 58.3736 107.353C58.2407 107.289 58.1238 107.195 58.0318 107.079C57.9397 106.963 57.8749 106.828 57.842 106.683C57.8092 106.538 57.8092 106.388 57.842 106.243L62.0196 83.6157C62.0926 83.2973 62.2698 83.0129 62.5227 82.8083C62.7756 82.6036 63.0896 82.4907 63.414 82.4877L79.29 82.8317C79.4375 82.8314 79.5831 82.8645 79.716 82.9288C79.849 82.993 79.9658 83.0866 80.0579 83.2026C80.1499 83.3186 80.2148 83.454 80.2476 83.5988C80.2805 83.7435 80.2805 83.8939 80.2476 84.0387L76.0756 106.649C76.0009 106.967 75.8232 107.25 75.5707 107.454C75.3181 107.659 75.0051 107.772 74.6812 107.777Z" fill="#0574B2"/>
<path d="M69.6531 97.4506C69.5317 97.2269 69.4939 96.9668 69.5467 96.7174L69.9611 94.5516C70.0028 94.3466 70.1003 94.1573 70.2427 94.0049C70.3851 93.8525 70.5668 93.7431 70.7675 93.6887L72.5595 93.2262C74.3009 92.7703 76.12 92.701 77.8907 93.0232L78.4507 93.1304C78.6903 93.1736 78.9189 93.2646 79.1231 93.3981C79.3272 93.5315 79.5028 93.7048 79.6395 93.9077C79.7762 94.1105 79.8713 94.3388 79.9191 94.5792C79.9669 94.8196 79.9665 95.0672 79.9179 95.3074L79.4755 97.5296C79.3895 97.9577 79.1555 98.3413 78.815 98.6119C78.4745 98.8825 78.0497 99.0226 77.6163 99.0072L74.9731 98.9114C74.9731 98.9114 70.7675 99.4754 69.6531 97.4506Z" fill="#FFB573"/>
<path d="M70.0005 93.0625C70.8034 92.7469 71.6494 92.5567 72.5093 92.4985C73.3381 93.6886 72.1397 98.1837 71.1933 99.1481C70.4485 99.1481 68.4941 98.1555 68.4941 98.1555C69.1605 96.6552 69.6085 94.1962 70.0005 93.0625Z" fill="#E0E0E0"/>
<path d="M60.6088 73.2719C59.9816 74.8906 59.3544 76.5939 58.7496 78.2633C58.1448 79.9327 57.5624 81.6473 57.008 83.2885C56.4536 84.9298 55.9328 86.6331 55.4904 88.2574C55.272 89.0639 55.0704 89.8648 54.9304 90.5867C54.8576 90.9533 54.8016 91.2804 54.7624 91.5568V91.7203V91.7993V91.8275C54.758 91.7603 54.7448 91.6939 54.7232 91.6301L54.6168 91.1902C54.5806 91.0856 54.5234 90.9896 54.4488 90.9082C54.3928 90.8574 54.3872 90.9082 54.4488 90.9533C54.8028 91.2221 55.2008 91.4263 55.6248 91.5568C57.0511 92.0001 58.5251 92.269 60.0152 92.3577C61.7128 92.4816 63.4159 92.5117 65.1168 92.4479C65.9848 92.4479 66.8584 92.3689 67.732 92.3013L69.0368 92.1885L70.28 92.0587L71.5624 100.045C71.0024 100.146 70.5488 100.22 70.0448 100.293L68.5832 100.502C67.6088 100.632 66.6288 100.744 65.6432 100.835C63.6348 101.023 61.6176 101.101 59.6008 101.066C57.3743 101.047 55.1585 100.752 53.004 100.186C51.6304 99.8174 50.3268 99.2228 49.1456 98.4263C48.3914 97.9024 47.7177 97.2696 47.1464 96.5482C46.5013 95.7253 46.0151 94.7879 45.7128 93.7846V93.7507C45.6731 93.6155 45.6413 93.478 45.6176 93.339C45.5728 93.0514 45.5336 92.775 45.5056 92.4648C45.4776 92.1546 45.5056 92.0249 45.5056 91.7993V91.2353L45.5336 90.7164C45.584 90.0904 45.6512 89.5151 45.7296 88.9849C45.892 87.9133 46.0824 86.932 46.2896 85.9732C46.704 84.0556 47.18 82.2282 47.6728 80.4121C48.1656 78.5961 48.692 76.8138 49.2296 75.0372C49.7672 73.2606 50.316 71.5066 50.9096 69.7018L60.6088 73.2719Z" fill="#0574B2"/>
<path opacity="0.7" d="M60.6088 73.2719C59.9816 74.8906 59.3544 76.5939 58.7496 78.2633C58.1448 79.9327 57.5624 81.6473 57.008 83.2885C56.4536 84.9298 55.9328 86.6331 55.4904 88.2574C55.272 89.0639 55.0704 89.8648 54.9304 90.5867C54.8576 90.9533 54.8016 91.2804 54.7624 91.5568V91.7203V91.7993V91.8275C54.758 91.7603 54.7448 91.6939 54.7232 91.6301L54.6168 91.1902C54.5806 91.0856 54.5234 90.9896 54.4488 90.9082C54.3928 90.8574 54.3872 90.9082 54.4488 90.9533C54.8028 91.2221 55.2008 91.4263 55.6248 91.5568C57.0511 92.0001 58.5251 92.269 60.0152 92.3577C61.7128 92.4816 63.4159 92.5117 65.1168 92.4479C65.9848 92.4479 66.8584 92.3689 67.732 92.3013L69.0368 92.1885L70.28 92.0587L71.5624 100.045C71.0024 100.146 70.5488 100.22 70.0448 100.293L68.5832 100.502C67.6088 100.632 66.6288 100.744 65.6432 100.835C63.6348 101.023 61.6176 101.101 59.6008 101.066C57.3743 101.047 55.1585 100.752 53.004 100.186C51.6304 99.8174 50.3268 99.2228 49.1456 98.4263C48.3914 97.9024 47.7177 97.2696 47.1464 96.5482C46.5013 95.7253 46.0151 94.7879 45.7128 93.7846V93.7507C45.6731 93.6155 45.6413 93.478 45.6176 93.339C45.5728 93.0514 45.5336 92.775 45.5056 92.4648C45.4776 92.1546 45.5056 92.0249 45.5056 91.7993V91.2353L45.5336 90.7164C45.584 90.0904 45.6512 89.5151 45.7296 88.9849C45.892 87.9133 46.0824 86.932 46.2896 85.9732C46.704 84.0556 47.18 82.2282 47.6728 80.4121C48.1656 78.5961 48.692 76.8138 49.2296 75.0372C49.7672 73.2606 50.316 71.5066 50.9096 69.7018L60.6088 73.2719Z" fill="white"/>
<path d="M181.083 200.804C172.327 205.55 162.539 208.035 152.596 208.034H150.641C150.086 208.034 149.553 208.256 149.16 208.652C148.768 209.048 148.547 209.584 148.547 210.144C148.547 210.703 148.768 211.24 149.16 211.635C149.553 212.031 150.086 212.253 150.641 212.253H213.468C213.866 212.253 214.259 212.174 214.627 212.021C214.995 211.867 215.329 211.643 215.61 211.359C215.891 211.076 216.114 210.74 216.267 210.369C216.419 209.999 216.497 209.602 216.497 209.202V203.494C216.497 203.093 216.419 202.697 216.267 202.326C216.114 201.956 215.891 201.62 215.61 201.336C215.329 201.053 214.995 200.828 214.627 200.675C214.259 200.522 213.866 200.443 213.468 200.443H182.522C182.02 200.443 181.526 200.566 181.083 200.804Z" fill="#263238"/>
<path d="M203.841 203.494H191.045C190.244 203.493 189.462 203.254 188.796 202.806C188.131 202.359 187.611 201.723 187.304 200.978L180.45 184.357C180.196 183.738 180.098 183.064 180.163 182.397C180.229 181.73 180.457 181.09 180.827 180.532C181.196 179.975 181.697 179.518 182.283 179.201C182.87 178.885 183.525 178.719 184.191 178.717H196.975C197.777 178.717 198.56 178.956 199.226 179.404C199.893 179.852 200.413 180.488 200.722 181.233L207.571 197.859C207.824 198.478 207.923 199.15 207.858 199.816C207.793 200.482 207.566 201.121 207.197 201.678C206.829 202.235 206.33 202.692 205.744 203.008C205.159 203.325 204.505 203.492 203.841 203.494Z" fill="#E0E0E0"/>
<path opacity="0.2" d="M202.256 202.93H190.961C190.458 202.931 189.965 202.782 189.547 202.501C189.128 202.22 188.801 201.819 188.609 201.351L181.262 183.528C181.102 183.139 181.04 182.715 181.081 182.295C181.122 181.876 181.265 181.473 181.497 181.122C181.73 180.771 182.045 180.484 182.414 180.284C182.783 180.085 183.195 179.981 183.614 179.981H194.887C195.391 179.98 195.883 180.131 196.302 180.413C196.721 180.695 197.047 181.096 197.239 181.566L204.586 199.382C204.745 199.77 204.808 200.192 204.768 200.61C204.728 201.028 204.587 201.429 204.357 201.779C204.127 202.13 203.815 202.418 203.449 202.618C203.083 202.819 202.673 202.926 202.256 202.93Z" fill="black"/>
<path d="M200.392 169.722H178.126C175.949 169.722 174.184 171.499 174.184 173.692V176.901C174.184 179.094 175.949 180.872 178.126 180.872H200.392C202.569 180.872 204.334 179.094 204.334 176.901V173.692C204.334 171.499 202.569 169.722 200.392 169.722Z" fill="#263238"/>
<path d="M172.089 144.043H215.013V163.14C215.014 164.387 214.772 165.622 214.299 166.775C213.826 167.927 213.131 168.975 212.256 169.857C211.381 170.739 210.341 171.439 209.197 171.916C208.053 172.393 206.826 172.638 205.588 172.638H172.089V144.043Z" fill="#E0E0E0"/>
<path opacity="0.2" d="M172.969 148.019H207.202V163.247C207.202 165.254 206.41 167.179 205 168.599C203.591 170.018 201.68 170.816 199.686 170.816H172.969V148.019Z" fill="black"/>
<path opacity="0.6" d="M177.056 211.836H150.921C150.485 211.828 150.069 211.651 149.76 211.34C149.452 211.03 149.276 210.611 149.269 210.172C149.276 209.733 149.452 209.314 149.76 209.003C150.069 208.693 150.485 208.515 150.921 208.508H177.056C177.492 208.515 177.908 208.693 178.216 209.003C178.524 209.314 178.701 209.733 178.708 210.172C178.701 210.611 178.524 211.03 178.216 211.34C177.908 211.651 177.492 211.828 177.056 211.836Z" fill="black"/>
<path d="M142.947 147.258C142.948 147.489 142.881 147.715 142.755 147.908C142.628 148.1 142.447 148.251 142.236 148.34C142.024 148.429 141.791 148.453 141.565 148.409C141.34 148.365 141.133 148.254 140.97 148.091C140.808 147.928 140.697 147.72 140.652 147.493C140.606 147.266 140.629 147.031 140.717 146.818C140.804 146.604 140.953 146.421 141.144 146.293C141.334 146.164 141.559 146.096 141.788 146.096C141.94 146.095 142.091 146.124 142.231 146.183C142.372 146.241 142.5 146.326 142.607 146.434C142.715 146.542 142.801 146.67 142.859 146.812C142.917 146.953 142.947 147.105 142.947 147.258Z" fill="#263238"/>
<path d="M157.719 183.286C159.043 183.286 160.116 182.205 160.116 180.872C160.116 179.539 159.043 178.458 157.719 178.458C156.395 178.458 155.322 179.539 155.322 180.872C155.322 182.205 156.395 183.286 157.719 183.286Z" fill="#263238"/>
<path d="M162.351 197.177C162.234 197.205 162.112 197.188 162.008 197.128C161.904 197.068 161.826 196.971 161.791 196.856L147.757 147.421C147.729 147.304 147.747 147.18 147.806 147.075C147.865 146.97 147.962 146.892 148.076 146.857C148.193 146.829 148.316 146.846 148.42 146.906C148.524 146.966 148.601 147.063 148.636 147.178L162.676 196.613C162.705 196.731 162.687 196.856 162.627 196.961C162.566 197.067 162.467 197.144 162.351 197.177Z" fill="#E0E0E0"/>
<path d="M141.597 147.257C141.598 147.132 141.648 147.012 141.736 146.924C141.824 146.835 141.943 146.785 142.067 146.784H148.182C148.307 146.785 148.425 146.835 148.513 146.924C148.601 147.012 148.651 147.132 148.653 147.257C148.653 147.384 148.603 147.505 148.515 147.594C148.427 147.684 148.308 147.735 148.182 147.737H142.067C141.942 147.735 141.822 147.684 141.734 147.594C141.646 147.505 141.597 147.384 141.597 147.257Z" fill="#E0E0E0"/>
<path d="M141.765 150.867H141.821C142.066 150.867 142.264 150.668 142.264 150.422V145.092C142.264 144.846 142.066 144.646 141.821 144.646H141.765C141.521 144.646 141.323 144.846 141.323 145.092V150.422C141.323 150.668 141.521 150.867 141.765 150.867Z" fill="#E0E0E0"/>
<path d="M131.909 146.942C131.375 146.744 130.88 146.452 130.447 146.079C130.296 145.938 130.186 145.758 130.129 145.559C130.072 145.359 130.072 145.148 130.127 144.948C130.182 144.748 130.29 144.567 130.441 144.425C130.591 144.283 130.778 144.186 130.979 144.144C134.339 143.417 141.457 141.775 144.453 140.625C143.479 143.293 137.251 146.648 135.224 147.049C134.129 147.307 132.985 147.27 131.909 146.942Z" fill="black"/>
<path d="M131.909 146.942C134.3 147.618 136.652 145.628 136.686 142.886C136.692 142.58 136.788 142.282 136.961 142.031C137.134 141.779 137.378 141.584 137.66 141.471C140.096 140.484 145.304 138.978 147.83 138.267C148.018 138.214 148.216 138.205 148.408 138.24C148.601 138.276 148.782 138.355 148.94 138.472C149.097 138.589 149.225 138.74 149.316 138.915C149.406 139.09 149.455 139.283 149.46 139.48C149.488 141.172 149.012 143.631 146.1 144.449C136.552 147.133 134.054 147.765 131.909 146.942Z" fill="#263238"/>
<path d="M256.783 117.439L256.223 117.354C256.313 116.651 256.254 115.937 256.05 115.259C255.845 114.581 255.5 113.954 255.036 113.421C254.573 112.887 254.002 112.459 253.362 112.165C252.722 111.871 252.026 111.717 251.323 111.714H241.803V111.15H251.323C252.11 111.153 252.887 111.326 253.602 111.656C254.318 111.986 254.955 112.466 255.471 113.064C255.987 113.662 256.371 114.364 256.596 115.123C256.822 115.883 256.883 116.682 256.777 117.467L256.783 117.439Z" fill="#0574B2"/>
<path d="M253.379 122.295L252.992 121.883L255.07 119.903L255.49 120.27L255.439 120.332L253.379 122.295Z" fill="#0574B2"/>
<path d="M192.961 157.094H150.894C146.901 157.094 145.91 151.504 149.656 150.111L165.65 144.167C173.573 141.222 180.917 136.892 187.344 131.375L205.651 115.673C207.654 113.956 210.199 113.012 212.83 113.011H251.33C252.024 113.011 252.704 113.211 253.289 113.589C253.873 113.967 254.338 114.505 254.627 115.141C254.916 115.777 255.017 116.483 254.919 117.175C254.821 117.868 254.528 118.517 254.074 119.046L238.612 133.71C233.965 137.698 228.874 141.129 223.442 143.935L204.1 153.93C199.323 156.4 198.337 157.094 192.961 157.094Z" fill="#0574B2"/>
<path opacity="0.2" d="M231.175 137.98C231.124 137.98 231.074 137.967 231.031 137.941C230.987 137.915 230.952 137.878 230.928 137.833L230.368 136.778C229.818 135.777 229.011 134.943 228.032 134.362C227.053 133.781 225.938 133.474 224.802 133.473H187.131C187.056 133.473 186.985 133.444 186.933 133.391C186.88 133.338 186.851 133.266 186.851 133.191C186.851 133.117 186.88 133.045 186.933 132.992C186.985 132.939 187.056 132.909 187.131 132.909H224.785C226.021 132.908 227.236 133.242 228.3 133.875C229.365 134.508 230.242 135.417 230.839 136.508L231.399 137.562C231.433 137.628 231.44 137.705 231.42 137.777C231.399 137.848 231.351 137.909 231.287 137.946C231.252 137.964 231.214 137.976 231.175 137.98Z" fill="black"/>
<path opacity="0.2" d="M190.748 150.715H150.753C147.225 151.843 148.16 156.485 151.918 156.485H190.748C192.781 156.485 194.315 154.86 193.957 153.101C193.774 152.393 193.356 151.77 192.772 151.336C192.188 150.901 191.473 150.682 190.748 150.715Z" fill="black"/>
<path d="M164.406 182.632H125.313C124.372 182.632 123.454 182.345 122.679 181.808C121.904 181.271 121.31 180.51 120.974 179.625C120.638 178.74 120.577 177.774 120.799 176.853C121.021 175.933 121.515 175.102 122.216 174.471L142.079 156.575C144.202 154.659 146.952 153.601 149.802 153.603H188.895C189.836 153.602 190.754 153.889 191.529 154.426C192.304 154.963 192.899 155.724 193.234 156.609C193.57 157.494 193.631 158.46 193.409 159.381C193.187 160.301 192.693 161.132 191.992 161.764L172.129 179.659C170.007 181.575 167.256 182.634 164.406 182.632Z" fill="#0574B2"/>
<path opacity="0.2" d="M160.779 181.938H124.939C124.089 181.935 123.275 181.593 122.674 180.988C122.072 180.383 121.733 179.562 121.73 178.706C121.733 177.85 122.072 177.03 122.674 176.424C123.275 175.819 124.089 175.477 124.939 175.474H160.779C161.63 175.476 162.446 175.817 163.049 176.422C163.651 177.028 163.991 177.849 163.994 178.706C163.991 179.563 163.651 180.384 163.049 180.99C162.446 181.596 161.63 181.936 160.779 181.938Z" fill="black"/>
<path d="M193.992 87.7386L192.284 89.0133C192.811 94.563 198.299 96.4581 199.783 92.6567C201.043 89.487 197.789 87.795 193.992 87.7386Z" fill="#263238"/>
<path d="M195.554 87.7893C195.431 89.4249 194.54 91.6019 191.847 90.7334C191.754 90.7019 191.671 90.648 191.604 90.5765C191.538 90.505 191.489 90.418 191.464 90.3232C191.439 90.2284 191.437 90.1288 191.458 90.0331C191.48 89.9374 191.525 89.8486 191.589 89.7746C192.465 88.7683 193.496 87.9095 194.641 87.2309C194.735 87.1723 194.843 87.1411 194.954 87.1406C195.065 87.1402 195.173 87.1705 195.268 87.2283C195.362 87.2861 195.439 87.3691 195.489 87.4681C195.54 87.5671 195.562 87.6783 195.554 87.7893Z" fill="#0574B2"/>
<path d="M180.741 72.1383C181.038 69.8823 189.326 68.3088 193.061 75.3701C195.122 79.2504 195.239 83.4804 195.021 86.165C194.953 87.004 194.646 87.8055 194.138 88.4736C193.629 89.1418 192.94 89.6482 192.154 89.9325C189.203 91.0154 184.314 92.3577 181.844 90.615C176.916 87.1689 180.741 72.1383 180.741 72.1383Z" fill="#263238"/>
<path d="M180.741 72.1383C172.525 78.128 173.298 86.4019 178.299 88.6861C185.008 84.8001 180.741 72.1383 180.741 72.1383Z" fill="#263238"/>
<path d="M150.91 110.648L149.633 107.214L145.635 111.607C145.635 111.607 147.914 113.953 150.294 114.354L150.641 113.79C150.917 113.32 151.085 112.794 151.131 112.25C151.178 111.706 151.102 111.159 150.91 110.648Z" fill="#7F3E3B"/>
<path d="M145.691 107.304L144.616 108.883C144.389 109.212 144.294 109.615 144.35 110.012C144.406 110.408 144.609 110.769 144.918 111.02L145.635 111.613L149.633 107.213L147.393 106.649C147.077 106.57 146.745 106.591 146.44 106.708C146.136 106.825 145.875 107.033 145.691 107.304Z" fill="#7F3E3B"/>
<path d="M176.89 103.649C176.733 104.094 176.604 104.427 176.458 104.777C176.313 105.127 176.162 105.499 176.005 105.848C175.697 106.559 175.372 107.253 175.03 107.941C174.353 109.323 173.605 110.669 172.79 111.973C171.963 113.288 171.064 114.555 170.097 115.769C169.116 117.006 168.049 118.171 166.905 119.255L166.014 120.056L165.796 120.253L165.74 120.304L165.639 120.388L165.337 120.625C164.945 120.891 164.517 121.096 164.066 121.234C163.388 121.431 162.678 121.491 161.977 121.409C161.457 121.356 160.943 121.252 160.442 121.099C158.858 120.582 157.351 119.849 155.962 118.922C153.442 117.284 151.096 115.388 148.962 113.265C148.694 113 148.531 112.645 148.502 112.267C148.474 111.89 148.583 111.514 148.809 111.212C149.035 110.909 149.363 110.699 149.731 110.621C150.099 110.544 150.483 110.603 150.81 110.789H150.861C153.291 112.177 155.8 113.575 158.247 114.686C159.356 115.217 160.521 115.62 161.719 115.888C161.915 115.924 162.114 115.939 162.313 115.933C162.458 115.933 162.492 115.876 162.363 115.933C162.253 115.954 162.148 115.998 162.055 116.062C162.021 116.081 161.989 116.104 161.96 116.13L161.999 116.085L162.167 115.91L162.839 115.205C164.606 113.224 166.162 111.061 167.482 108.753C168.17 107.591 168.786 106.384 169.397 105.172C169.699 104.563 169.99 103.948 170.259 103.333L170.657 102.408L171.015 101.539L171.071 101.404C171.368 100.629 171.959 100.005 172.713 99.6687C173.467 99.3323 174.323 99.3114 175.092 99.6106C175.861 99.9098 176.481 100.504 176.815 101.264C177.149 102.023 177.17 102.885 176.873 103.66L176.89 103.649Z" fill="#7F3E3B"/>
<path d="M174.273 98.0372C168.964 101.196 168.387 106.881 165.974 109.114C168.572 115.318 172.884 115.363 172.884 115.363C172.884 115.363 180.164 94.5404 174.273 98.0372Z" fill="#0574B2"/>
<path opacity="0.3" d="M174.273 98.0372C168.964 101.196 168.387 106.881 165.974 109.114C168.572 115.318 172.884 115.363 172.884 115.363C172.884 115.363 180.164 94.5404 174.273 98.0372Z" fill="white"/>
<path d="M195.049 125.498C195.721 118.127 195.953 110.721 195.744 103.322C195.615 100.265 194.271 97.4506 191.264 97.1179C190.457 97.0389 189.584 96.9712 188.727 96.9261C185.67 96.7087 182.601 96.7087 179.543 96.9261C178.546 97.022 177.521 97.1461 176.547 97.2871C174.839 97.528 173.282 98.4009 172.178 99.7355C171.074 101.07 170.504 102.771 170.577 104.506C170.667 106.508 167.525 111.145 171.401 113.829C171.731 116.723 171.294 121.663 171.434 126.694C168.813 131.234 160.044 134.731 159.282 139.136C158.207 145.385 164.91 147.737 171.283 148.16C190.805 149.547 200.571 146.84 195.049 125.498Z" fill="#0574B2"/>
<path opacity="0.4" d="M195.049 125.498C195.721 118.127 195.953 110.721 195.744 103.322C195.615 100.265 194.271 97.4506 191.264 97.1179C190.457 97.0389 189.584 96.9712 188.727 96.9261C185.67 96.7087 182.601 96.7087 179.543 96.9261C178.546 97.022 177.521 97.1461 176.547 97.2871C174.839 97.528 173.282 98.4009 172.178 99.7355C171.074 101.07 170.504 102.771 170.577 104.506C170.667 106.508 167.525 111.145 171.401 113.829C171.731 116.723 171.294 121.663 171.434 126.694C168.813 131.234 160.044 134.731 159.282 139.136C158.207 145.385 164.91 147.737 171.283 148.16C190.805 149.547 200.571 146.84 195.049 125.498Z" fill="white"/>
<path opacity="0.6" d="M174.784 136.101C172.437 136.615 166.468 134.765 162.979 135.498C162.137 135.656 161.354 136.044 160.715 136.618C160.076 137.193 159.606 137.933 159.356 138.758C159.317 138.889 159.287 139.023 159.266 139.158C158.185 145.408 164.866 147.759 171.261 148.182C176.861 148.566 181.437 148.746 185.093 148.29C186 148.188 186.849 147.79 187.511 147.158C188.173 146.526 188.612 145.694 188.761 144.787C189.484 139.925 181.476 134.641 174.784 136.101Z" fill="#0574B2"/>
<path opacity="0.3" d="M179.118 115.544C181.918 118.228 187.395 123.034 189.271 123.801C185.093 123.208 180.457 117.755 179.118 115.544Z" fill="#0574B2"/>
<path opacity="0.3" d="M174.452 110.502C177.359 115.549 182.135 123.039 184.073 125.002C178.999 121.438 174.979 113.13 174.452 110.502Z" fill="#0574B2"/>
<path d="M173.439 139.655C170.426 135.227 163.594 135.047 161.388 137.139C157.708 140.614 150.647 146.829 146.458 151.668C141.211 157.731 134.228 176.552 131.797 182.936C130.75 185.835 125.94 188.757 121.46 188.226C119.466 187.99 120.827 190.482 122.249 190.838C125.811 191.785 125.609 190.516 127.67 190.939C129.406 191.3 129.283 191.746 131.344 192.248C132.503 192.53 133.152 191.379 133.376 189.992C133.6 188.604 134.11 187.584 137.039 183.111C142.894 175.718 148.047 167.787 152.428 159.423C164.535 153.332 166.988 151.409 171.4 147.461C173.685 145.396 175.354 142.464 173.439 139.655Z" fill="#7F3E3B"/>
<path opacity="0.2" d="M173.439 139.655C173.117 139.183 172.753 138.741 172.353 138.335C171.085 138.893 169.916 139.655 168.892 140.591C165.179 144.031 158.213 150.461 155.911 152.813C154.191 154.497 153.128 156.746 152.915 159.152C164.602 153.253 167.072 151.33 171.395 147.427C173.685 145.402 175.354 142.464 173.439 139.655Z" fill="black"/>
<path d="M187.802 86.5316C187.242 89.5095 186.643 94.9634 188.71 96.9487C184.888 97.8797 181.386 99.8276 178.568 102.589C176.49 98.7027 179.526 96.9487 179.526 96.9487C182.818 96.1591 182.734 93.6944 182.158 91.382L187.802 86.5316Z" fill="#7F3E3B"/>
<path opacity="0.2" d="M185.502 88.5112L182.142 91.382C182.285 91.9194 182.381 92.4687 182.427 93.0232C183.682 92.8371 185.412 91.444 185.546 90.1186C185.628 89.5845 185.613 89.0399 185.502 88.5112Z" fill="black"/>
<path d="M190.916 81.072C189.763 85.9112 189.376 87.9867 186.531 90.0678C182.242 93.2037 176.709 90.7277 176.451 85.6404C176.205 81.0608 178.131 73.9149 183.138 72.7982C188.144 71.6814 192.081 76.2273 190.916 81.072Z" fill="#7F3E3B"/>
<path d="M181.402 72.6347C183.833 77.1467 188.016 78.0942 188.094 81.2244C188.173 84.3546 193.37 85.6011 192.798 81.4218C192.227 77.2426 188.867 69.2281 181.402 72.6347Z" fill="#263238"/>
<path d="M182.001 72.4486C181.659 76.1766 184.325 76.1992 185.019 75.9454C182.029 77.1129 180.153 75.3363 180.539 73.3059C180.71 73.068 180.928 72.8688 181.18 72.7211C181.432 72.5735 181.711 72.4806 182.001 72.4486Z" fill="#263238"/>
<path d="M183.412 81.1228C183.339 81.5232 183.07 81.8108 182.813 81.7601C182.555 81.7093 182.404 81.354 182.471 80.9592C182.538 80.5644 182.807 80.2711 183.07 80.3219C183.333 80.3726 183.479 80.7054 183.412 81.1228Z" fill="#263238"/>
<path d="M178.53 80.3276C178.463 80.7224 178.194 81.0101 177.937 80.9649C177.679 80.9198 177.528 80.5589 177.595 80.1584C177.662 79.758 177.931 79.476 178.194 79.5211C178.457 79.5662 178.603 79.9272 178.53 80.3276Z" fill="#263238"/>
<path d="M178.299 79.5774L177.397 79.1318C177.397 79.1318 177.756 79.9553 178.299 79.5774Z" fill="#263238"/>
<path d="M179.762 81.2242C179.254 82.0732 178.632 82.8475 177.914 83.5254C178.091 83.706 178.305 83.8459 178.541 83.9355C178.777 84.025 179.029 84.0621 179.28 84.0442L179.762 81.2242Z" fill="#630F0F"/>
<path d="M181.295 85.9111C181.07 85.9118 180.845 85.891 180.623 85.8491C180.608 85.8471 180.593 85.8419 180.58 85.8339C180.566 85.8258 180.555 85.8151 180.546 85.8024C180.537 85.7897 180.531 85.7752 180.528 85.76C180.525 85.7447 180.525 85.729 180.528 85.7137C180.53 85.6983 180.535 85.6834 180.543 85.67C180.551 85.6567 180.562 85.6451 180.574 85.6361C180.587 85.6271 180.601 85.6208 180.616 85.6177C180.631 85.6145 180.647 85.6146 180.662 85.6178C181.153 85.7171 181.659 85.6983 182.141 85.5631C182.623 85.4278 183.066 85.1799 183.434 84.8395C183.445 84.8283 183.458 84.8193 183.473 84.8132C183.487 84.8071 183.503 84.804 183.518 84.804C183.534 84.804 183.549 84.8071 183.564 84.8132C183.578 84.8193 183.591 84.8283 183.602 84.8395C183.623 84.8615 183.635 84.8908 183.635 84.9213C183.635 84.9517 183.623 84.981 183.602 85.0031C182.98 85.5977 182.152 85.9236 181.295 85.9111Z" fill="#263238"/>
<path d="M191.521 84.8904C191.253 85.254 190.911 85.5561 190.518 85.7768C190.125 85.9975 189.69 86.1317 189.242 86.1707C188.122 86.2327 187.836 84.9299 188.408 83.7962C188.917 82.781 190.127 81.5402 191.146 81.9971C192.165 82.4539 192.227 83.9429 191.521 84.8904Z" fill="#7F3E3B"/>
<path d="M185.664 79.662C185.602 79.644 185.548 79.6039 185.513 79.5492C185.371 79.2873 185.17 79.0628 184.926 78.8942C184.681 78.7256 184.401 78.6176 184.107 78.5792C184.076 78.5777 184.046 78.5701 184.018 78.5569C183.99 78.5436 183.965 78.5249 183.944 78.5019C183.923 78.4788 183.907 78.4519 183.897 78.4225C183.886 78.3932 183.882 78.3621 183.883 78.331C183.887 78.2676 183.916 78.2085 183.963 78.1664C184.01 78.1242 184.072 78.1023 184.135 78.1054C184.508 78.1462 184.865 78.2774 185.176 78.4876C185.487 78.6978 185.743 78.9808 185.921 79.3124C185.937 79.3389 185.948 79.3684 185.952 79.3991C185.957 79.4298 185.955 79.461 185.947 79.491C185.939 79.521 185.926 79.5491 185.907 79.5737C185.888 79.5982 185.864 79.6187 185.838 79.6338C185.785 79.6649 185.723 79.675 185.664 79.662Z" fill="#263238"/>
<path d="M177.206 77.9645C177.146 77.9595 177.09 77.9312 177.05 77.8855C177.007 77.8396 176.983 77.7791 176.983 77.7163C176.983 77.6535 177.007 77.5931 177.05 77.5471C177.328 77.2929 177.663 77.1091 178.026 77.0111C178.39 76.913 178.771 76.9034 179.138 76.9831C179.168 76.9921 179.196 77.0071 179.22 77.027C179.244 77.047 179.264 77.0716 179.279 77.0995C179.294 77.1273 179.303 77.1578 179.305 77.1891C179.308 77.2205 179.305 77.2521 179.295 77.2821C179.287 77.312 179.273 77.34 179.253 77.3642C179.234 77.3885 179.21 77.4086 179.183 77.4234C179.156 77.4381 179.126 77.4472 179.095 77.45C179.064 77.4529 179.033 77.4495 179.004 77.44C178.714 77.3797 178.413 77.3891 178.127 77.4675C177.841 77.5459 177.578 77.691 177.358 77.8912C177.318 77.9344 177.264 77.9607 177.206 77.9645Z" fill="#263238"/>
<path d="M183.178 80.3614L182.276 79.9159C182.276 79.9159 182.635 80.7506 183.178 80.3614Z" fill="#263238"/>
<path d="M187.137 128.544L183.536 128.036L185.451 133.676C185.451 133.676 188.587 132.78 190.077 130.856L189.735 130.292C189.459 129.824 189.083 129.424 188.633 129.122C188.183 128.819 187.672 128.622 187.137 128.544Z" fill="#7F3E3B"/>
<path d="M181.727 131.567L182.584 133.259C182.764 133.616 183.07 133.892 183.443 134.032C183.815 134.172 184.226 134.166 184.594 134.015L185.451 133.66L183.536 128.02L181.968 129.757C181.749 129.997 181.608 130.3 181.565 130.624C181.522 130.947 181.578 131.277 181.727 131.567Z" fill="#7F3E3B"/>
<path d="M194.982 100.288C195.699 101.636 196.265 102.916 196.847 104.236C197.429 105.555 197.928 106.915 198.404 108.296C199.413 111.129 200.082 114.074 200.397 117.067C200.397 117.467 200.453 117.862 200.465 118.274V118.584C200.476 118.772 200.476 118.96 200.465 119.148C200.439 119.472 200.383 119.793 200.297 120.107C200.034 121.043 199.621 121.931 199.076 122.735C198.212 124.022 197.215 125.213 196.102 126.288C194.042 128.313 191.791 130.132 189.382 131.719C189.069 131.929 188.691 132.018 188.318 131.968C187.945 131.918 187.603 131.734 187.355 131.449C187.107 131.164 186.971 130.798 186.971 130.42C186.971 130.041 187.107 129.675 187.355 129.39L187.389 129.351C189.153 127.314 190.939 125.216 192.49 123.147C193.231 122.168 193.892 121.131 194.467 120.045C194.665 119.674 194.805 119.274 194.881 118.86C194.881 118.815 194.881 118.781 194.881 118.798C194.879 118.811 194.879 118.824 194.881 118.838V118.629C194.853 118.347 194.809 118.065 194.764 117.76C194.289 115.253 193.575 112.797 192.63 110.428C192.165 109.193 191.65 107.969 191.135 106.745C190.62 105.522 190.015 104.286 189.505 103.164L189.472 103.102C189.143 102.365 189.11 101.53 189.378 100.769C189.646 100.008 190.195 99.3805 190.911 99.0171C191.627 98.6537 192.454 98.5824 193.221 98.818C193.987 99.0536 194.634 99.578 195.027 100.282L194.982 100.288Z" fill="#7F3E3B"/>
<path d="M186.084 139.666C183.646 137.545 180.485 136.459 177.268 136.638C174.05 136.817 171.028 138.246 168.836 140.625C165.403 144.347 161.242 148.944 157.076 153.783C150.849 160.98 142.163 186.168 141.575 187.161L144.375 189.157C151.609 180.684 157.867 171.413 163.029 161.521C175.136 155.43 181.766 151.29 186.151 147.342C186.69 146.858 187.12 146.264 187.413 145.599C187.705 144.934 187.854 144.214 187.848 143.487C187.842 142.76 187.682 142.043 187.379 141.383C187.076 140.723 186.636 140.136 186.09 139.66L186.084 139.666Z" fill="#7F3E3B"/>
<path d="M145.354 192.671C145.298 191.272 144.704 189.693 147.633 185.22C147.633 185.22 142.974 183.449 142.391 185.046C141.339 187.944 137.234 193.314 132.726 193.381C130.721 193.41 133.151 195.637 134.624 195.745C138.303 195.953 137.984 195.085 140.067 195.09C141.32 195.018 142.576 195.086 143.814 195.293C144.99 195.513 145.415 194.07 145.354 192.671Z" fill="#7F3E3B"/>
<path d="M191.623 97.1968C195.201 97.6705 197.603 101.709 199.782 108.031C197.942 111.411 195.085 114.116 191.623 115.758C189.769 112.092 187.927 107.174 187.585 104.478C187.243 101.782 187.731 96.6779 191.623 97.1968Z" fill="#0574B2"/>
<path opacity="0.4" d="M191.623 97.1968C195.201 97.6705 197.603 101.709 199.782 108.031C197.942 111.411 195.085 114.116 191.623 115.758C189.769 112.092 187.927 107.174 187.585 104.478C187.243 101.782 187.731 96.6779 191.623 97.1968Z" fill="white"/>
<path d="M194.5 197.583C194.437 197.573 194.377 197.55 194.323 197.516C194.269 197.482 194.223 197.437 194.187 197.384C194.151 197.332 194.125 197.272 194.113 197.209C194.1 197.147 194.1 197.082 194.113 197.019L202.855 146.361C202.865 146.297 202.888 146.237 202.922 146.183C202.955 146.129 203 146.082 203.052 146.045C203.105 146.009 203.164 145.984 203.226 145.971C203.288 145.958 203.353 145.959 203.415 145.972C203.477 145.982 203.537 146.006 203.59 146.04C203.644 146.074 203.69 146.119 203.726 146.172C203.762 146.224 203.787 146.283 203.8 146.346C203.813 146.408 203.813 146.473 203.801 146.536L195.06 197.188C195.05 197.252 195.028 197.313 194.995 197.368C194.961 197.423 194.917 197.47 194.864 197.507C194.812 197.544 194.752 197.57 194.69 197.583C194.627 197.596 194.562 197.596 194.5 197.583Z" fill="#E0E0E0"/>
<path d="M196.757 146.423C196.758 146.298 196.808 146.178 196.896 146.089C196.984 146.001 197.103 145.951 197.227 145.949H203.342C203.467 145.949 203.587 145.999 203.675 146.088C203.763 146.177 203.813 146.297 203.813 146.423C203.814 146.485 203.802 146.547 203.779 146.605C203.755 146.663 203.721 146.715 203.677 146.76C203.633 146.804 203.581 146.839 203.523 146.862C203.466 146.886 203.404 146.897 203.342 146.897H197.227C197.102 146.897 196.983 146.847 196.895 146.758C196.806 146.669 196.757 146.549 196.757 146.423Z" fill="#E0E0E0"/>
<path d="M196.919 150.016H196.975C197.219 150.016 197.417 149.816 197.417 149.57V144.24C197.417 143.994 197.219 143.795 196.975 143.795H196.919C196.674 143.795 196.476 143.994 196.476 144.24V149.57C196.476 149.816 196.674 150.016 196.919 150.016Z" fill="#E0E0E0"/>
<path d="M199.781 180.872C199.782 181.351 199.642 181.82 199.379 182.218C199.115 182.617 198.74 182.928 198.301 183.112C197.862 183.296 197.378 183.344 196.912 183.251C196.445 183.158 196.017 182.927 195.68 182.588C195.344 182.25 195.115 181.818 195.022 181.348C194.93 180.878 194.978 180.391 195.161 179.949C195.343 179.507 195.652 179.129 196.048 178.863C196.444 178.598 196.909 178.457 197.385 178.458C198.02 178.458 198.63 178.712 199.079 179.165C199.529 179.618 199.781 180.232 199.781 180.872Z" fill="white"/>
<path d="M198.113 146.423C198.113 146.654 198.045 146.879 197.918 147.071C197.791 147.263 197.61 147.413 197.398 147.501C197.186 147.59 196.953 147.613 196.728 147.568C196.503 147.523 196.297 147.412 196.134 147.248C195.972 147.085 195.862 146.877 195.817 146.651C195.772 146.424 195.795 146.189 195.883 145.976C195.971 145.763 196.119 145.58 196.31 145.452C196.501 145.324 196.725 145.255 196.954 145.255C197.262 145.255 197.556 145.378 197.774 145.597C197.991 145.816 198.113 146.113 198.113 146.423Z" fill="white"/>
<path d="M187.07 146.084C186.786 145.975 186.51 145.843 186.247 145.689C186.011 145.551 185.823 145.345 185.706 145.097C185.59 144.849 185.55 144.571 185.593 144.3C185.636 144.029 185.76 143.778 185.947 143.579C186.135 143.38 186.378 143.242 186.645 143.185C190.156 142.413 196.764 140.867 199.614 139.801C198.645 142.469 192.418 145.825 190.385 146.225C189.287 146.474 188.143 146.426 187.07 146.084Z" fill="black"/>
<path d="M187.069 146.084C189.461 146.767 191.813 144.776 191.852 142.035C191.856 141.728 191.951 141.43 192.123 141.177C192.295 140.924 192.538 140.728 192.821 140.613C195.262 139.632 200.465 138.126 202.99 137.416C203.178 137.361 203.377 137.351 203.569 137.386C203.762 137.421 203.944 137.5 204.102 137.617C204.259 137.734 204.388 137.887 204.478 138.062C204.568 138.237 204.616 138.431 204.62 138.628C204.653 140.32 204.172 142.779 201.26 143.597C191.717 146.282 189.214 146.908 187.069 146.084Z" fill="#263238"/>
<path d="M156.167 37.3795C159.453 23.3554 150.829 9.30327 136.904 5.99327C122.98 2.68327 109.027 11.3688 105.741 25.3929C102.454 39.4171 111.078 53.4692 125.003 56.7792C138.928 60.0892 152.88 51.4036 156.167 37.3795Z" fill="#0574B2"/>
<path d="M108.495 35.3486L97.541 47.108L113.456 47.8751L108.495 35.3486Z" fill="#0574B2"/>
<path d="M153.152 36.6632C156.045 24.3155 148.452 11.9432 136.192 9.02889C123.932 6.11457 111.648 13.7618 108.754 26.1095C105.86 38.4572 113.453 50.8294 125.714 53.7438C137.974 56.6581 150.258 49.0108 153.152 36.6632Z" fill="white"/>
<path d="M115.36 27.2775C116.87 27.7708 118.338 28.3837 119.751 29.1105C121.154 29.8166 122.519 30.5979 123.839 31.4511C124.494 31.8854 125.155 32.3141 125.788 32.7878C126.42 33.2616 127.053 33.741 127.669 34.2373C128.932 35.2619 130.118 36.3778 131.22 37.5762L126.829 37.8751C128.03 35.9213 129.384 34.0673 130.878 32.331C132.342 30.6381 133.901 29.0318 135.548 27.5201C137.197 26.023 138.93 24.6238 140.74 23.3295C142.558 22.0019 144.493 20.8428 146.519 19.8666C145.399 21.8688 144.161 23.7018 142.901 25.5066C141.641 27.3114 140.342 29.0485 139.048 30.7687L135.128 35.8447C133.84 37.5367 132.586 39.1892 131.421 40.853L129.26 43.9325L127.02 41.1519C126.146 40.0578 125.194 38.958 124.22 37.8469L121.235 34.4629C120.232 33.3349 119.219 32.2069 118.228 30.983C117.236 29.7591 116.318 28.5973 115.36 27.2775Z" fill="#0574B2"/>
</svg>
