<svg width="304" height="282" viewBox="0 0 304 282" fill="none" xmlns="http://www.w3.org/2000/svg">
<path d="M152.277 282C235.914 282 303.716 247.29 303.716 204.472C303.716 161.655 235.914 126.944 152.277 126.944C68.6395 126.944 0.837891 161.655 0.837891 204.472C0.837891 247.29 68.6395 282 152.277 282Z" fill="#FAFAFA"/>
<path d="M238.611 254.52C261.399 254.52 279.872 243.109 279.872 229.033C279.872 214.957 261.399 203.546 238.611 203.546C215.824 203.546 197.351 214.957 197.351 229.033C197.351 243.109 215.824 254.52 238.611 254.52Z" fill="#E0E0E0"/>
<path d="M140.666 183.299L114.227 168.04C113.788 167.815 113.302 167.698 112.808 167.698C112.315 167.698 111.829 167.815 111.39 168.04L23.7615 218.64C23.5898 218.697 23.4404 218.807 23.3346 218.954C23.2288 219.101 23.1719 219.278 23.1719 219.459C23.1719 219.64 23.2288 219.816 23.3346 219.963C23.4404 220.11 23.5898 220.22 23.7615 220.277L50.1942 235.543C50.6345 235.763 51.12 235.877 51.6123 235.877C52.1045 235.877 52.59 235.763 53.0303 235.543L60.8409 231.032L132.849 189.568L140.672 184.968C140.849 184.911 141.003 184.799 141.112 184.649C141.221 184.498 141.279 184.317 141.279 184.131C141.278 183.945 141.218 183.765 141.108 183.615C140.998 183.466 140.843 183.355 140.666 183.299Z" fill="#E0E0E0"/>
<path d="M259.518 219.554L255.432 217.384C255.432 217.384 255.831 197.436 259.968 181.986C264.207 166.168 276.541 148.694 288.196 155.242C299.852 161.79 279.136 175.248 272.905 188.236C266.675 201.224 259.518 219.554 259.518 219.554Z" fill="#022C49"/>
<path opacity="0.15" d="M259.518 219.554L255.432 217.384C255.432 217.384 255.831 197.436 259.968 181.986C264.207 166.168 276.541 148.694 288.196 155.242C299.852 161.79 279.136 175.248 272.905 188.236C266.675 201.224 259.518 219.554 259.518 219.554Z" fill="black"/>
<path d="M258.978 214.821C258.924 214.819 258.871 214.807 258.821 214.784C258.772 214.762 258.727 214.73 258.69 214.691C258.653 214.651 258.624 214.605 258.605 214.554C258.586 214.504 258.577 214.45 258.578 214.396C259.454 183.439 272.987 164.538 284.313 157.761C284.407 157.705 284.52 157.688 284.627 157.715C284.733 157.742 284.825 157.81 284.881 157.904C284.937 157.998 284.954 158.111 284.927 158.218C284.9 158.324 284.832 158.416 284.738 158.472C273.59 165.14 260.272 183.794 259.403 214.415C259.402 214.469 259.391 214.523 259.369 214.573C259.347 214.624 259.315 214.669 259.276 214.707C259.236 214.744 259.189 214.774 259.138 214.794C259.087 214.813 259.033 214.822 258.978 214.821Z" fill="white"/>
<path d="M261.364 220.506L257.716 218.634C257.716 218.634 258.166 208.837 265.672 196.072C272.334 184.733 285.836 175.85 291.509 179.017C295.912 181.466 296.927 186.833 292.708 190.406C288.488 193.978 269.01 201.471 261.364 220.506Z" fill="#022C49"/>
<path d="M259.898 217.378C260.533 217.504 260.755 215.937 260.882 215.538C261.123 214.789 261.377 214.053 261.656 213.317C262.202 211.886 262.823 210.484 263.515 209.117C264.847 206.487 266.408 203.98 268.178 201.623C269.833 199.417 271.637 197.327 273.578 195.367C275.329 193.605 277.172 191.936 279.098 190.368C280.709 189.048 282.384 187.798 284.104 186.624C285.373 185.761 286.642 184.936 287.968 184.162C288.66 183.756 289.351 183.356 290.068 182.988L290.271 182.887C290.385 182.831 290.472 182.733 290.513 182.613C290.554 182.494 290.546 182.363 290.49 182.249C290.434 182.136 290.336 182.049 290.217 182.008C290.097 181.967 289.966 181.975 289.852 182.03C289.408 182.246 288.983 182.487 288.583 182.728C287.467 183.363 286.375 183.997 285.303 184.708C283.713 185.736 282.16 186.823 280.646 187.969C278.768 189.39 276.964 190.898 275.234 192.493C273.262 194.299 271.405 196.227 269.676 198.267C267.8 200.466 266.103 202.81 264.6 205.278C263.001 207.89 261.662 210.653 260.603 213.526C260.404 214.08 260.213 214.632 260.032 215.182C259.765 215.731 259.603 216.325 259.556 216.933C259.563 217.03 259.598 217.123 259.655 217.201C259.712 217.279 259.79 217.341 259.879 217.378H259.898Z" fill="white"/>
<path d="M52.8468 202.156C52.8468 202.156 52.9484 189.714 48.0565 179.416C43.1646 169.119 35.5127 162.152 27.7529 160.559C19.9932 158.967 12.8362 165.375 20.5769 171.346C28.3176 177.316 42.5364 184.226 47.0794 203.565L52.8468 202.156Z" fill="#022C49"/>
<path opacity="0.15" d="M52.8468 202.156C52.8468 202.156 52.9484 189.714 48.0565 179.416C43.1646 169.119 35.5127 162.152 27.7529 160.559C19.9932 158.967 12.8362 165.375 20.5769 171.346C28.3176 177.316 42.5364 184.226 47.0794 203.565L52.8468 202.156Z" fill="black"/>
<path d="M49.6108 200.005C49.5299 200.005 49.452 199.975 49.393 199.919C49.334 199.864 49.2984 199.788 49.2936 199.707C48.1008 179.791 31.693 166.841 23.5842 164.633C23.5037 164.61 23.4352 164.557 23.3936 164.485C23.3521 164.412 23.3407 164.326 23.3622 164.246C23.3845 164.164 23.4383 164.093 23.5119 164.051C23.5856 164.008 23.6731 163.996 23.7555 164.017C32.0039 166.27 48.7162 179.435 49.9281 199.669C49.9301 199.752 49.9004 199.833 49.8451 199.896C49.7898 199.958 49.7129 199.997 49.6299 200.005H49.6108Z" fill="white"/>
<path d="M53.8492 219.237C55.421 217.253 56.4757 214.91 56.9187 212.419C57.3617 209.927 57.179 207.364 56.3871 204.961C55.9265 203.509 55.1897 202.161 54.2172 200.989C53.4368 200.069 52.3137 199.593 51.4001 198.825C49.4331 197.195 47.149 195.462 46.4384 192.874C45.8673 190.812 45.9879 188.857 44.8458 186.922C44.1729 185.71 43.1013 184.769 41.813 184.257C40.1316 183.623 38.2789 184.042 36.5023 184.257C33.9644 184.543 32.0609 183.667 29.8656 182.5C27.4482 181.231 24.6248 180.228 22.0043 181.009C21.1521 181.261 20.3624 181.69 19.6865 182.267C19.0106 182.845 18.4635 183.557 18.0806 184.359C17.6978 185.162 17.4878 186.035 17.4642 186.924C17.4405 187.812 17.6039 188.696 17.9436 189.517C18.5273 190.939 19.606 192.093 20.3991 193.413C21.1922 194.733 21.6109 196.243 21.0336 197.683C20.5894 198.749 19.7646 199.587 19.4347 200.672C18.4956 203.527 19.0222 206.065 21.8584 207.537C24.8214 209.053 29.4722 207.911 30.9569 211.635C31.5153 213.05 31.5343 214.618 31.8389 216.109C32.464 219.109 34.2087 221.759 36.7181 223.519C40.1252 225.886 44.7506 225.309 48.2847 223.659C50.4559 222.634 52.3605 221.12 53.8492 219.237Z" fill="#022C49"/>
<path d="M27.1373 201.217C27.2066 201.229 27.2779 201.218 27.3403 201.185C29.8393 200.219 32.5212 199.819 35.1935 200.012C37.8658 200.205 40.4622 200.987 42.7964 202.302C42.8764 202.345 42.97 202.354 43.0568 202.328C43.1436 202.302 43.2165 202.242 43.2596 202.163C43.2818 202.124 43.2961 202.08 43.3014 202.036C43.3068 201.991 43.3031 201.946 43.2907 201.903C43.2783 201.86 43.2573 201.819 43.2291 201.785C43.2009 201.75 43.1659 201.721 43.1263 201.699C40.7012 200.337 38.0045 199.53 35.23 199.335C32.4554 199.139 29.6721 199.561 27.0802 200.57C27.0192 200.603 26.9699 200.655 26.9387 200.717C26.9075 200.779 26.896 200.849 26.9057 200.918C26.9153 200.987 26.9456 201.051 26.9927 201.102C27.0397 201.153 27.1012 201.189 27.169 201.205L27.1373 201.217Z" fill="white"/>
<path d="M49.2935 219.344C49.2104 219.346 49.13 219.315 49.0694 219.258C49.0089 219.201 48.9732 219.123 48.9699 219.04C48.3798 204.701 33.9833 189.536 24.3328 185.412C24.2938 185.396 24.2584 185.373 24.2286 185.343C24.1989 185.313 24.1753 185.278 24.1594 185.239C24.1434 185.2 24.1354 185.158 24.1358 185.116C24.1361 185.074 24.1449 185.032 24.1615 184.993C24.1962 184.915 24.2604 184.854 24.34 184.823C24.4197 184.792 24.5083 184.794 24.5866 184.828C34.3894 189.029 49.0079 204.447 49.6107 219.027C49.6124 219.07 49.6057 219.112 49.591 219.152C49.5763 219.192 49.5539 219.229 49.525 219.26C49.4961 219.291 49.4614 219.316 49.4227 219.334C49.3841 219.352 49.3423 219.362 49.2998 219.363L49.2935 219.344Z" fill="white"/>
<path d="M128.756 14.4499L56.9447 55.8945C56.2336 56.3587 55.6426 56.9849 55.2202 57.7216C54.7978 58.4583 54.556 59.2847 54.5146 60.1329V229.242C54.5146 230.791 55.606 231.419 56.9447 230.638L128.756 189.181C129.462 188.718 130.05 188.095 130.472 187.364C130.894 186.632 131.139 185.811 131.186 184.968V15.8331C131.186 14.2849 130.095 13.6504 128.756 14.4499ZM127.69 172.437C127.69 173.763 126.757 174.607 125.609 175.267L59.8507 213.247C58.7086 213.881 57.7696 213.374 57.7696 212.041V71.4077C57.7698 70.6805 57.9617 69.9663 58.326 69.3369C58.6902 68.7075 59.2139 68.1853 59.8443 67.8228L125.602 29.8362C125.813 29.7136 126.053 29.6488 126.297 29.6482C126.541 29.6476 126.781 29.7113 126.993 29.8328C127.204 29.9544 127.38 30.1295 127.502 30.3406C127.625 30.5517 127.689 30.7913 127.69 31.0354V172.437Z" fill="#455A64"/>
<path d="M127.69 172.437C127.69 173.763 126.757 174.607 125.609 175.267L59.8506 213.247C58.7086 213.882 57.7695 213.374 57.7695 212.042V71.4077C57.7698 70.6805 57.9617 69.9663 58.326 69.3369C58.6902 68.7076 59.2139 68.1853 59.8443 67.8229L125.602 29.8362C125.813 29.7136 126.053 29.6488 126.297 29.6482C126.541 29.6476 126.781 29.7113 126.993 29.8329C127.204 29.9544 127.38 30.1295 127.502 30.3406C127.625 30.5517 127.689 30.7913 127.69 31.0354V172.437Z" fill="#263238"/>
<path d="M59.8506 213.247L125.609 175.279C126.07 175.03 126.497 174.721 126.878 174.359L57.7695 135.44V212.042C57.7695 213.374 58.7086 213.907 59.8506 213.247Z" fill="#37474F"/>
<path d="M122.367 169.969V31.7079L59.8443 67.8228C59.2139 68.1853 58.6902 68.7075 58.326 69.3369C57.9617 69.9662 57.7698 70.6805 57.7695 71.4077V208.894L120.285 172.799C121.434 172.139 122.367 171.295 122.367 169.969Z" fill="#022C49"/>
<path d="M56.6402 230.81C55.9151 231.115 55.1322 231.26 54.3457 231.234C53.5592 231.208 52.7877 231.011 52.0846 230.657L49.3056 229.052C48.5964 228.593 48.006 227.972 47.5825 227.241C47.1591 226.51 46.9146 225.689 46.8691 224.846V55.6916C46.8851 55.0647 47.0276 54.4475 47.2879 53.8769C47.3767 53.6802 47.4719 53.4899 47.5798 53.2932L55.1936 57.7346C55.0336 58.0206 54.8936 58.3174 54.7748 58.6229C54.59 59.1033 54.4891 59.612 54.4766 60.1266V229.242C54.5147 230.67 55.441 231.317 56.6402 230.81Z" fill="#263238"/>
<path d="M94.9949 196.738C96.5494 196.738 96.7144 198.483 96.7144 199.231C96.6215 200.731 96.1817 202.189 95.4298 203.491C94.6778 204.792 93.6341 205.901 92.3808 206.731C91.8779 207.05 91.3008 207.234 90.7058 207.264C89.1513 207.264 88.9863 205.519 88.9863 204.77C89.08 203.27 89.5193 201.812 90.27 200.51C91.0206 199.208 92.0623 198.097 93.3135 197.264C93.8206 196.95 94.399 196.769 94.9949 196.738Z" fill="#022C49"/>
<path d="M92.7993 37.8688C93.4338 37.4882 93.9858 37.7927 93.9858 38.5541C93.9627 38.9657 93.8434 39.3662 93.6373 39.7232C93.4312 40.0803 93.1442 40.384 92.7993 40.6098C92.1648 40.9842 91.6064 40.6796 91.6064 39.9246C91.6282 39.5119 91.7477 39.1103 91.955 38.7529C92.1624 38.3955 92.4518 38.0925 92.7993 37.8688Z" fill="#263238"/>
<path d="M85.1353 47.8873C85.719 47.551 86.1885 47.8238 86.1885 48.5218C86.1692 48.8869 86.0637 49.2422 85.8806 49.5587C85.6975 49.8752 85.4421 50.1439 85.1353 50.3427C84.5515 50.679 84.082 50.4062 84.082 49.7082C84.1024 49.3434 84.2083 48.9884 84.3913 48.672C84.5743 48.3557 84.8291 48.0869 85.1353 47.8873Z" fill="#263238"/>
<path d="M88.6557 45.8062L100.451 38.9981C101.085 38.6238 101.618 38.8903 101.618 39.5882C101.587 39.9801 101.466 40.3595 101.263 40.6965C101.061 41.0334 100.783 41.3186 100.451 41.5297L88.6557 48.3378C88.0212 48.7121 87.4883 48.4456 87.4883 47.7477C87.5192 47.3558 87.6408 46.9764 87.8433 46.6394C88.0459 46.3025 88.3241 46.0172 88.6557 45.8062Z" fill="#263238"/>
<path d="M131.16 15.4461C130.983 14.1771 129.974 13.7266 128.762 14.4309L56.9383 55.8946C56.2196 56.3407 55.6292 56.966 55.2252 57.7092L47.6113 53.2678C48.0217 52.5305 48.6136 51.9103 49.3308 51.4658L121.11 10.0085C121.863 9.62671 122.696 9.42773 123.54 9.42773C124.385 9.42773 125.217 9.62671 125.97 10.0085L128.762 11.6074C129.413 12.039 129.963 12.6049 130.377 13.267C130.791 13.9291 131.058 14.6721 131.16 15.4461Z" fill="#37474F"/>
<path d="M112.323 20.5791C111.95 20.7782 111.536 20.886 111.113 20.8937C110.691 20.9014 110.273 20.8088 109.893 20.6235C109.766 20.5693 109.655 20.4817 109.574 20.37C109.492 20.2583 109.443 20.1267 109.43 19.989C109.43 19.8114 109.43 19.1515 109.43 18.9675C109.45 18.8092 109.511 18.6588 109.607 18.531C109.702 18.4031 109.829 18.3021 109.975 18.2378L117.672 13.7964C118.046 13.5988 118.461 13.4918 118.885 13.4841C119.308 13.4764 119.727 13.5682 120.108 13.752C120.233 13.8088 120.341 13.8972 120.421 14.0085C120.501 14.1198 120.551 14.2501 120.565 14.3865C120.565 14.5705 120.565 15.2558 120.565 15.4334C120.545 15.5927 120.484 15.7441 120.389 15.873C120.293 16.002 120.166 16.1041 120.019 16.1694L112.323 20.5791Z" fill="#022C49"/>
<path opacity="0.25" d="M112.323 20.5791C111.95 20.7782 111.536 20.886 111.113 20.8937C110.691 20.9014 110.273 20.8088 109.893 20.6235C109.766 20.5693 109.655 20.4817 109.574 20.37C109.492 20.2583 109.443 20.1267 109.43 19.989C109.43 19.8114 109.43 19.1515 109.43 18.9675C109.45 18.8092 109.511 18.6588 109.607 18.531C109.702 18.4031 109.829 18.3021 109.975 18.2378L117.672 13.7964C118.046 13.5988 118.461 13.4918 118.885 13.4841C119.308 13.4764 119.727 13.5682 120.108 13.752C120.233 13.8088 120.341 13.8972 120.421 14.0085C120.501 14.1198 120.551 14.2501 120.565 14.3865C120.565 14.5705 120.565 15.2558 120.565 15.4334C120.545 15.5927 120.484 15.7441 120.389 15.873C120.293 16.002 120.166 16.1041 120.019 16.1694L112.323 20.5791Z" fill="black"/>
<path d="M112.323 19.5703L120.019 15.1289C120.717 14.7228 120.749 14.0946 120.102 13.7203C119.721 13.5364 119.302 13.4446 118.878 13.4524C118.455 13.4601 118.04 13.5671 117.665 13.7647L109.969 18.2061C109.278 18.6058 109.24 19.234 109.893 19.6083C110.273 19.7931 110.69 19.886 111.113 19.8794C111.535 19.8727 111.949 19.7668 112.323 19.5703Z" fill="#022C49"/>
<path opacity="0.3" d="M112.323 19.5703L120.019 15.1289C120.717 14.7228 120.749 14.0946 120.102 13.7203C119.721 13.5364 119.302 13.4446 118.878 13.4524C118.455 13.4601 118.04 13.5671 117.665 13.7647L109.969 18.2061C109.278 18.6058 109.24 19.234 109.893 19.6083C110.273 19.7931 110.69 19.886 111.113 19.8794C111.535 19.8727 111.949 19.7668 112.323 19.5703Z" fill="black"/>
<path d="M51.6782 81.1788C51.6632 80.7565 51.5484 80.3438 51.3433 79.9744C51.1382 79.6049 50.8485 79.2893 50.4981 79.0533C50.3832 78.9685 50.2472 78.9171 50.105 78.9047C49.9628 78.8924 49.82 78.9197 49.6923 78.9835C49.5463 79.0723 48.9626 79.3959 48.8103 79.491C48.6829 79.5876 48.5826 79.7154 48.5193 79.8622C48.4559 80.009 48.4316 80.1696 48.4487 80.3286V99.1855C48.464 99.607 48.5782 100.019 48.7821 100.388C48.986 100.757 49.2739 101.074 49.6225 101.311C49.7372 101.388 49.8698 101.435 50.0076 101.446C50.1453 101.457 50.2837 101.432 50.4092 101.374C50.5742 101.292 51.1643 100.949 51.3229 100.854C51.4503 100.758 51.5506 100.63 51.614 100.483C51.6773 100.336 51.7017 100.176 51.6846 100.017L51.6782 81.1788Z" fill="#022C49"/>
<path opacity="0.3" d="M51.6782 81.1788C51.6632 80.7565 51.5484 80.3438 51.3433 79.9744C51.1382 79.6049 50.8485 79.2893 50.4981 79.0533C50.3832 78.9685 50.2472 78.9171 50.105 78.9047C49.9628 78.8924 49.82 78.9197 49.6923 78.9835C49.5463 79.0723 48.9626 79.3959 48.8103 79.491C48.6829 79.5876 48.5826 79.7154 48.5193 79.8622C48.4559 80.009 48.4316 80.1696 48.4487 80.3286V99.1855C48.464 99.607 48.5782 100.019 48.7821 100.388C48.986 100.757 49.2739 101.074 49.6225 101.311C49.7372 101.388 49.8698 101.435 50.0076 101.446C50.1453 101.457 50.2837 101.432 50.4092 101.374C50.5742 101.292 51.1643 100.949 51.3229 100.854C51.4503 100.758 51.5506 100.63 51.614 100.483C51.6773 100.336 51.7017 100.176 51.6846 100.017L51.6782 81.1788Z" fill="black"/>
<path d="M50.8032 81.7053V100.562C50.8032 101.362 50.2765 101.704 49.623 101.33C49.2744 101.092 48.9866 100.776 48.7827 100.407C48.5788 100.038 48.4646 99.6259 48.4492 99.2044V80.3285C48.4492 79.5227 48.9758 79.1801 49.623 79.5544C49.9762 79.7937 50.2674 80.1135 50.4726 80.4875C50.6777 80.8615 50.7911 81.2789 50.8032 81.7053Z" fill="#022C49"/>
<path opacity="0.4" d="M50.8032 81.7053V100.562C50.8032 101.362 50.2765 101.704 49.623 101.33C49.2744 101.092 48.9866 100.776 48.7827 100.407C48.5788 100.038 48.4646 99.6259 48.4492 99.2044V80.3285C48.4492 79.5227 48.9758 79.1801 49.623 79.5544C49.9762 79.7937 50.2674 80.1135 50.4726 80.4875C50.6777 80.8615 50.7911 81.2789 50.8032 81.7053Z" fill="black"/>
<path d="M51.6782 106.45C51.6632 106.028 51.5484 105.615 51.3433 105.246C51.1382 104.876 50.8485 104.561 50.4981 104.325C50.3832 104.24 50.2472 104.189 50.105 104.176C49.9628 104.164 49.82 104.191 49.6923 104.255C49.5463 104.344 48.9626 104.667 48.8103 104.763C48.6829 104.859 48.5826 104.987 48.5193 105.134C48.4559 105.28 48.4316 105.441 48.4487 105.6V114.483C48.465 114.903 48.5797 115.314 48.7835 115.682C48.9874 116.05 49.2747 116.365 49.6225 116.602C49.7334 116.684 49.8642 116.735 50.0015 116.75C50.1387 116.764 50.2773 116.742 50.4029 116.685C50.5679 116.602 51.1579 116.259 51.3166 116.164C51.4435 116.069 51.5435 115.942 51.6069 115.796C51.6702 115.651 51.6948 115.491 51.6782 115.333V106.45Z" fill="#022C49"/>
<path opacity="0.3" d="M51.6782 106.45C51.6632 106.028 51.5484 105.615 51.3433 105.246C51.1382 104.876 50.8485 104.561 50.4981 104.325C50.3832 104.24 50.2472 104.189 50.105 104.176C49.9628 104.164 49.82 104.191 49.6923 104.255C49.5463 104.344 48.9626 104.667 48.8103 104.763C48.6829 104.859 48.5826 104.987 48.5193 105.134C48.4559 105.28 48.4316 105.441 48.4487 105.6V114.483C48.465 114.903 48.5797 115.314 48.7835 115.682C48.9874 116.05 49.2747 116.365 49.6225 116.602C49.7334 116.684 49.8642 116.735 50.0015 116.75C50.1387 116.764 50.2773 116.742 50.4029 116.685C50.5679 116.602 51.1579 116.259 51.3166 116.164C51.4435 116.069 51.5435 115.942 51.6069 115.796C51.6702 115.651 51.6948 115.491 51.6782 115.333V106.45Z" fill="black"/>
<path d="M50.8032 106.926V115.809C50.8032 116.608 50.2765 116.957 49.623 116.577C49.2744 116.339 48.9866 116.023 48.7827 115.654C48.5788 115.285 48.4646 114.873 48.4492 114.451V105.568C48.4492 104.769 48.9758 104.42 49.623 104.794C49.9729 105.032 50.262 105.349 50.467 105.72C50.6719 106.09 50.7871 106.503 50.8032 106.926Z" fill="#022C49"/>
<path opacity="0.4" d="M50.8032 106.926V115.809C50.8032 116.608 50.2765 116.957 49.623 116.577C49.2744 116.339 48.9866 116.023 48.7827 115.654C48.5788 115.285 48.4646 114.873 48.4492 114.451V105.568C48.4492 104.769 48.9758 104.42 49.623 104.794C49.9729 105.032 50.262 105.349 50.467 105.72C50.6719 106.09 50.7871 106.503 50.8032 106.926Z" fill="black"/>
<path d="M72.7059 90.7088C72.769 91.0168 72.8538 91.32 72.9597 91.6161C73.3721 92.7328 74.1144 93.7861 74.051 94.9789C73.9812 96.324 72.9216 97.3645 72.1095 98.4368C71.054 99.8546 70.3506 101.503 70.0571 103.246C69.7637 104.989 69.8887 106.777 70.4217 108.462C71.2018 110.514 72.2839 112.439 73.6322 114.172L76.6968 118.518C77.6234 119.735 78.8061 120.734 80.1611 121.443C82.7944 122.932 85.7326 123.8 88.752 123.981C93.7151 124.316 98.6519 123.022 102.812 120.295C107.222 117.376 105.28 109.889 109.792 107.155C115.248 103.855 117.85 92.3965 111.162 87.6125C111.162 87.6125 112.241 80.5951 110.261 78.8058C108.288 77.1551 105.847 76.1653 103.282 75.976C99.7413 75.608 96.1945 76.2996 92.6605 76.2869C89.0224 76.2752 85.3874 76.502 81.779 76.9658C80.5101 77.1371 78.7208 77.6003 78.0356 78.8376C77.8421 79.3228 77.7893 79.8528 77.8833 80.3667C77.8735 81.1819 77.5821 81.9687 77.0585 82.5937C76.2717 83.5454 75.155 84.1863 74.3175 85.0809C73.6264 85.8269 73.1204 86.725 72.8404 87.7026C72.5605 88.6803 72.5144 89.7101 72.7059 90.7088Z" fill="#263238"/>
<path d="M107.92 100.835C113.63 100.994 114.373 102.212 119.487 107.275C123.738 111.482 137.823 124.482 137.823 124.482L154.701 128.975L150.716 139.272C150.716 139.272 146.909 139.114 139.295 139.107C134.619 139.107 132.995 138.06 128.287 134.92C125.889 133.315 112.355 124.457 112.355 124.457L107.92 100.835Z" fill="#E6E6E6"/>
<path d="M173.374 108.151L142.443 119.051L133.915 155.852L134.607 156.588L164.015 145.617L174.059 108.887L173.374 108.151Z" fill="#022C49"/>
<path opacity="0.35" d="M143.128 119.787L134.607 156.587L133.915 155.851L142.443 119.051L143.128 119.787Z" fill="black"/>
<path opacity="0.25" d="M174.059 108.887L143.128 119.787L134.606 156.587L164.015 145.617L174.059 108.887Z" fill="black"/>
<g opacity="0.2">
<path d="M159.416 138.13C159.702 138.854 162.075 140.446 165.507 140.161L166.084 138.042L159.416 138.13Z" fill="black"/>
</g>
<g opacity="0.1">
<path d="M164.744 116.425L164.998 115.187C165.138 114.508 163.323 114.864 160.944 115.987L155.36 117.675C152.981 118.798 150.735 119.635 150.589 120.314L150.335 121.545L164.744 116.425Z" fill="black"/>
</g>
<path d="M166.584 110.841C166.673 110.416 165.95 110.505 164.979 110.765L163.196 111.368C163.196 111.368 163.926 109.578 159.706 110.733C155.068 112.002 154.967 114.305 154.967 114.305C154.241 114.62 153.498 114.891 152.74 115.117C151.198 115.619 151.033 115.917 150.906 116.348L150.678 117.129L166.445 111.583C166.445 111.583 166.521 111.266 166.584 110.841Z" fill="#37474F"/>
<path d="M164.922 113.208C163.463 113.842 162.86 114.191 162.638 115.244C162.391 116.444 162.34 116.945 162.34 116.945L154.13 120.181C154.13 120.181 154.574 118.41 154.682 117.82C154.789 117.23 153.704 117.23 152.283 117.884L152.619 116.412L165.392 111.672L164.922 113.208Z" fill="#37474F"/>
<path d="M165.164 116.444C165.164 116.444 165.284 115.892 165.424 115.206C165.563 114.521 163.749 114.883 161.369 116.006L155.786 117.694C153.407 118.817 151.154 119.654 151.015 120.333L150.761 121.602L165.164 116.444Z" fill="#37474F"/>
<path d="M170.62 121.475C170.62 121.475 169.522 125.51 169.231 126.551C168.939 127.591 163.876 129.907 161.344 130.225C156.496 130.827 155.944 131.874 157.106 135.3C158.184 138.473 161.338 139.678 165.716 139.164C167.771 138.923 170.607 137.102 171.724 133.924C173.145 129.863 172.359 125.529 172.949 123.137C173.539 120.745 171.851 120.06 170.62 121.475Z" fill="#FFA8A7"/>
<path d="M122.691 176.967L119.41 178.871L118.034 179.664L99.9888 190.076L97.527 191.472L93.3711 193.87L94.6401 180.92L97.0638 155.845V155.585L97.178 154.462L100.35 121.678L101.74 107.332L102.229 102.187L102.393 100.524H102.482C103.952 100.116 105.505 100.116 106.974 100.524C107.302 100.624 107.62 100.751 107.926 100.905C109.83 101.85 111.099 103.69 112.152 105.626C112.411 106.097 112.644 106.582 112.85 107.079C113.632 108.959 114.235 110.909 114.652 112.903C115.483 116.583 116.555 120.346 116.98 126.278C117.047 127.805 116.967 129.335 116.739 130.846C116.453 134.846 116.405 138.858 116.593 142.864C117.126 151.937 119.41 156.048 122.691 176.967Z" fill="#E0E0E0"/>
<path d="M118.034 179.651L99.9891 190.063L97.5273 191.472L93.3715 193.87L90.5099 195.52L73.1377 205.544C73.3217 198.565 73.4042 190.996 73.2392 183.845C73.1884 181.453 73.1694 179.01 73.2709 176.51C73.6009 167.831 75.2505 158.523 81.1639 148.726L81.4368 148.231C82.1347 152.375 88.4796 155.065 94.1899 155.699L94.8244 155.756C95.5414 155.826 96.2837 155.858 97.0515 155.858H97.5337C102.362 155.813 108.079 154.678 114.665 152.451C115.299 156.131 115.934 160.959 116.613 166.606C116.917 169.144 117.226 171.849 117.539 174.721C117.666 176.326 117.863 177.97 118.034 179.651Z" fill="#FFA8A7"/>
<path d="M119.411 178.858L118.034 179.651L99.9893 190.063L97.5275 191.472L93.3716 193.87L90.5101 195.52L73.1378 205.544L71.2344 206.642C71.3295 199.13 71.393 191.77 71.3867 187.151C71.3867 182.855 71.4818 179.036 71.7166 175.647C72.1798 168.96 73.1442 163.928 74.7558 160.122C76.6467 155.955 78.8837 151.954 81.4433 148.161C81.4433 148.161 83.0295 153.517 94.8944 154.36H94.9705C95.6684 154.411 96.4044 154.443 97.1785 154.456H98.0795C112.85 154.456 114.481 150.731 114.481 150.731C115.924 156.208 117.066 161.759 117.901 167.361C118.214 169.341 118.516 171.456 118.808 173.706C119.024 175.356 119.227 177.069 119.411 178.858Z" fill="#022C49"/>
<path opacity="0.4" d="M119.411 178.858L118.034 179.651L99.9893 190.063L97.5275 191.472L93.3716 193.87L90.5101 195.52L73.1378 205.544L71.2344 206.642C71.3295 199.13 71.393 191.77 71.3867 187.151C71.3867 182.855 71.4818 179.036 71.7166 175.647C72.1798 168.96 73.1442 163.928 74.7558 160.122C76.6467 155.955 78.8837 151.954 81.4433 148.161C81.4433 148.161 83.0295 153.517 94.8944 154.36H94.9705C95.6684 154.411 96.4044 154.443 97.1785 154.456H98.0795C112.85 154.456 114.481 150.731 114.481 150.731C115.924 156.208 117.066 161.759 117.901 167.361C118.214 169.341 118.516 171.456 118.808 173.706C119.024 175.356 119.227 177.069 119.411 178.858Z" fill="black"/>
<path opacity="0.2" d="M110.94 170.438C110.94 170.438 109.291 175.679 102.349 178.617L102.02 180.222L99.9892 190.063L97.5273 191.472L98.9994 180.616L99.6338 175.895C103.924 175.45 107.923 173.52 110.94 170.438Z" fill="black"/>
<path d="M89.8309 102.041L82.8516 102.777C78.2325 103.906 76.145 105.949 75.6692 110.029C75.4471 111.932 74.2987 117.008 75.9103 123.353C77.3696 129.114 81.2654 143.213 81.2654 143.213C81.2654 143.213 72.3001 154.912 70.6758 174.975C87.0836 185.685 112.254 179.93 119.062 173.458C118.491 167.329 114.576 150.509 114.087 145.046C114.087 145.046 114.449 136.512 115.128 132.813C120.318 127.147 119.658 121.729 117.33 117.357C113.028 109.287 106.543 102.193 104.443 102.199L89.8309 102.041Z" fill="#022C49"/>
<path opacity="0.7" d="M89.8309 102.041L82.8516 102.777C78.2325 103.906 76.145 105.949 75.6692 110.029C75.4471 111.932 74.2987 117.008 75.9103 123.353C77.3696 129.114 81.2654 143.213 81.2654 143.213C81.2654 143.213 72.3001 154.912 70.6758 174.975C87.0836 185.685 112.254 179.93 119.062 173.458C118.491 167.329 114.576 150.509 114.087 145.046C114.087 145.046 114.449 136.512 115.128 132.813C120.318 127.147 119.658 121.729 117.33 117.357C113.028 109.287 106.543 102.193 104.443 102.199L89.8309 102.041Z" fill="white"/>
<path d="M95.8772 145.725C95.8772 145.852 95.8772 145.966 95.8772 146.061V146.226C95.8813 146.279 95.8813 146.332 95.8772 146.385C95.6361 148.923 95.3505 151.619 95.046 154.367C95.046 154.367 95.046 154.367 95.046 154.405C95.0016 154.849 94.9508 155.293 94.9001 155.744C93.9674 164.024 92.857 172.875 92.0005 180.933C91.7911 182.887 91.6007 184.79 91.4294 186.643C91.1629 189.416 90.8774 192.455 90.5856 195.526L73.2133 205.551L71.3099 206.648L66.4561 209.447C67.4332 199.834 69.711 177.564 70.9799 167.513C71.1259 166.378 71.3162 165.242 71.5319 164.113L71.7033 163.288L71.7794 162.951C71.8619 162.571 71.9444 162.203 72.0332 161.828C72.122 161.454 72.2045 161.137 72.287 160.8C72.4837 160.033 72.693 159.278 72.9215 158.542C73.0293 158.186 73.1308 157.831 73.2451 157.482C73.3593 157.133 73.4544 156.784 73.5686 156.442C73.7971 155.756 74.0191 155.084 74.2539 154.43C74.2511 154.418 74.2511 154.405 74.2539 154.392C74.3617 154.081 74.476 153.758 74.5902 153.466C74.7424 153.034 74.9011 152.616 75.0597 152.197L75.25 151.696C75.3452 151.467 75.4277 151.245 75.5165 151.023C75.8274 150.243 76.151 149.5 76.4365 148.809C76.5 148.656 76.5698 148.504 76.6332 148.358C76.6967 148.212 76.7982 147.997 76.8743 147.819C77.0647 147.375 77.255 146.962 77.439 146.55C77.5151 146.372 77.5976 146.201 77.6738 146.036C77.7499 145.871 77.8578 145.655 77.9402 145.478L78.0608 145.224L78.1877 144.976C78.196 144.944 78.2111 144.914 78.2321 144.888C78.2494 144.841 78.2706 144.797 78.2956 144.754C78.3109 144.726 78.3237 144.696 78.3336 144.666C78.3864 144.576 78.4331 144.482 78.4732 144.386L78.8983 143.561C78.8983 143.517 78.9427 143.485 78.9554 143.447L79.1204 143.143L73.8415 121.253L71.2147 110.378V110.2C71.3353 109.236 72.1411 104.687 76.7855 103.303C79.4076 102.627 82.0935 102.227 84.799 102.111C85.8396 102.047 86.7786 102.022 87.5464 102.003H88.7582H89.4879C89.4896 102.017 89.4896 102.032 89.4879 102.047C89.526 102.142 89.6338 102.428 89.7988 102.872C89.8166 102.946 89.8421 103.019 89.8749 103.088C89.8755 103.098 89.8755 103.109 89.8749 103.119C91.017 106.254 94.2212 115.378 95.8137 123.302C96.0929 124.673 96.3213 126.012 96.4863 127.281C96.9621 131.246 96.6132 137.883 95.8772 145.725Z" fill="#FAFAFA"/>
<path d="M79.2919 132.661C79.2919 132.661 79.9264 129.533 80.8591 122.776C81.9441 114.984 81.5571 111.133 80.3833 108.671L73.7656 121.291L79.0445 143.181C79.0445 143.181 73.6196 153.117 71.4307 164.119C76.6208 149.456 82.2994 145.084 82.2994 145.084L79.2919 132.661Z" fill="#E6E6E6"/>
<path d="M102.477 97.1552C104.532 97.1552 104.773 97.4978 106.544 99.8707C107.597 101.286 114.265 112.294 114.265 112.294C114.265 112.294 108.961 105.315 104.957 103.195C104.187 102.744 103.353 102.41 102.483 102.206L102.477 97.1552Z" fill="#EBEBEB"/>
<path d="M87.274 120.549C87.274 119.914 87.2105 118.544 87.1027 116.818C86.576 108.354 86.3222 100.74 89.1774 100.106L89.4249 101.273C87.3438 101.724 88.029 112.618 88.2891 116.716C88.4033 118.48 88.4922 119.889 88.4605 120.574L87.274 120.549Z" fill="#022C49"/>
<path d="M77.7568 65.1327L82.1982 68.7683C82.4397 68.492 82.6222 68.1693 82.7346 67.8199C82.8469 67.4706 82.8868 67.1019 82.8518 66.7366C82.8167 66.3713 82.7075 66.017 82.5307 65.6954C82.354 65.3738 82.1135 65.0917 81.8239 64.8663C81.24 64.3834 80.4935 64.142 79.7374 64.1915C78.9813 64.2411 78.2728 64.5778 77.7568 65.1327Z" fill="#263238"/>
<path d="M89.3554 97.6945C89.3554 94.9091 82.8646 90.7152 79.5146 84.8589C76.1645 79.0026 77.8395 69.3711 82.4332 67.8927C82.4713 67.8927 82.5982 66.6555 82.6172 66.5666C82.8712 65.4492 83.2994 64.3786 83.8862 63.3942C85.7579 60.171 89.7234 57.6838 93.4035 57.1636C107.952 55.0444 114.64 60.6977 117.311 66.9156C118.177 69.0073 118.563 71.2665 118.44 73.527C118.365 75.1872 117.749 76.7773 116.686 78.0547C115.623 79.332 114.171 80.2265 112.552 80.6015L89.3554 97.6945Z" fill="#263238"/>
<path d="M109.539 64.8345C112.387 66.1034 115.097 70.437 115.052 82.6318C115.014 92.9739 111.842 95.588 110.243 96.3557C108.644 97.1235 105.516 96.7301 102.477 96.2669V102.206C102.477 102.206 104.755 104.445 103.955 105.854C103.156 107.263 100.205 108.455 95.618 107.015C90.4215 105.384 89.235 101.939 89.235 101.939L89.1145 88.9069C89.1145 88.9069 87.3696 90.7405 84.2924 88.0503C81.7544 85.8233 80.8408 82.01 82.7506 79.9162C84.6604 77.8224 87.1095 77.6574 89.3175 79.9987L90.9037 79.1612C93.7335 78.8312 97.8831 78.3554 100.941 76.8136C108.784 72.8226 109.596 68.4955 109.539 64.8345Z" fill="#FFA8A7"/>
<path d="M89.3613 78.311L89.3994 84.0214C89.7661 84.0311 90.1309 83.9658 90.4715 83.8293C90.812 83.6928 91.121 83.4882 91.3795 83.2279C91.638 82.9676 91.8405 82.6572 91.9747 82.3157C92.1088 81.9743 92.1717 81.609 92.1594 81.2424C92.1525 80.4898 91.8595 79.768 91.3398 79.2236C90.8202 78.6792 90.1128 78.3529 89.3613 78.311Z" fill="#263238"/>
<path d="M109.805 79.123C109.807 79.3913 109.889 79.653 110.039 79.8754C110.189 80.0979 110.401 80.2715 110.648 80.3746C110.896 80.4778 111.169 80.5059 111.432 80.4556C111.696 80.4053 111.939 80.2787 112.131 80.0916C112.323 79.9044 112.456 79.665 112.514 79.4029C112.571 79.1408 112.551 78.8676 112.454 78.6172C112.358 78.3668 112.19 78.1502 111.972 77.9942C111.753 77.8383 111.494 77.7498 111.226 77.7399C111.041 77.7356 110.858 77.7683 110.686 77.8358C110.514 77.9033 110.357 78.0045 110.225 78.1332C110.093 78.262 109.987 78.4159 109.915 78.5858C109.843 78.7558 109.805 78.9384 109.805 79.123Z" fill="black"/>
<path d="M98.8598 79.7322C98.8487 79.9289 98.8765 80.1259 98.9416 80.3118C99.0067 80.4978 99.1079 80.669 99.2394 80.8158C99.3708 80.9626 99.5299 81.0819 99.7076 81.1671C99.8853 81.2523 100.078 81.3015 100.275 81.3121C100.474 81.3137 100.672 81.2759 100.857 81.2009C101.042 81.1258 101.211 81.015 101.353 80.8747C101.495 80.7343 101.608 80.5674 101.685 80.3833C101.763 80.1992 101.803 80.0017 101.804 79.802C101.81 79.6087 101.778 79.416 101.71 79.235C101.642 79.0541 101.539 78.8883 101.406 78.7472C101.274 78.6061 101.115 78.4924 100.939 78.4126C100.763 78.3329 100.573 78.2886 100.379 78.2824C100.186 78.2761 99.9935 78.308 99.8125 78.3762C99.6315 78.4444 99.4657 78.5476 99.3246 78.6799C99.1835 78.8121 99.0698 78.9709 98.9901 79.1471C98.9103 79.3233 98.8661 79.5135 98.8598 79.7068V79.7322Z" fill="black"/>
<path d="M113.434 76.5661L109.9 75.1639C109.982 74.9262 110.112 74.7078 110.282 74.5226C110.452 74.3373 110.658 74.1891 110.888 74.0873C111.118 73.9854 111.367 73.9321 111.618 73.9307C111.869 73.9293 112.118 73.9797 112.35 74.0789C112.815 74.2749 113.188 74.6424 113.39 75.1055C113.592 75.5685 113.608 76.0915 113.434 76.5661Z" fill="black"/>
<path d="M106.455 78.0065L106.277 86.4705L110.827 85.4617L106.455 78.0065Z" fill="#F28F8F"/>
<path d="M101.094 88.1963L105.535 89.5731C105.471 89.8759 105.344 90.1622 105.165 90.4141C104.985 90.6661 104.755 90.8784 104.49 91.0379C104.224 91.1973 103.929 91.3005 103.622 91.3411C103.315 91.3816 103.003 91.3586 102.705 91.2735C102.096 91.0616 101.59 90.6255 101.291 90.0538C100.991 89.4822 100.921 88.818 101.094 88.1963Z" fill="#B16668"/>
<path d="M103.549 91.3496C103.544 90.732 103.295 90.1413 102.856 89.7064C102.418 89.2714 101.825 89.0273 101.207 89.0274C101.146 89.0242 101.085 89.0242 101.023 89.0274C101.046 89.5231 101.217 90.0005 101.515 90.3977C101.813 90.7948 102.223 91.0933 102.692 91.2544C102.968 91.3454 103.26 91.3778 103.549 91.3496Z" fill="#F28F8F"/>
<path d="M102.476 96.2986C99.272 95.9179 92.667 94.0779 91.5947 91.394C92.0243 92.7413 92.8489 93.9283 93.9614 94.8012C95.9536 96.5143 102.476 98.2972 102.476 98.2972V96.2986Z" fill="#F28F8F"/>
<path d="M89.2023 97.187C88.3648 97.0157 87.6224 97.3837 86.9372 98.5384C86.252 99.6932 84.7482 102.155 84.7482 102.155C84.7482 102.155 83.9678 110.27 84.7482 112.307C85.4208 114.058 92.8379 120.625 92.8379 120.625C92.8379 120.625 90.9027 127.915 90.8329 130.307C90.7632 132.699 95.2743 141.779 95.82 146.423C95.82 146.423 97.4252 131.83 96.7337 126.57C95.5408 117.452 91.2644 105.676 89.2467 101.933L89.2023 97.187Z" fill="#EBEBEB"/>
<path d="M93.7398 127.388C93.2448 126.21 92.6615 125.071 91.995 123.981C90.9417 122.236 89.641 120.561 88.4672 120.13C88.2893 120.059 88.1003 120.021 87.9089 120.016H87.8454C87.6522 120.027 87.4627 120.074 87.2871 120.155C86.3607 120.568 85.3836 121.83 84.5905 123.283C83.7783 124.742 83.109 126.277 82.5919 127.864C82.2873 128.848 82.4206 130.935 82.7822 133.321C83.4929 137.953 85.0727 143.739 85.9547 144.881C86.6011 145.679 87.3648 146.374 88.2198 146.943C87.6963 147.29 87.1314 147.569 86.5384 147.775C86.2029 147.897 85.8485 147.959 85.4915 147.959V148.79H85.593C85.9702 148.784 86.3444 148.722 86.7034 148.606C87.535 148.336 88.3203 147.94 89.0319 147.432C89.7831 147.879 90.5983 148.209 91.4493 148.409C91.85 148.505 92.2643 148.531 92.6739 148.485L92.5723 147.66C92.217 147.69 91.8592 147.662 91.5128 147.578C90.9024 147.419 90.3141 147.184 89.7616 146.88C90.5668 146.239 91.2724 145.482 91.8554 144.634C92.3503 143.879 92.9594 141.277 93.4162 138.289C93.6954 136.506 93.9238 134.59 94.0507 132.845C94.1903 130.409 94.1268 128.321 93.7398 127.388ZM91.1194 144.177C90.5241 145.036 89.7934 145.792 88.9558 146.417C88.066 145.867 87.2728 145.175 86.6082 144.367C85.7834 143.295 84.2606 137.648 83.5753 133.194C83.2264 130.942 83.0995 128.994 83.3787 128.118C83.8961 126.511 84.5808 124.963 85.4217 123.499C86.2973 121.989 87.23 120.879 87.8772 120.853C88.6449 120.853 89.8885 122.243 91.0496 124.026C91.2843 124.375 91.5064 124.755 91.7221 125.136C92.1954 125.956 92.6192 126.803 92.9911 127.674C93.3401 128.537 93.3781 130.485 93.2195 132.75C93.1307 134.019 92.9911 135.345 92.8135 136.665C92.3312 140.11 91.6523 143.339 91.1194 144.158V144.177Z" fill="#455A64"/>
<path d="M93.8094 147.997C93.8193 148.239 93.7571 148.478 93.6307 148.685C93.5042 148.892 93.3193 149.057 93.0992 149.158C92.8791 149.26 92.6339 149.294 92.3945 149.256C92.1551 149.218 91.9323 149.11 91.7544 148.945C91.5764 148.781 91.4513 148.567 91.3949 148.331C91.3385 148.096 91.3534 147.848 91.4375 147.621C91.5217 147.394 91.6715 147.197 91.8678 147.055C92.0641 146.912 92.2982 146.832 92.5405 146.823C92.8642 146.811 93.1796 146.927 93.4174 147.147C93.6553 147.368 93.7962 147.673 93.8094 147.997Z" fill="#263238"/>
<path d="M86.6968 148.327C86.708 148.569 86.6469 148.809 86.5213 149.017C86.3956 149.224 86.2112 149.39 85.9913 149.493C85.7714 149.595 85.526 149.63 85.2862 149.593C85.0464 149.556 84.8231 149.448 84.6445 149.284C84.4659 149.12 84.3402 148.906 84.2832 148.67C84.2263 148.434 84.2407 148.187 84.3246 147.959C84.4086 147.732 84.5582 147.534 84.7547 147.391C84.9511 147.249 85.1854 147.168 85.4279 147.159C85.5879 147.152 85.7477 147.177 85.8981 147.232C86.0485 147.287 86.1866 147.371 86.3044 147.48C86.4223 147.588 86.5176 147.719 86.585 147.864C86.6523 148.009 86.6903 148.166 86.6968 148.327Z" fill="#263238"/>
<path d="M93.949 132.832L93.2447 132.782C93.1729 132.775 93.1064 132.741 93.0591 132.687C93.0118 132.632 92.9874 132.562 92.991 132.49C93.1369 130.161 93.0608 128.448 92.7752 127.763C91.5443 124.755 88.9683 120.986 87.8833 121.031C86.7984 121.075 84.5523 125.054 83.5752 128.15C83.3531 128.86 83.4229 130.574 83.7592 132.883C83.7702 132.954 83.7532 133.026 83.7117 133.084C83.6701 133.142 83.6075 133.182 83.5371 133.194L82.8392 133.302C82.766 133.311 82.6923 133.291 82.634 133.245C82.5758 133.2 82.5378 133.134 82.5283 133.061C82.1412 130.472 82.0968 128.695 82.3887 127.775C82.909 126.113 85.3644 119.889 87.8326 119.787C90.3007 119.686 93.2765 125.675 93.9363 127.293C94.298 128.182 94.4059 129.958 94.2409 132.566C94.236 132.639 94.2029 132.708 94.1485 132.758C94.0941 132.807 94.0227 132.834 93.949 132.832Z" fill="#022C49"/>
<path d="M78.7339 103.221C74.0895 103.145 71.9449 104.712 69.0009 108.652C66.666 111.78 57.5802 128.683 54.5664 133.619L38.1586 124.851C34.8402 122.56 33.7679 118.943 31.6678 116.831C29.5676 114.718 27.3913 114.293 25.0818 112.548C22.7723 110.803 21.8332 109.445 21.167 111.076C20.5008 112.706 23.0705 115.346 23.559 115.999C24.0476 116.653 26.6236 118.106 23.2799 118.157C19.9361 118.207 13.3184 114.743 11.7068 114.128C10.0952 113.512 10.1904 115.435 10.9835 116.666C11.7766 117.897 11.7386 121.374 13.0773 123.385C14.4922 125.517 15.2663 126.443 18.4197 127.826C21.351 129.095 27.5055 129.603 30.6209 131.551C33.7362 133.499 41.4579 140.364 46.1531 144.482C52.1236 149.716 56.2414 150.674 59.5661 147.533C62.7956 144.152 66.0696 140.186 67.6685 138.175C71.9766 132.75 78.791 120.409 78.791 120.409C78.791 120.409 81.7414 114.064 78.7339 103.221Z" fill="#FFA8A7"/>
<path d="M79.3748 102.758C72.535 102.758 70.492 105.232 66.9896 110.949C63.4872 116.666 54.5029 133.029 54.5029 133.029L41.5658 126.253C41.5658 126.253 39.2372 131.379 36.7627 136.665C36.7627 136.665 44.0847 143.009 47.549 146.011C51.0132 149.012 55.6069 151.366 59.8643 147.692C64.4136 143.771 79.1654 123.398 79.1654 123.398C82.6678 117.04 81.8873 107.402 79.3748 102.758Z" fill="#F0F0F0"/>
<path d="M54.5029 133.029C56.6158 135.516 59.1727 138.314 59.0585 140.516C59.0585 140.516 60.5052 138.562 55.4229 131.36L54.5029 133.029Z" fill="#E0E0E0"/>
<path d="M30.0303 72.0106L24.7387 75.0434L24.7577 68.9651L20.7985 66.6809L11.5667 72.0106V82.6699L2.33496 87.9996V98.659L6.29415 100.943L11.5667 97.8976V103.995L15.5259 106.279L24.7577 100.943V90.2838L33.9895 84.9541V74.2947L30.0303 72.0106Z" fill="#022C49"/>
<path d="M6.29492 90.2837V100.943L15.5267 95.6134V106.279L24.7585 100.943V90.2837L33.9902 84.954V74.2947L24.7267 79.6434L24.7585 68.965L15.5267 74.2947V84.954L6.29492 90.2837Z" fill="#022C49"/>
<g opacity="0.2">
<path d="M6.29415 100.943L2.33496 98.6589V87.9995L6.29415 90.2837V100.943Z" fill="black"/>
<path d="M15.5256 74.2947L11.5664 72.0105V82.6699L15.5256 84.954V74.2947Z" fill="black"/>
<path d="M15.5256 106.279L11.5664 103.995V97.8974L15.5256 95.6133V106.279Z" fill="black"/>
</g>
<g opacity="0.5">
<path d="M15.5259 84.9541L11.5667 82.6699L2.33496 87.9996L6.29415 90.2838L15.5259 84.9541Z" fill="white"/>
<path d="M24.7574 68.9651L20.7982 66.6809L11.5664 72.0106L15.5256 74.2947L24.7574 68.9651Z" fill="white"/>
<path d="M33.9891 74.2948L30.0299 72.0106L24.7383 75.0435L24.7256 79.6435L33.9891 74.2948Z" fill="white"/>
</g>
<path d="M181.876 50.6157C181.708 50.4704 181.527 50.3409 181.336 50.2286C180.664 49.8289 177.618 48.0777 177.459 47.9825C175.848 46.9547 173.297 47.1831 171.026 48.3315C167.771 49.9748 165.062 53.4455 162.993 59.2256C162.993 59.2256 160.899 57.7219 160.22 57.3222C158.539 56.4022 156.572 56.8463 154.358 58.2866C151.864 59.9109 150.164 62.0174 148.609 65.2025V65.2596C147.262 67.9641 146.526 70.9315 146.452 73.9521C146.452 80.6332 149.187 83.8183 152.746 86.2103C153.761 86.8956 156.445 88.3358 156.712 88.5135C158.86 89.9318 161.236 90.9706 163.736 91.5844L167.244 92.4029L170.753 87.5364C173.307 83.9481 175.653 80.2154 177.777 76.3568C181.336 69.8533 184.122 63.483 184.071 56.8273C184.02 53.9784 183.202 51.8846 181.876 50.6157Z" fill="#022C49"/>
<path opacity="0.3" d="M181.876 50.6157C181.708 50.4704 181.527 50.3409 181.336 50.2286C180.664 49.8289 177.618 48.0777 177.459 47.9825C175.848 46.9547 173.297 47.1831 171.026 48.3315C167.771 49.9748 165.062 53.4455 162.993 59.2256C162.993 59.2256 160.899 57.7219 160.22 57.3222C158.539 56.4022 156.572 56.8463 154.358 58.2866C151.864 59.9109 150.164 62.0174 148.609 65.2025V65.2596C147.262 67.9641 146.526 70.9315 146.452 73.9521C146.452 80.6332 149.187 83.8183 152.746 86.2103C153.761 86.8956 156.445 88.3358 156.712 88.5135C158.86 89.9318 161.236 90.9706 163.736 91.5844L167.244 92.4029L170.753 87.5364C173.307 83.9481 175.653 80.2154 177.777 76.3568C181.336 69.8533 184.122 63.483 184.071 56.8273C184.02 53.9784 183.202 51.8846 181.876 50.6157Z" fill="black"/>
<path d="M181.875 50.6157C181.708 50.4704 181.527 50.3409 181.336 50.2286C180.664 49.8289 177.618 48.0777 177.459 47.9825C175.848 46.9547 173.297 47.1831 171.026 48.3315C167.771 49.9748 165.062 53.4455 162.993 59.2256C162.993 59.2256 160.899 57.7219 160.22 57.3222C158.539 56.4022 156.572 56.8463 154.358 58.2866C151.864 59.9109 150.164 62.0174 148.609 65.2025V65.2596C148.539 65.3992 148.482 65.5388 148.419 65.6784L175.067 81.0456C176.013 79.5102 176.933 77.9557 177.808 76.3568C181.368 69.8533 184.153 63.483 184.102 56.8273C184.02 53.9784 183.201 51.8846 181.875 50.6157Z" fill="#022C49"/>
<path opacity="0.15" d="M181.875 50.6157C181.708 50.4704 181.527 50.3409 181.336 50.2286C180.664 49.8289 177.618 48.0777 177.459 47.9825C175.848 46.9547 173.297 47.1831 171.026 48.3315C167.771 49.9748 165.062 53.4455 162.993 59.2256C162.993 59.2256 160.899 57.7219 160.22 57.3222C158.539 56.4022 156.572 56.8463 154.358 58.2866C151.864 59.9109 150.164 62.0174 148.609 65.2025V65.2596C148.539 65.3992 148.482 65.5388 148.419 65.6784L175.067 81.0456C176.013 79.5102 176.933 77.9557 177.808 76.3568C181.368 69.8533 184.153 63.483 184.102 56.8273C184.02 53.9784 183.201 51.8846 181.875 50.6157Z" fill="black"/>
<path d="M162.975 59.2003L166.54 63.8511L172.289 57.0494L165.792 53.2996C164.635 55.1547 163.69 57.1341 162.975 59.2003Z" fill="#022C49"/>
<path opacity="0.3" d="M162.975 59.2003L166.54 63.8511L172.289 57.0494L165.792 53.2996C164.635 55.1547 163.69 57.1341 162.975 59.2003Z" fill="black"/>
<path d="M181.875 50.6157C180.321 49.2262 177.491 49.3468 174.991 50.6157C171.584 52.3415 168.767 56.066 166.66 62.3728C164.554 58.5024 161.737 58.3818 158.33 60.5962C155.83 62.2205 154.129 64.327 152.581 67.5121L152.549 67.5692C151.207 70.2774 150.473 73.2463 150.398 76.268C150.398 82.9491 153.139 86.1343 156.693 88.5263C158.841 89.9446 161.216 90.9833 163.716 91.5972L167.225 92.4157L170.734 87.5492C173.288 83.9609 175.633 80.2281 177.757 76.3695C181.317 69.866 184.102 63.4958 184.052 56.84C184.02 53.9785 183.201 51.8847 181.875 50.6157Z" fill="#022C49"/>
<g opacity="0.07">
<path d="M178.881 49.9812C179.859 49.9364 180.82 50.2449 181.59 50.8504C181.603 50.8778 181.623 50.9017 181.647 50.9202C182.954 52.113 183.684 54.2322 183.69 56.8717C183.69 63.8193 180.517 70.5639 177.44 76.2362C175.332 80.0823 173.001 83.8024 170.461 87.3778L167.092 92.0666L163.811 91.2989C161.349 90.694 159.008 89.6725 156.889 88.2787C153.717 86.1215 150.722 83.2029 150.747 76.2996C150.815 73.331 151.527 70.4126 152.835 67.7468V67.6897C154.396 64.4855 156.077 62.4615 158.463 60.9134C159.571 60.0915 160.893 59.6068 162.27 59.5175C163.881 59.5175 165.207 60.5136 166.324 62.563C166.352 62.6179 166.394 62.6638 166.447 62.6952C166.5 62.7267 166.561 62.7425 166.622 62.7407H166.654C166.719 62.7346 166.782 62.7098 166.833 62.6693C166.885 62.6288 166.924 62.5743 166.946 62.5123C168.957 56.491 171.628 52.7095 175.105 50.9519C176.266 50.3438 177.551 50.0116 178.861 49.9812M178.861 49.6449C177.499 49.673 176.161 50.0161 174.953 50.6474C171.546 52.3732 168.729 56.0976 166.622 62.4044C165.404 60.1583 163.945 59.1749 162.27 59.1749C160.832 59.2694 159.452 59.7736 158.291 60.6278C155.792 62.2521 154.091 64.3586 152.543 67.5437L152.511 67.6008C151.169 70.3091 150.435 73.278 150.36 76.2996C150.36 82.9808 153.101 86.1659 156.654 88.5579C158.803 89.9762 161.178 91.015 163.678 91.6288L167.187 92.4473L170.696 87.5808C173.25 83.9925 175.595 80.2598 177.719 76.4012C181.279 69.8977 184.064 63.5274 184.013 56.8717C184.013 54.0102 183.182 51.8846 181.856 50.6664C181.019 49.9842 179.96 49.6342 178.881 49.683L178.861 49.6449Z" fill="black"/>
</g>
<path d="M181.489 68.6034L174.662 72.5499L172.124 63.3181C172.088 63.1785 172.005 63.0553 171.89 62.9688C171.775 62.8823 171.633 62.8377 171.489 62.8422C171.341 62.8392 171.196 62.8884 171.08 62.9811C170.964 63.0739 170.884 63.2044 170.855 63.3498L166.902 81.4073L163.577 72.3088C163.57 72.1405 163.497 71.9818 163.373 71.8676C163.25 71.7533 163.086 71.6929 162.917 71.6997C162.749 71.7064 162.59 71.7797 162.476 71.9034C162.362 72.0272 162.301 72.1912 162.308 72.3595L160.062 80.335L152.55 84.6749C152.797 85.0342 153.064 85.3794 153.349 85.7091L160.963 81.3248C161.11 81.2394 161.219 81.1009 161.268 80.9378L163.038 74.6437L166.445 83.9452C166.49 84.0754 166.577 84.1872 166.691 84.2639C166.806 84.3406 166.942 84.378 167.08 84.3703C167.22 84.3633 167.355 84.3096 167.462 84.2177C167.568 84.1257 167.642 84.0009 167.67 83.8627L171.54 66.2114L173.583 73.7046C173.607 73.801 173.654 73.8904 173.719 73.9655C173.784 74.0406 173.866 74.0993 173.958 74.137C174.05 74.1746 174.149 74.1902 174.249 74.1823C174.348 74.1744 174.444 74.1434 174.528 74.0917L180.594 70.5957C180.943 69.9294 181.222 69.2696 181.489 68.6034Z" fill="white"/>
<path d="M210.142 238.29C209.882 239.15 209.86 240.065 210.079 240.936C210.333 241.469 211.919 243.22 215.155 243.855C218.391 244.489 222.838 243.855 224.754 243.741C226.671 243.626 232.686 244.375 234.595 244.616C237.603 245.022 239.912 244.362 241.035 243.277C241.217 243.059 241.351 242.805 241.429 242.532C241.506 242.259 241.526 241.972 241.486 241.691C241.479 240.967 241.373 240.248 241.169 239.553L210.142 238.29Z" fill="#263238"/>
<path d="M240.674 236.406C240.731 236.653 240.788 236.907 240.838 237.161C241.131 238.438 241.223 239.752 241.111 241.057C240.724 242.008 239.665 242.535 238.808 242.802C236.543 243.525 234.824 243.436 232.317 242.935C229.797 242.568 227.25 242.411 224.704 242.465C222.73 242.599 220.015 242.979 218.041 242.795C216.363 242.725 214.708 242.387 213.137 241.793C211.823 241.234 210.478 240.524 210.155 239.153C209.768 236.298 210.967 235.042 212.318 234.242C213.67 233.443 215.592 233.506 217.648 233.373C219.507 233.246 220.865 233.246 222.521 233.119C223.953 233.05 225.375 232.852 226.772 232.529C228.041 232.136 229.31 230.543 229.83 230.486C229.83 230.486 238.11 230.423 238.897 230.486C239.811 230.562 240.09 233.392 240.204 234.008C240.293 234.49 240.312 235.01 240.439 235.473C240.521 235.784 240.597 236.095 240.674 236.406Z" fill="#37474F"/>
<path d="M215.161 242.414C214.901 240.359 214.526 235.905 218.333 233.329H218.809C217.099 232.834 215.284 232.834 213.575 233.329C210.548 234.134 209.203 236.583 209.958 239.172C209.971 239.147 210.643 241.653 215.161 242.414Z" fill="#FAFAFA"/>
<path d="M226.208 232.675C224.984 233.76 224.559 236.228 224.559 236.228C224.4 237.155 222.725 237.294 222.884 236.4C223.139 235.17 223.633 234.001 224.337 232.961C224.911 232.658 225.57 232.557 226.208 232.675Z" fill="#FAFAFA"/>
<path d="M222.775 233.1C221.852 234.004 221.248 235.185 221.056 236.463C220.885 237.351 219.489 237.338 219.59 236.463C219.59 236.463 219.749 234.274 221.056 233.252C221.309 233.09 221.598 232.992 221.897 232.965C222.196 232.939 222.498 232.985 222.775 233.1Z" fill="#FAFAFA"/>
<path d="M239.152 224.465C239.152 224.465 238.929 229.788 238.638 231.533C238.46 232.574 237.096 233.665 233.701 233.551C231.316 233.468 229.438 233.665 229.533 231.799L229.742 226.362L239.152 224.465Z" fill="#FFA8A7"/>
<path d="M244.474 211.889C244.353 213.342 244.157 214.656 244.753 216.255C245.603 218.552 247.405 219.605 248.465 220.506C249.58 221.61 250.608 222.798 251.542 224.059C252.583 225.328 252.856 226.083 254.416 227.466C255.194 228.065 256.114 228.452 257.086 228.588C258.058 228.725 259.049 228.607 259.962 228.246C261.313 227.669 261.783 227.212 261.7 225.137C261.618 223.063 255.006 222.358 255.006 222.358L244.474 211.889Z" fill="#263238"/>
<path d="M260.844 218.958C261.409 219.161 261.548 220.182 261.637 222.212C261.7 223.748 262.379 226.019 260.152 226.965C258.357 227.745 255.489 227.225 254.277 225.778C252.767 223.97 251.739 222.377 249.582 220.176C247.678 218.272 245.775 217.638 244.931 213.799C244.392 211.337 244.817 210.322 246.555 209.618C248.947 208.647 252.697 211.813 254.575 212.314C256.187 212.74 260.279 218.755 260.844 218.958Z" fill="#37474F"/>
<path d="M254.575 212.315L254.258 212.207C253.188 212.247 252.148 212.566 251.239 213.132C250.331 213.699 249.587 214.493 249.081 215.436C248.763 216.102 249.715 216.623 250.35 216.102C251.682 213.564 254.423 213.019 255.521 212.898C255.25 212.639 254.928 212.44 254.575 212.315Z" fill="#FAFAFA"/>
<path d="M256.118 213.469C255.114 213.563 254.149 213.905 253.309 214.465C252.47 215.024 251.782 215.783 251.309 216.673C250.991 217.308 251.975 217.86 252.578 217.308C253.03 216.514 253.651 215.828 254.396 215.299C255.142 214.77 255.993 214.409 256.892 214.243C256.619 213.99 256.365 213.717 256.118 213.469Z" fill="#FAFAFA"/>
<path d="M261.168 215.29L260.845 219.573C260.845 219.573 258.123 221.559 254.221 219.738C254.106 219.503 253.776 215.671 253.776 215.671L261.168 215.29Z" fill="#FFA8A7"/>
<path d="M246.029 216.623C246.029 216.623 246.213 212.073 252.679 211.445L253.053 211.642C252.317 210.501 251.188 209.67 249.881 209.307C247.736 208.755 246.036 209.307 244.906 210.665C243.777 212.023 244.913 215.741 246.029 216.623Z" fill="#FAFAFA"/>
<path d="M263.052 186.764C262.126 179.27 261.783 175.096 261.783 175.096C261.783 175.096 261.599 164.544 262.24 154.792C262.519 150.516 262.665 145.782 262.754 141.468C262.872 136.717 262.494 131.966 261.625 127.293C261.625 127.293 228.448 120.695 228.035 132.864C227.534 147.457 227.597 172.399 227.033 181.923C226.722 187.271 227.261 191.706 227.597 202.099C227.87 210.716 227.788 231.92 227.788 231.92C231.442 236.939 240.071 233.113 240.071 233.113C240.071 233.113 242.736 203.337 243.129 197.182C243.548 190.564 242.85 187.214 242.85 187.214L246.27 156.385C246.27 156.385 246.53 166.276 246.822 171.612C247.114 176.948 247.894 180.229 249.284 190.184C250.49 198.825 253.053 220.88 253.053 220.88C257.494 223.507 261.783 220.88 261.783 220.88C261.783 220.88 263.979 194.257 263.052 186.764Z" fill="#455A64"/>
<path d="M258.522 144.183C258.522 144.183 254.366 149.488 249.005 151.765C249.005 151.765 246.682 170.413 246.701 170.045L246.099 151.277C246.099 151.277 254.08 147.749 258.522 144.183Z" fill="#37474F"/>
<path d="M258.408 84.2435C261.98 83.4441 266.022 85.9947 268.712 91.6861C271.314 97.1299 278.42 110.879 278.591 114.731C278.775 118.722 261.022 130.827 261.46 130.593C261.6 130.523 258.396 121.437 258.396 121.437L267.018 114.299L262.329 104.642L258.408 84.2435Z" fill="#FFA8A7"/>
<path d="M256.53 83.3869C259.538 83.0189 264.988 84.1546 267.069 87.7712C270.089 93.0057 272.843 99.0587 276.352 106.882C276.352 106.882 273.75 112.516 266.263 113.049L261.777 105.181L256.53 83.3869Z" fill="#37474F"/>
<path d="M241.391 78.6727L241.911 89.7762L252.913 89.1861L252.577 76.287L241.391 78.6727Z" fill="#FFA8A7"/>
<path d="M263.718 88.9768C262.792 85.9503 259.594 83.4567 255.553 83.3362C254.652 83.3362 252.761 83.3362 252.761 83.3362C252.304 85.2079 246.575 85.8741 241.676 84.7511C240.198 85.1445 234.063 86.6545 232.794 87.0352C229.272 88.2027 228.187 91.7939 227.642 103.278C227.642 103.278 227.749 125.917 227.642 136.722C233.834 139.989 243.402 139.583 250.21 138.892C260.908 137.813 262.5 133.936 262.5 133.936C262.05 127.636 262.323 125.263 262.5 119.045C262.633 114.369 263.979 109.426 264.404 104.128C265.032 96.2543 264.347 91.0579 263.718 88.9768Z" fill="#022C49"/>
<path d="M239.671 80.7793C237.133 80.6016 233.961 82.6257 233.143 86.9592L235.211 86.4072L239.671 80.7793Z" fill="#022C49"/>
<path opacity="0.3" d="M239.671 80.7793C237.133 80.6016 233.961 82.6257 233.143 86.9592L235.211 86.4072L239.671 80.7793Z" fill="black"/>
<path d="M241.53 81.7057C243.434 82.3402 248.986 82.2513 250.845 81.7057C252.704 81.16 252.685 80.3352 252.685 80.3352V79.4025C253.757 79.3995 254.804 79.725 255.686 80.3352C256.872 81.2996 258.915 84.7766 258.858 86.4453C258.801 88.114 255.235 92.5173 248.358 92.4094C241.48 92.3016 237.616 89.7573 236.429 88.0823L235.236 86.4009C235.236 86.4009 236.867 83.0508 238.472 81.6422C239.295 80.8444 240.351 80.3289 241.486 80.1702L241.53 81.7057Z" fill="#022C49"/>
<path opacity="0.2" d="M241.53 81.7057C243.434 82.3402 248.986 82.2513 250.845 81.7057C252.704 81.16 252.685 80.3352 252.685 80.3352V79.4025C253.757 79.3995 254.804 79.725 255.686 80.3352C256.872 81.2996 258.915 84.7766 258.858 86.4453C258.801 88.114 255.235 92.5173 248.358 92.4094C241.48 92.3016 237.616 89.7573 236.429 88.0823L235.236 86.4009C235.236 86.4009 236.867 83.0508 238.472 81.6422C239.295 80.8444 240.351 80.3289 241.486 80.1702L241.53 81.7057Z" fill="black"/>
<path d="M233.986 65.0566C233.986 65.0566 231.366 69.0349 231.664 69.4219C231.962 69.8089 233.891 70.1706 233.891 70.1706L233.986 65.0566Z" fill="#F28F8F"/>
<path d="M241.27 54.0419C235.966 55.1649 233.847 56.7194 233.517 65.7862C233.2 74.6056 234.31 77.5115 235.465 78.698C236.245 79.4975 240.591 79.6434 242.78 79.0343C245.521 78.2792 251.72 76.0839 254.62 71.6552C258.033 66.4397 258.928 59.3716 255.254 56.472C250.134 52.3922 243.434 53.5851 241.27 54.0419Z" fill="#FFA8A7"/>
<path d="M235.465 78.6917C236.099 79.3262 239.139 79.5673 241.423 79.2881L241.391 77.9747C239.499 78.6729 237.469 78.9184 235.465 78.6917Z" fill="#F28F8F"/>
<path d="M232.812 57.4491C234.134 58.3965 235.773 58.7904 237.38 58.5468C237.349 59.2577 237.539 59.9608 237.926 60.5581C238.465 61.3726 239.281 61.9635 240.223 62.2205C239.642 63.3587 239.334 64.6163 239.322 65.8942C239.286 66.2952 239.373 66.6977 239.569 67.0489C239.63 67.1765 239.726 67.2843 239.846 67.3597C239.965 67.4352 240.104 67.4752 240.245 67.4752C240.387 67.4752 240.525 67.4352 240.645 67.3597C240.764 67.2843 240.86 67.1765 240.921 67.0489C241.219 66.3739 241.594 65.7353 242.038 65.1455C242.613 64.4572 243.421 64.0054 244.309 63.8765C247.64 63.5148 248.059 67.8738 246.726 69.682C244.544 72.6387 242.691 70.6338 242.691 70.6338C242.606 72.0198 242.817 73.408 243.309 74.7064C243.801 76.0049 244.564 77.1838 245.546 78.1651C247.914 78.8628 250.424 78.9263 252.824 78.3491C255.781 74.2821 257.64 72.3025 259.219 68.7938C262.557 61.3639 260.945 56.7005 258.363 54.7336C257.855 51.3137 255.159 49.7782 252.082 49.0739C247.488 48.0143 243.199 50.7426 238.643 49.7084C237.895 49.5519 237.156 49.3571 236.429 49.1247C236.148 48.9933 235.829 48.9729 235.534 49.0676C235.371 49.1761 235.243 49.3301 235.166 49.5105C235.09 49.6909 235.067 49.8899 235.103 50.0828C235.16 50.9584 236.048 51.9291 236.499 52.3986C235.504 52.4897 234.501 52.4319 233.523 52.2273C233.183 52.1637 232.835 52.1637 232.495 52.2273C232.122 52.3791 231.807 52.6451 231.595 52.9871C231.383 53.3291 231.285 53.7295 231.315 54.1308C231.319 54.7578 231.454 55.3771 231.712 55.9487C231.97 56.5203 232.345 57.0314 232.812 57.4491Z" fill="#263238"/>
<path d="M258.446 55.8376L261.619 53.9341C261.366 53.5134 260.957 53.2102 260.481 53.0912C260.005 52.9723 259.501 53.0472 259.081 53.2996C258.66 53.552 258.357 53.9612 258.238 54.4372C258.119 54.9132 258.194 55.4169 258.446 55.8376Z" fill="#263238"/>
<path d="M217.103 105.816C216.384 102.99 215.69 100.161 215.022 97.3266C214.387 94.7189 213.41 91.6987 214.305 89.0339C214.813 87.87 215.452 86.7675 216.208 85.7472C216.863 84.6719 217.415 83.5375 217.858 82.3591C218.08 81.788 218.283 81.2043 218.492 80.6269C218.702 80.0495 219 79.7196 218.86 79.1676C218.397 77.3593 216.062 79.7323 215.586 80.4747C215.375 80.8643 215.129 81.2339 214.85 81.5787C214.546 81.9022 213.804 82.3083 213.448 81.8324C213.33 81.6415 213.264 81.4226 213.258 81.198C213.017 78.4126 214.019 75.919 214.85 73.3177C214.982 72.9761 215.061 72.6168 215.085 72.2517C215.1 72.0694 215.076 71.886 215.013 71.7141C214.951 71.5422 214.852 71.3857 214.724 71.2556C214.517 71.0969 214.272 70.9957 214.013 70.9623C213.755 70.9289 213.492 70.9644 213.252 71.0652C212.782 71.2238 212.376 71.5221 211.906 71.668C211.437 71.8139 211.088 71.8139 210.676 71.9218C209.697 72.1399 208.755 72.4967 207.877 72.9814C206.355 73.876 205.682 75.183 205.282 76.8454C204.802 78.8873 204.64 80.991 204.8 83.0824C204.908 84.4719 205.156 85.8424 205.327 87.2129L205.898 91.8002C206.285 94.8584 206.399 110.137 206.926 113.176C207.452 116.215 208.468 118.252 210.872 119.261C214.362 120.682 220.003 114.261 223.207 110.936L217.103 105.816Z" fill="#FFA8A7"/>
<path d="M215.828 104.084C213.582 105.765 210.784 108.563 210.219 111.368C210.219 111.368 209.661 106.324 215.828 101.85V104.084Z" fill="#F28F8F"/>
<path d="M232.616 87.105C230.459 87.308 226.906 87.3842 223.289 91.2736C219.095 95.8165 212.63 104.775 212.63 104.775C212.63 104.775 213.474 111.907 220.339 114.464C220.339 114.464 230.319 104.947 232.464 100.848C234.608 96.7492 235.091 89.9538 232.616 87.105Z" fill="#37474F"/>
<path d="M229.741 72.0296L227.013 70.5639L228.58 69.2252L222.914 66.573L225.389 65.1391L219.285 61.8905L222.914 65.0947L219.964 66.573L226.62 69.4536L224.976 71.0969L229.741 72.0296Z" fill="#022C49"/>
<path d="M231.131 68.432L229.355 66.7316L230.325 66.0146L228.765 64.1619L230.262 63.6544L229.742 61.3068L230.795 63.8384L229.742 64.2952L231.429 66.1479L230.287 66.96L231.131 68.432Z" fill="#022C49"/>
<path d="M230.097 74.7135L226.747 77.3275L225.51 75.5066L222.579 77.0991L221.379 74.8467L216.843 76.0078L222.09 73.4952L223.594 75.57L226.03 74.263L227.045 76.0078L230.097 74.7135Z" fill="#022C49"/>
<path d="M206.805 121.494C206.907 121.41 207.038 121.369 207.17 121.381C207.302 121.392 207.424 121.456 207.51 121.558C208.158 122.286 209.001 122.815 209.939 123.083C210.877 123.35 211.872 123.345 212.807 123.068C212.871 123.045 212.939 123.036 213.006 123.04C213.074 123.045 213.14 123.063 213.2 123.093C213.261 123.124 213.314 123.166 213.358 123.218C213.401 123.27 213.434 123.33 213.454 123.394C213.473 123.459 213.48 123.527 213.473 123.594C213.465 123.662 213.444 123.727 213.411 123.786C213.378 123.845 213.333 123.896 213.28 123.938C213.226 123.979 213.165 124.009 213.099 124.026C211.978 124.358 210.784 124.362 209.66 124.038C208.536 123.715 207.528 123.076 206.754 122.198C206.711 122.149 206.678 122.092 206.657 122.029C206.636 121.967 206.627 121.901 206.632 121.836C206.637 121.77 206.655 121.706 206.684 121.648C206.714 121.589 206.755 121.537 206.805 121.494Z" fill="#E0E0E0"/>
<path d="M207.313 124.851C207.402 124.776 207.514 124.735 207.63 124.735C207.746 124.735 207.859 124.776 207.948 124.851C208.464 125.224 209.056 125.48 209.682 125.6C210.308 125.721 210.952 125.703 211.57 125.548C211.702 125.524 211.837 125.553 211.947 125.627C212.058 125.702 212.134 125.817 212.161 125.948C212.173 126.012 212.173 126.078 212.161 126.143C212.148 126.207 212.122 126.268 212.086 126.322C212.049 126.376 212.002 126.423 211.947 126.459C211.893 126.495 211.831 126.52 211.767 126.532C211.003 126.709 210.209 126.717 209.441 126.553C208.674 126.39 207.952 126.06 207.326 125.587C207.276 125.544 207.235 125.492 207.205 125.433C207.175 125.375 207.157 125.311 207.153 125.245C207.148 125.179 207.156 125.114 207.177 125.051C207.198 124.989 207.232 124.932 207.275 124.882C207.286 124.87 207.299 124.859 207.313 124.851Z" fill="#E0E0E0"/>
<path d="M269.613 86.3944C269.554 86.4248 269.49 86.4431 269.424 86.4484C269.358 86.4537 269.292 86.4457 269.23 86.425C269.167 86.4043 269.109 86.3713 269.059 86.3279C269.01 86.2845 268.969 86.2316 268.94 86.1723C268.477 85.3137 267.78 84.604 266.93 84.1256C266.08 83.6472 265.111 83.4197 264.137 83.4694C264.071 83.4731 264.005 83.4639 263.943 83.4422C263.881 83.4204 263.823 83.3867 263.774 83.3428C263.675 83.2541 263.615 83.1296 263.607 82.9967C263.6 82.8638 263.645 82.7333 263.734 82.6339C263.823 82.5346 263.947 82.4745 264.08 82.4669C265.249 82.4057 266.412 82.6795 267.432 83.256C268.451 83.8326 269.285 84.688 269.835 85.7218C269.893 85.8408 269.902 85.9776 269.86 86.1032C269.819 86.2289 269.73 86.3333 269.613 86.3944Z" fill="#E0E0E0"/>
<path d="M269.892 83.0316C269.786 83.0875 269.663 83.1029 269.546 83.0749C269.429 83.0469 269.327 82.9774 269.257 82.8794C268.848 82.4008 268.34 82.016 267.769 81.7511C267.197 81.4862 266.575 81.3473 265.945 81.3439C265.88 81.3414 265.815 81.326 265.755 81.2985C265.695 81.271 265.641 81.232 265.597 81.1836C265.552 81.1353 265.517 81.0787 265.494 81.0169C265.471 80.9551 265.461 80.8895 265.463 80.8236C265.466 80.7578 265.481 80.6931 265.509 80.6333C265.536 80.5734 265.575 80.5195 265.624 80.4748C265.672 80.43 265.728 80.3952 265.79 80.3723C265.852 80.3494 265.918 80.3389 265.984 80.3414C266.766 80.3493 267.537 80.5283 268.243 80.8659C268.949 81.2035 269.572 81.6915 270.07 82.2956C270.141 82.403 270.168 82.5341 270.144 82.6609C270.12 82.7877 270.048 82.9002 269.943 82.9745L269.892 83.0316Z" fill="#E0E0E0"/>
<path d="M278.762 119.603C278.698 119.487 278.683 119.351 278.72 119.223C278.757 119.096 278.843 118.989 278.958 118.924C279.794 118.422 280.47 117.692 280.907 116.821C281.344 115.949 281.524 114.971 281.427 114.001C281.419 113.935 281.424 113.869 281.442 113.805C281.46 113.742 281.491 113.683 281.532 113.631C281.574 113.58 281.625 113.537 281.683 113.506C281.741 113.474 281.805 113.455 281.871 113.449C282.003 113.435 282.135 113.473 282.239 113.557C282.342 113.64 282.408 113.761 282.423 113.893C282.536 115.053 282.318 116.222 281.793 117.263C281.269 118.304 280.459 119.175 279.46 119.775C279.403 119.81 279.339 119.834 279.273 119.845C279.207 119.855 279.14 119.852 279.074 119.836C279.009 119.82 278.948 119.792 278.894 119.752C278.841 119.711 278.796 119.661 278.762 119.603Z" fill="#E0E0E0"/>
<path d="M282.131 119.724C282.074 119.621 282.055 119.501 282.077 119.385C282.099 119.269 282.161 119.165 282.251 119.089C282.712 118.659 283.073 118.134 283.311 117.55C283.549 116.966 283.657 116.337 283.628 115.708C283.628 115.575 283.681 115.447 283.775 115.353C283.869 115.259 283.997 115.206 284.13 115.206C284.262 115.206 284.39 115.259 284.484 115.353C284.578 115.447 284.631 115.575 284.631 115.708C284.658 116.489 284.516 117.267 284.213 117.987C283.911 118.708 283.456 119.355 282.88 119.883C282.828 119.923 282.769 119.954 282.705 119.972C282.642 119.99 282.576 119.995 282.51 119.987C282.445 119.98 282.382 119.959 282.324 119.927C282.267 119.895 282.216 119.852 282.175 119.8L282.131 119.724Z" fill="#E0E0E0"/>
<path d="M223.765 180.051C223.883 180.111 223.973 180.215 224.016 180.341C224.059 180.466 224.051 180.604 223.993 180.723C223.591 181.612 223.451 182.596 223.588 183.561C223.725 184.526 224.134 185.432 224.767 186.174C224.853 186.276 224.895 186.408 224.884 186.541C224.874 186.674 224.811 186.797 224.71 186.884C224.61 186.97 224.479 187.013 224.348 187.004C224.216 186.994 224.093 186.933 224.006 186.833C223.245 185.941 222.755 184.851 222.593 183.69C222.431 182.529 222.604 181.345 223.092 180.279C223.152 180.161 223.256 180.071 223.382 180.028C223.508 179.985 223.645 179.993 223.765 180.051Z" fill="#E0E0E0"/>
<path d="M220.923 181.859C221.031 181.91 221.117 181.999 221.166 182.108C221.215 182.217 221.223 182.341 221.189 182.456C221.056 183.072 221.058 183.71 221.195 184.325C221.332 184.941 221.6 185.52 221.982 186.021C222.057 186.13 222.086 186.264 222.064 186.395C222.041 186.525 221.969 186.642 221.862 186.719C221.753 186.796 221.619 186.826 221.488 186.803C221.357 186.781 221.24 186.707 221.164 186.599C220.693 185.971 220.366 185.249 220.203 184.482C220.041 183.715 220.048 182.921 220.225 182.157C220.244 182.094 220.276 182.034 220.319 181.983C220.361 181.932 220.414 181.89 220.473 181.859C220.532 181.829 220.596 181.81 220.663 181.804C220.729 181.799 220.796 181.807 220.859 181.827L220.923 181.859Z" fill="#E0E0E0"/>
<path d="M186.475 5.8527C186.444 5.26106 186.273 4.68523 185.977 4.17239C185.68 3.65956 185.266 3.22432 184.769 2.90234L183.385 2.09654C182.857 1.83188 182.273 1.69409 181.682 1.69409C181.09 1.69409 180.507 1.83188 179.978 2.09654L147.842 20.6679C147.345 20.9907 146.931 21.4261 146.635 21.9388C146.338 22.4515 146.167 23.0269 146.135 23.6183V40.2355C146.167 40.8268 146.339 41.402 146.636 41.9146C146.932 42.4272 147.345 42.8627 147.842 43.1859L149.231 43.9853C149.759 44.2544 150.342 44.3946 150.935 44.3946C151.527 44.3946 152.111 44.2544 152.638 43.9853L184.769 25.4202C185.266 25.0983 185.68 24.663 185.977 24.1502C186.273 23.6374 186.444 23.0615 186.475 22.4699V5.8527Z" fill="#022C49"/>
<path opacity="0.5" d="M186.475 5.8527C186.444 5.26106 186.273 4.68523 185.977 4.17239C185.68 3.65956 185.266 3.22432 184.769 2.90234L183.385 2.09654C182.857 1.83188 182.273 1.69409 181.682 1.69409C181.09 1.69409 180.507 1.83188 179.978 2.09654L147.842 20.6679C147.345 20.9907 146.931 21.4261 146.635 21.9388C146.338 22.4515 146.167 23.0269 146.135 23.6183V40.2355C146.167 40.8268 146.339 41.402 146.636 41.9146C146.932 42.4272 147.345 42.8627 147.842 43.1859L149.231 43.9853C149.759 44.2544 150.342 44.3946 150.935 44.3946C151.527 44.3946 152.111 44.2544 152.638 43.9853L184.769 25.4202C185.266 25.0983 185.68 24.663 185.977 24.1502C186.273 23.6374 186.444 23.0615 186.475 22.4699V5.8527Z" fill="white"/>
<path opacity="0.2" d="M146.135 40.2355C146.167 40.8267 146.339 41.402 146.636 41.9146C146.932 42.4272 147.345 42.8627 147.842 43.1858L149.231 43.9853C149.711 44.2271 150.237 44.3646 150.774 44.3887C151.311 44.4128 151.847 44.3228 152.346 44.1249C151.541 44.4294 150.931 43.9789 150.931 43.0018V26.3846C150.952 25.7905 151.125 25.2116 151.433 24.7032L146.636 21.9369C146.327 22.4449 146.155 23.024 146.135 23.6183V40.2355Z" fill="black"/>
<path opacity="0.3" d="M186.418 5.37053C186.222 4.64722 185.562 4.41246 184.775 4.86929L152.638 23.4343C152.133 23.7447 151.717 24.1822 151.433 24.7033L146.643 21.937C146.926 21.4175 147.339 20.9803 147.842 20.668L179.972 2.10293C180.5 1.83387 181.083 1.6936 181.676 1.6936C182.268 1.6936 182.852 1.83387 183.379 2.10293L184.775 2.90238C185.202 3.18129 185.567 3.54383 185.85 3.96806C186.132 4.39228 186.326 4.86939 186.418 5.37053Z" fill="white"/>
<path d="M150.938 31.7588L146.148 28.9924L140.374 34.5505C140.287 34.6379 140.221 34.744 140.181 34.8606C140.141 34.9772 140.129 35.1014 140.144 35.2236C140.159 35.3459 140.202 35.4631 140.269 35.5663C140.337 35.6696 140.427 35.7561 140.532 35.8195L145.247 38.5605C145.442 38.6626 145.661 38.7087 145.881 38.6937L150.957 37.723V31.7588H150.938Z" fill="#022C49"/>
<path opacity="0.5" d="M150.938 31.7588L146.148 28.9924L140.374 34.5505C140.287 34.6379 140.221 34.744 140.181 34.8606C140.141 34.9772 140.129 35.1014 140.144 35.2236C140.159 35.3459 140.202 35.4631 140.269 35.5663C140.337 35.6696 140.427 35.7561 140.532 35.8195L145.247 38.5605C145.442 38.6626 145.661 38.7087 145.881 38.6937L150.957 37.723V31.7588H150.938Z" fill="white"/>
<path opacity="0.3" d="M145.247 38.5605L142.709 37.1075L142.411 36.9108L141.053 36.124L140.888 36.0225L140.526 35.8131C140.421 35.7498 140.331 35.6632 140.264 35.56C140.196 35.4568 140.153 35.3396 140.138 35.2173C140.123 35.095 140.136 34.9709 140.175 34.8543C140.215 34.7376 140.281 34.6316 140.368 34.5442L146.142 28.9861L150.938 31.7588L145.165 37.2915C145.073 37.373 145.001 37.4743 144.954 37.5877C144.908 37.7012 144.888 37.8238 144.896 37.9461C144.904 38.0685 144.939 38.1875 145 38.294C145.061 38.4004 145.146 38.4916 145.247 38.5605Z" fill="white"/>
<path d="M160.323 26.6512C159.66 27.0824 159.108 27.664 158.712 28.3486C158.316 29.0333 158.088 29.8017 158.045 30.5913C158.045 32.038 159.066 32.628 160.323 31.9047C160.985 31.4732 161.536 30.8914 161.93 30.2067C162.325 29.522 162.553 28.7538 162.594 27.9646C162.594 26.5053 161.579 25.9279 160.323 26.6512Z" fill="white"/>
<path d="M168.704 21.8037C168.042 22.2352 167.491 22.817 167.096 23.5017C166.702 24.1864 166.474 24.9546 166.433 25.7439C166.433 27.1905 167.448 27.7806 168.704 27.0509C169.365 26.62 169.916 26.0392 170.31 25.3557C170.705 24.6722 170.933 23.9052 170.976 23.1171C170.963 21.6641 169.96 21.074 168.704 21.8037Z" fill="white"/>
<path d="M177.086 16.9498C176.425 17.3825 175.875 17.9645 175.48 18.649C175.086 19.3335 174.858 20.1011 174.814 20.89C174.814 22.343 175.83 22.9267 177.086 22.2034C177.75 21.7716 178.302 21.189 178.698 20.5031C179.094 19.8173 179.322 19.0476 179.364 18.2569C179.364 16.8166 178.342 16.2265 177.086 16.9498Z" fill="white"/>
<path d="M248.332 38.4272L246.029 34.119L247.881 28.7703V25.4773L242.209 28.7512V32.0252L244.645 36.2509C244.686 36.314 244.743 36.3646 244.81 36.3968L248.332 38.4272Z" fill="#022C49"/>
<path opacity="0.2" d="M248.332 38.4272L246.029 34.119L247.881 28.7703V25.4773L242.209 28.7512V32.0252L244.645 36.2509C244.686 36.314 244.743 36.3646 244.81 36.3968L248.332 38.4272Z" fill="black"/>
<path d="M265.558 4.15871C265.526 3.56873 265.356 2.99453 265.061 2.48292C264.765 1.97131 264.353 1.53676 263.858 1.2147L262.474 0.415244C261.948 0.146243 261.365 0.00598145 260.774 0.00598145C260.183 0.00598145 259.6 0.146243 259.073 0.415244L227.013 18.9359C226.52 19.2619 226.11 19.6982 225.814 20.2103C225.519 20.7224 225.347 21.2962 225.312 21.8862V38.4654C225.344 39.0553 225.514 39.6295 225.81 40.1412C226.105 40.6528 226.518 41.0873 227.013 41.4094L228.396 42.2088C228.924 42.4725 229.506 42.6097 230.097 42.6097C230.687 42.6097 231.269 42.4725 231.797 42.2088L245.756 34.0874L248.192 38.3004C248.227 38.3567 248.277 38.4021 248.337 38.4314C248.396 38.4607 248.463 38.4728 248.529 38.4662C248.595 38.4596 248.658 38.4346 248.711 38.3941C248.763 38.3536 248.803 38.2991 248.827 38.2369L251.403 30.8198L263.826 23.6818C264.321 23.3598 264.733 22.9252 265.029 22.4136C265.324 21.902 265.495 21.3278 265.526 20.7378L265.558 4.15871Z" fill="#022C49"/>
<path d="M234.919 25.0967L260.553 10.2941C261.314 9.85634 261.929 10.1672 261.929 10.9921C261.895 11.4532 261.752 11.8997 261.513 12.2954C261.274 12.6912 260.945 13.025 260.553 13.2699L234.919 28.0724C234.164 28.5102 233.549 28.1993 233.549 27.3745C233.583 26.9141 233.725 26.4681 233.963 26.0725C234.201 25.6769 234.529 25.3427 234.919 25.0967Z" fill="white"/>
<path d="M234.919 31.689L260.553 16.8928C261.314 16.455 261.929 16.7659 261.929 17.5844C261.896 18.0467 261.754 18.4944 261.514 18.8913C261.275 19.2883 260.946 19.6231 260.553 19.8686L234.919 34.6648C234.164 35.1089 233.549 34.7917 233.549 33.9732C233.582 33.5117 233.724 33.0644 233.962 32.6676C234.2 32.2709 234.528 31.9356 234.919 31.689Z" fill="white"/>
<path opacity="0.2" d="M225.312 38.4653C225.344 39.0553 225.514 39.6295 225.81 40.1411C226.105 40.6527 226.518 41.0873 227.013 41.4094L228.396 42.2088C228.875 42.4498 229.4 42.5868 229.936 42.6108C230.471 42.6349 231.006 42.5454 231.505 42.3484C230.706 42.6466 230.097 42.1961 230.097 41.2253V24.6462C230.117 24.055 230.287 23.4786 230.591 22.9712L225.807 20.2048C225.503 20.7145 225.333 21.293 225.312 21.8862V38.4653Z" fill="black"/>
<path opacity="0.2" d="M265.501 3.66371C265.304 2.9404 264.644 2.71198 263.857 3.16246L231.797 21.6895C231.292 21.9993 230.878 22.4371 230.597 22.9584L225.813 20.1984C226.098 19.6798 226.511 19.2429 227.013 18.9294L259.067 0.402452C259.596 0.137793 260.179 0 260.77 0C261.362 0 261.945 0.137793 262.474 0.402452L263.857 1.2019C264.284 1.47871 264.65 1.83985 264.933 2.26318C265.216 2.6865 265.409 3.16309 265.501 3.66371Z" fill="white"/>
</svg>
