<svg width="26" height="26" viewBox="0 0 26 26" fill="none" xmlns="http://www.w3.org/2000/svg">
<path fill-rule="evenodd" clip-rule="evenodd" d="M20.753 5.659C20.8395 5.56011 20.9056 5.44516 20.9477 5.32071C20.9897 5.19626 21.0069 5.06475 20.9981 4.93368C20.9893 4.80261 20.9548 4.67455 20.8965 4.55682C20.8383 4.43908 20.7574 4.33398 20.6585 4.2475C20.5596 4.16102 20.4447 4.09487 20.3202 4.05282C20.1958 4.01077 20.0642 3.99364 19.9332 4.00242C19.8021 4.01119 19.6741 4.0457 19.5563 4.10396C19.4386 4.16223 19.3335 4.24311 19.247 4.342L14.137 10.182L9.8 4.4C9.70685 4.2758 9.58607 4.175 9.44721 4.10557C9.30836 4.03614 9.15525 4 9 4H5C4.81429 4 4.63225 4.05171 4.47427 4.14935C4.31629 4.24698 4.18863 4.38668 4.10557 4.55279C4.02252 4.71889 3.98736 4.90484 4.00404 5.08981C4.02072 5.27477 4.08857 5.45143 4.2 5.6L10.637 14.182L5.247 20.342C5.16053 20.4409 5.09437 20.5558 5.05232 20.6803C5.01027 20.8047 4.99314 20.9363 5.00192 21.0673C5.01069 21.1984 5.0452 21.3264 5.10347 21.4442C5.16173 21.5619 5.24261 21.667 5.3415 21.7535C5.44039 21.84 5.55534 21.9061 5.67979 21.9482C5.80424 21.9902 5.93575 22.0074 6.06682 21.9986C6.19789 21.9898 6.32595 21.9553 6.44368 21.897C6.56142 21.8388 6.66652 21.7579 6.753 21.659L11.863 15.818L16.2 21.6C16.2931 21.7242 16.4139 21.825 16.5528 21.8944C16.6916 21.9639 16.8448 22 17 22H21C21.1857 22 21.3678 21.9483 21.5257 21.8507C21.6837 21.753 21.8114 21.6133 21.8944 21.4472C21.9775 21.2811 22.0126 21.0952 21.996 20.9102C21.9793 20.7252 21.9114 20.5486 21.8 20.4L15.363 11.818L20.753 5.659ZM17.5 20L7 6H8.5L19 20H17.5Z" fill="black"/>
<path d="M22.4054 1H3.59459C2.16164 1 1 2.16164 1 3.59459V22.4054C1 23.8384 2.16164 25 3.59459 25H22.4054C23.8384 25 25 23.8384 25 22.4054V3.59459C25 2.16164 23.8384 1 22.4054 1Z" stroke="black" stroke-linecap="round" stroke-linejoin="round"/>
<path d="M22.4054 1H3.59459C2.16164 1 1 2.16164 1 3.59459V22.4054C1 23.8384 2.16164 25 3.59459 25H22.4054C23.8384 25 25 23.8384 25 22.4054V3.59459C25 2.16164 23.8384 1 22.4054 1Z" stroke="black" stroke-linecap="round" stroke-linejoin="round"/>
</svg>
