<svg width="23" height="23" viewBox="0 0 23 23" fill="none" xmlns="http://www.w3.org/2000/svg">
<path d="M21.7666 9.22496C21.7153 9.4153 21.619 9.58653 21.4891 9.72397L21.4151 9.79096L16.9266 13.8565L16.7112 14.0517L16.7742 14.3355L18.1188 20.3883L18.119 20.3896C18.1694 20.6137 18.1549 20.8483 18.0779 21.0632C18.0008 21.2781 17.8655 21.4617 17.6916 21.593C17.5179 21.724 17.313 21.7977 17.1026 21.8071C16.8925 21.8165 16.683 21.7617 16.5001 21.6475C16.4999 21.6474 16.4996 21.6472 16.4994 21.6471L11.414 18.4458L11.1473 18.278L10.8808 18.4461L5.80679 21.6471C5.80654 21.6472 5.8063 21.6474 5.80606 21.6475C5.62312 21.7617 5.4137 21.8165 5.2036 21.8071C4.99318 21.7977 4.78826 21.724 4.6146 21.593C4.4407 21.4617 4.30536 21.2781 4.22831 21.0632C4.15122 20.8483 4.13673 20.6137 4.18712 20.3896L4.18741 20.3883L5.52998 14.3417L5.59294 14.0581L5.37777 13.8629L0.888277 9.79118L0.888284 9.79117L0.885851 9.789C0.722033 9.64236 0.601295 9.44662 0.541589 9.22495L0.0587964 9.355L0.541589 9.22495C0.481858 9.0032 0.486582 8.76777 0.555018 8.549C0.62342 8.33034 0.751646 8.1403 0.920786 8.00113C1.0897 7.86213 1.29219 7.77965 1.50247 7.76132L1.5038 7.7612L7.42144 7.22925L7.72582 7.20189L7.84028 6.91854L10.1502 1.20036L10.1505 1.19959C10.2354 0.988464 10.3774 0.811086 10.5558 0.687712C10.7339 0.564505 10.9412 0.5 11.1516 0.5C11.362 0.5 11.5692 0.564505 11.7474 0.687712C11.9258 0.811085 12.0678 0.988463 12.1527 1.19959L12.1532 1.20084L14.4701 6.91902L14.5847 7.20191L14.8887 7.22925L20.8043 7.7612L20.8057 7.76132C21.016 7.77965 21.2185 7.86213 21.3874 8.00113C21.5565 8.1403 21.6847 8.33034 21.7531 8.549C21.8216 8.76777 21.8263 9.0032 21.7666 9.22495L22.2494 9.355L21.7666 9.22496Z" fill="#FFFF00" stroke="black"/>
</svg>
