<svg width="67" height="43" viewBox="0 0 67 43" fill="none" xmlns="http://www.w3.org/2000/svg">
<path d="M61.6123 42.4635H4.40088C3.23369 42.4635 2.11431 42.0161 1.28899 41.2197C0.463663 40.4233 0 39.3431 0 38.2168L0 20.3523H3.17046L3.88561 18.682H5.48643L6.19973 20.3453H12.438V19.0801L12.9954 20.3541H16.2337L16.7912 19.0589V20.3506H32.2914V17.6185H32.5848C32.7939 17.6256 32.8544 17.6433 32.8544 17.9795V20.3541H40.8731V19.7189C41.6928 20.1205 42.6592 20.3559 43.6842 20.3559L43.8584 20.3541H43.8492H47.2232L47.9457 18.6908H49.5465L50.2525 20.3541H56.7548V18.7722L57.7377 20.3541H62.938V9.90722H57.7908V11.1405L57.0702 9.90722H51.7781V11.1405L51.1162 9.90722H43.9703C42.8876 9.85442 41.8089 10.0694 40.8365 10.5318L40.875 10.5159V9.90722H35.946V10.5159C35.3494 10.0621 34.5958 9.84507 33.8391 9.90899H33.8501H15.8377L14.6292 12.6074L13.3878 9.90899H7.71437V11.1423L7.08908 9.90899H2.24811L0.0055011 14.8635V4.24671C0.0055011 3.12041 0.469163 2.04024 1.29449 1.24383C2.11981 0.44742 3.23919 0 4.40638 0H61.6178C62.785 0 63.9043 0.44742 64.7297 1.24383C65.555 2.04024 66.0186 3.12041 66.0186 4.24671V22.7907H62.5841C62.5291 22.7871 62.4631 22.7871 62.3989 22.7871C61.6031 22.7871 60.8641 23.0172 60.248 23.4117L60.2627 23.4029V22.7907H55.1833C54.3898 22.7484 53.6047 22.966 52.9554 23.4082L52.9664 23.4011V22.7889H43.8969V23.4011C43.1545 22.9971 42.316 22.7861 41.4636 22.7889H41.3921H41.3957H35.4124V23.4011C34.6307 22.9179 33.7031 22.7029 32.7792 22.7907L32.7957 22.7889H26.1009L24.5679 24.3885L23.1339 22.7889H13.1329V33.2429H22.9469L24.5257 31.6185L26.0128 33.2429H32.0622V30.7957H32.9057C33.7168 30.8263 34.5257 30.6956 35.2822 30.4117L35.2418 30.4259V33.2464H40.2295V30.5232H40.4697C40.7741 30.5232 40.8053 30.5338 40.8053 30.8311V33.2482H55.9626L56.1478 33.2517C57.017 33.2517 57.8275 33.0005 58.5023 32.5705L58.4858 32.5793V33.2482H63.2938L63.523 33.2517C64.4233 33.2517 65.2797 33.073 66.0571 32.7492L66.015 32.7651V38.2186C66.015 39.3449 65.5513 40.4251 64.726 41.2215C63.9007 42.0179 62.7813 42.4653 61.6141 42.4653L61.6123 42.4635ZM38.7002 31.7778H36.8335V24.2841H41.117C41.8907 24.2149 42.6697 24.3405 43.378 24.6486L43.3486 24.638C43.9226 24.9423 44.3058 25.5227 44.3058 26.188L44.3022 26.3066V26.3013L44.304 26.3685C44.304 27.2285 43.7667 27.9681 42.9966 28.2902L42.9819 28.2955C43.3505 28.4229 43.6585 28.6405 43.8877 28.9219L43.8914 28.9254C44.1503 29.3389 44.2587 29.824 44.1995 30.3038L44.2013 30.2932V31.776H42.3383V30.8382C42.4265 30.3276 42.3203 29.8034 42.0394 29.3624L42.0449 29.3713C41.8513 29.2295 41.63 29.1271 41.3942 29.0702C41.1585 29.0133 40.9132 29.0032 40.6733 29.0404L40.6843 29.0386H38.7002V31.776V31.7778ZM38.7002 25.8324V27.5151H40.9557C41.2741 27.5435 41.5947 27.4885 41.8835 27.3559L41.8725 27.3612C41.9905 27.2877 42.0875 27.1868 42.1548 27.0678C42.2221 26.9488 42.2574 26.8155 42.2576 26.6799L42.2557 26.6392C42.2648 26.504 42.234 26.3708 42.1668 26.2518C42.0996 26.1328 41.9989 26.0346 41.8762 25.9686L41.8725 25.9669C41.5942 25.8468 41.2885 25.798 40.985 25.8253H40.9923L38.7002 25.8324ZM22.1511 31.776H14.8034V24.2841H22.2666L24.5496 26.7401L26.9095 24.2841H32.8379C34.943 24.2841 35.9662 25.0927 35.9662 26.7525C35.9662 28.4423 34.9081 29.2634 32.7388 29.2634H30.4192V31.7742H26.8123L24.5275 29.2987L22.1511 31.776ZM28.5709 25.0874L25.7213 28.0424L28.5709 31.093V25.0874ZM16.6536 28.7237V30.2136H21.2159L23.3246 28.0159L21.2966 25.8324H16.6518V27.1949H20.7263V28.7219L16.6536 28.7237ZM30.4192 25.8341V27.7416H32.8159C33.5493 27.7416 33.9711 27.3806 33.9711 26.7507C33.9711 26.1491 33.5787 25.8324 32.836 25.8324L30.4192 25.8341ZM63.4955 31.7795H59.9124V30.1693H63.4808C63.7478 30.2048 64.0186 30.1375 64.2345 29.9818L64.2326 29.9835C64.3015 29.9219 64.3565 29.8471 64.394 29.764C64.4316 29.6809 64.4509 29.5911 64.4508 29.5005V29.4722C64.451 29.3826 64.4309 29.2941 64.3919 29.2128C64.353 29.1315 64.2961 29.0594 64.2253 29.0015C64.0355 28.8691 63.8015 28.8098 63.5688 28.8351H63.5725L63.2296 28.8245C61.5536 28.7821 59.6557 28.7325 59.6557 26.5154C59.6557 25.436 60.3562 24.2841 62.3164 24.2841H66.015V25.8801H62.6318C62.3705 25.8519 62.1065 25.9026 61.8763 26.0252L61.8837 26.0217C61.7931 26.0792 61.7203 26.1592 61.6729 26.2532C61.6254 26.3472 61.6051 26.4519 61.6141 26.5561V26.5543V26.5738C61.6141 26.693 61.6531 26.8092 61.7255 26.9058C61.798 27.0024 61.9001 27.0744 62.0175 27.1117L62.0212 27.1135C62.2537 27.1826 62.4971 27.2114 62.74 27.1984H62.7345L63.7412 27.2232C64.5 27.1501 65.2582 27.3681 65.8518 27.8301L65.8463 27.8266C65.9013 27.869 65.949 27.915 65.9911 27.9663L65.993 27.9681L66.015 30.8205C65.7066 31.1682 65.3143 31.4374 64.8727 31.6043C64.4311 31.7713 63.9537 31.8308 63.4826 31.7778L63.4955 31.7795ZM56.2542 31.7795H52.6381V30.1693H56.2359C56.5051 30.2033 56.7775 30.1362 56.9968 29.9818L56.9932 29.9835C57.0616 29.9216 57.1162 29.8468 57.1534 29.7637C57.1906 29.6806 57.2097 29.591 57.2096 29.5005V29.4828C57.2095 29.3917 57.1893 29.3017 57.1504 29.2187C57.1115 29.1357 57.0548 29.0617 56.984 29.0015C56.7908 28.869 56.5539 28.8098 56.3184 28.8351H56.322L55.981 28.8245C54.3105 28.7821 52.4144 28.7325 52.4144 26.5154C52.4144 25.436 53.1112 24.2841 55.0678 24.2841H58.7865V25.8801H55.3832C55.1236 25.8522 54.8615 25.9029 54.6332 26.0252L54.6405 26.0217C54.5442 26.0857 54.4676 26.1736 54.4187 26.2761C54.3699 26.3786 54.3507 26.4919 54.3631 26.6041C54.3755 26.7163 54.419 26.8232 54.4892 26.9135C54.5593 27.0038 54.6534 27.0741 54.7616 27.117L54.7652 27.1188C55.0008 27.1885 55.2473 27.2172 55.4932 27.2037H55.4877L56.4871 27.2285C57.2499 27.1575 58.0115 27.3758 58.6105 27.8372L58.605 27.8319C58.8065 28.0462 58.9598 28.2986 59.0551 28.573C59.1504 28.8474 59.1857 29.1379 59.1588 29.4261V29.4173C59.1643 30.9797 58.1832 31.776 56.2487 31.776L56.2542 31.7795ZM51.5269 31.7795H45.329V24.2823H51.5214V25.8306H47.1811V27.1931H51.4206V28.7201H47.1811V30.21L51.5269 30.2171V31.7742V31.7795ZM55.1393 18.8872H51.3601L50.6376 17.2169H46.7831L46.0827 18.8872H43.9116C42.9366 18.9368 41.9764 18.6404 41.2124 18.0538L41.2215 18.0591C40.8585 17.6725 40.583 17.2172 40.4125 16.7221C40.242 16.227 40.1803 15.7031 40.2313 15.1838L40.2295 15.1979C40.1823 14.669 40.247 14.1363 40.4198 13.6323C40.5925 13.1282 40.8697 12.6634 41.2344 12.2659L41.2307 12.2694C41.6158 11.9445 42.066 11.6996 42.5534 11.5498C43.0408 11.4 43.5549 11.3487 44.0638 11.3989L44.0491 11.3971H45.8461V12.9949H44.0858C43.8282 12.9629 43.5665 12.9861 43.3192 13.0629C43.072 13.1396 42.8454 13.2681 42.6555 13.4391L42.6573 13.4373C42.2653 13.9218 42.0749 14.5302 42.1237 15.1431V15.1342C42.0653 15.7639 42.2487 16.3924 42.639 16.9001L42.6335 16.8931C42.998 17.1805 43.4646 17.319 43.9336 17.2788H43.9262H44.7587L47.3828 11.3865H50.17L53.3111 18.4643V11.3865H56.1368L59.3972 16.6029V11.3865H61.3042V18.8748H58.6563L55.1356 13.2515V18.8748L55.1393 18.8872ZM48.7232 12.6623L47.4451 15.6491H50.0068L48.7232 12.6623ZM30.7548 18.8837H28.8991V11.3918H33.1679C33.9472 11.3138 34.7338 11.4416 35.4436 11.7616L35.416 11.751C35.7014 11.9033 35.9394 12.1265 36.1051 12.3976C36.2709 12.6686 36.3584 12.9775 36.3586 13.2922L36.3549 13.4161V13.4107V13.4656C36.355 13.8743 36.233 14.2743 36.0033 14.6177C35.7737 14.961 35.4463 15.2332 35.0603 15.4014L35.0456 15.4067C35.4142 15.5412 35.7241 15.7571 35.9607 16.0331L35.9643 16.0366C36.226 16.4517 36.3339 16.9402 36.2706 17.4221L36.2724 17.4115V18.8819H34.4002L34.3928 17.937V17.7955C34.4595 17.3335 34.3535 16.8637 34.094 16.4701L34.0995 16.479C33.9052 16.3413 33.6847 16.2421 33.4505 16.1872C33.2164 16.1322 32.9732 16.1225 32.7352 16.1587L32.7462 16.157H30.7566V18.8819L30.7548 18.8837ZM30.7548 12.9507V14.614H33.0066C33.3247 14.6473 33.646 14.592 33.9326 14.4547L33.9234 14.4583C34.0409 14.3894 34.138 14.2925 34.2054 14.1769C34.2729 14.0613 34.3084 13.9309 34.3085 13.7983L34.3067 13.7487C34.316 13.6143 34.2843 13.4819 34.2156 13.3646C34.1468 13.2473 34.044 13.152 33.9198 13.0905L33.9161 13.0887C33.637 12.9732 33.3331 12.9246 33.0304 12.9472H33.0359L30.7548 12.9507ZM11.1049 18.8837H7.33479L6.62148 17.2133H2.75605L2.03724 18.8837H0.0201707L3.34467 11.3918H6.10071L9.25651 18.482V11.3918H12.2839L14.7118 16.4719L16.9434 11.3918H20.0332V18.8802H18.1261L18.1224 13.0197L15.4324 18.8819H13.8041L11.1067 13.0109V18.8819L11.1049 18.8837ZM4.6796 12.6623L3.41618 15.6491H5.95035L4.6796 12.6623ZM39.3145 18.8819H37.4221V11.3918H39.3163V18.8802L39.3145 18.8819ZM27.6045 18.8819H21.4176V11.3918H27.6155V12.9489H23.2733V14.299H27.511V15.8367H23.2696V17.3336H27.6118V18.8802L27.6045 18.8819Z" fill="black"/>
</svg>
