<svg width="67" height="43" viewBox="0 0 67 43" fill="none" xmlns="http://www.w3.org/2000/svg">
<rect width="66.0571" height="42.4653" rx="5" fill="black"/>
<path d="M17.9387 39.7855V37.2721C17.9387 36.3085 17.3521 35.6803 16.3467 35.6803C15.844 35.6803 15.2994 35.8478 14.9224 36.3924C14.6293 35.9316 14.2104 35.6803 13.582 35.6803C13.163 35.6803 12.7443 35.8058 12.409 36.2667V35.764H11.5293V39.7855H12.409V37.5652C12.409 36.8533 12.7861 36.518 13.3727 36.518C13.9589 36.518 14.2524 36.8951 14.2524 37.5652V39.7855H15.1321V37.5652C15.1321 36.8533 15.5508 36.518 16.0954 36.518C16.682 36.518 16.9751 36.8951 16.9751 37.5652V39.7855H17.9387ZM30.9666 35.764H29.5424V34.5492H28.6627V35.764H27.8668V36.5598H28.6626V38.4032C28.6626 39.3248 29.0396 39.8693 30.0451 39.8693C30.4222 39.8693 30.8408 39.7437 31.1343 39.5762L30.8828 38.822C30.6315 38.9896 30.3384 39.0315 30.1289 39.0315C29.71 39.0315 29.5424 38.7802 29.5424 38.3612V36.5598H30.9666V35.764ZM38.4233 35.6801C37.9206 35.6801 37.5856 35.9316 37.376 36.2667V35.764H36.4963V39.7855H37.376V37.5234C37.376 36.8533 37.6691 36.4762 38.2137 36.4762C38.3813 36.4762 38.5908 36.5182 38.7584 36.56L39.0097 35.7222C38.8421 35.6803 38.5908 35.6803 38.4233 35.6803M27.1547 36.0993C26.7356 35.806 26.1492 35.6805 25.5208 35.6805C24.5155 35.6805 23.8454 36.1831 23.8454 36.979C23.8454 37.6494 24.348 38.0263 25.2277 38.152L25.6466 38.194C26.1074 38.2776 26.3587 38.4033 26.3587 38.6129C26.3587 38.906 26.0236 39.1155 25.437 39.1155C24.8506 39.1155 24.3898 38.906 24.0965 38.6966L23.6776 39.3668C24.1385 39.7019 24.7669 39.8695 25.3951 39.8695C26.5681 39.8695 27.2384 39.325 27.2384 38.5709C27.2384 37.8587 26.6938 37.4817 25.8559 37.3561L25.437 37.3141C25.06 37.2721 24.7669 37.1886 24.7669 36.9372C24.7669 36.6439 25.06 36.4764 25.5208 36.4764C26.0236 36.4764 26.5263 36.6857 26.7776 36.8115L27.1547 36.0993ZM50.5298 35.6805C50.027 35.6805 49.6919 35.9318 49.4824 36.2669V35.7642H48.6027V39.7857H49.4824V37.5236C49.4824 36.8535 49.7757 36.4764 50.3201 36.4764C50.4878 36.4764 50.6974 36.5184 50.8649 36.5602L51.1162 35.7224C50.9487 35.6805 50.6974 35.6805 50.5298 35.6805ZM39.303 37.775C39.303 38.9898 40.1407 39.8695 41.4395 39.8695C42.0259 39.8695 42.4447 39.7439 42.8636 39.4088L42.4447 38.6966C42.1096 38.948 41.7746 39.0735 41.3975 39.0735C40.6853 39.0735 40.1827 38.5709 40.1827 37.775C40.1827 37.021 40.6853 36.5182 41.3975 36.4764C41.7746 36.4764 42.1096 36.602 42.4447 36.8535L42.8636 36.1413C42.4447 35.806 42.0259 35.6805 41.4395 35.6805C40.1407 35.6805 39.303 36.5602 39.303 37.775ZM47.4299 37.775V35.7642H46.5501V36.2669C46.2569 35.89 45.838 35.6805 45.2934 35.6805C44.1623 35.6805 43.2826 36.5602 43.2826 37.775C43.2826 38.9898 44.1623 39.8695 45.2934 39.8695C45.8798 39.8695 46.2988 39.6601 46.5501 39.2831V39.7857H47.4299V37.775ZM44.2041 37.775C44.2041 37.0628 44.665 36.4764 45.4189 36.4764C46.1311 36.4764 46.6339 37.021 46.6339 37.775C46.6339 38.4871 46.1311 39.0735 45.4189 39.0735C44.665 39.0315 44.2041 38.4871 44.2041 37.775ZM33.6897 35.6805C32.5167 35.6805 31.6787 36.5182 31.6787 37.775C31.6787 39.0317 32.5165 39.8695 33.7315 39.8695C34.3179 39.8695 34.9045 39.7019 35.3653 39.325L34.9462 38.6966C34.6112 38.948 34.1923 39.1155 33.7734 39.1155C33.2288 39.1155 32.6842 38.8642 32.5584 38.1518H35.5328V37.8169C35.5748 36.5182 34.8209 35.6805 33.6897 35.6805ZM33.6895 36.4344C34.2339 36.4344 34.6112 36.7697 34.6947 37.3981H32.6002C32.684 36.8535 33.0611 36.4344 33.6895 36.4344ZM55.5146 37.775V34.1724H54.6348V36.2669C54.3415 35.89 53.9227 35.6805 53.3781 35.6805C52.247 35.6805 51.3673 36.5602 51.3673 37.775C51.3673 38.9898 52.247 39.8695 53.3781 39.8695C53.9647 39.8695 54.3835 39.6601 54.6348 39.2831V39.7857H55.5146V37.775ZM52.289 37.775C52.289 37.0628 52.7497 36.4764 53.5038 36.4764C54.216 36.4764 54.7186 37.021 54.7186 37.775C54.7186 38.4871 54.216 39.0735 53.5038 39.0735C52.7497 39.0315 52.289 38.4871 52.289 37.775ZM22.8815 37.775V35.7642H22.0018V36.2669C21.7085 35.89 21.2896 35.6805 20.745 35.6805C19.614 35.6805 18.7343 36.5602 18.7343 37.775C18.7343 38.9898 19.614 39.8695 20.745 39.8695C21.3316 39.8695 21.7505 39.6601 22.0018 39.2831V39.7857H22.8815V37.775ZM19.614 37.775C19.614 37.0628 20.0748 36.4764 20.8288 36.4764C21.541 36.4764 22.0438 37.021 22.0438 37.775C22.0438 38.4871 21.541 39.0735 20.8288 39.0735C20.0748 39.0315 19.614 38.4871 19.614 37.775Z" fill="white"/>
<path d="M26.8613 5.22559H40.0569V28.9358H26.8613V5.22559Z" fill="#FF5F00"/>
<path d="M27.6992 17.0807C27.6992 12.2634 29.9612 7.99039 33.438 5.22552C30.8829 3.21479 27.6574 2 24.1385 2C15.802 2 9.05762 8.74434 9.05762 17.0807C9.05762 25.4169 15.802 32.1615 24.1384 32.1615C27.6572 32.1615 30.8827 30.9467 33.438 28.9358C29.9612 26.2129 27.6992 21.8981 27.6992 17.0807Z" fill="#EB001B"/>
<path d="M57.8609 17.0807C57.8609 25.4169 51.1166 32.1615 42.7802 32.1615C39.2613 32.1615 36.0358 30.9467 33.4805 28.9358C36.9993 26.1711 39.2195 21.8981 39.2195 17.0807C39.2195 12.2634 36.9573 7.99039 33.4805 5.22552C36.0356 3.21479 39.2613 2 42.7802 2C51.1166 2 57.8609 8.78632 57.8609 17.0807Z" fill="#F79E1B"/>
</svg>
