<svg width="67" height="43" viewBox="0 0 67 43" fill="none" xmlns="http://www.w3.org/2000/svg">
<rect width="66.0571" height="42.4653" rx="5" fill="black"/>
<path d="M52.674 39.3428H13.6607C11.1699 39.3428 9.15918 37.3321 9.15918 34.8413V7.8321C9.15918 5.34125 11.1699 3.33057 13.6607 3.33057H52.674C55.1648 3.33057 57.1755 5.34125 57.1755 7.8321V34.8413C57.1755 37.3321 55.1648 39.3428 52.674 39.3428ZM13.6607 6.33159C12.8204 6.33159 12.1602 6.99181 12.1602 7.8321V34.8413C12.1602 35.6816 12.8204 36.3418 13.6607 36.3418H52.674C53.5143 36.3418 54.1745 35.6816 54.1745 34.8413V7.8321C54.1745 6.99181 53.5143 6.33159 52.674 6.33159H13.6607Z" fill="white"/>
<path d="M48.7425 16.6524C48.7425 16.6375 48.7305 16.6254 48.7156 16.6254H46.4918C45.8015 16.6254 45.2914 16.8354 44.9613 17.5257L41.4952 25.4205C41.092 26.339 41.7648 27.369 42.7678 27.369H42.876C43.3749 27.369 43.7749 27.191 43.9598 26.7276C44.1608 26.2236 44.7026 25.7485 45.2452 25.7485H47.321C47.7757 25.7485 48.1967 26.1632 48.2922 26.6077C48.3984 27.1018 48.8072 27.339 49.3125 27.339H49.5256C50.3696 27.339 50.9951 26.5553 50.8078 25.7323L48.7432 16.6583C48.7428 16.6564 48.7425 16.6544 48.7425 16.6524ZM45.1713 23.5577C45.1713 23.5379 45.1749 23.5195 45.1826 23.5013C45.377 23.0428 45.8516 21.8098 46.1295 21.0833C46.1729 20.9698 46.4755 20.2244 46.5172 20.1103C46.5569 20.0017 46.7769 19.8794 46.8016 19.9923L46.9119 20.4967L47.311 22.3014C47.4605 22.9772 46.9461 23.6178 46.254 23.6178H45.2314C45.1982 23.6178 45.1713 23.5909 45.1713 23.5577ZM40.8349 23.8278C40.8432 23.8278 40.8499 23.8347 40.8498 23.843C40.8407 26.0553 38.8321 27.5191 35.7481 27.5191C34.886 27.5191 34.0495 27.404 33.3806 27.2405C32.8386 27.1081 32.5439 26.5619 32.6389 26.0121L32.8307 24.9025C32.8648 24.7056 33.0728 24.5913 33.2573 24.6681C34.2176 25.0883 34.8478 25.2383 35.9882 25.2383C36.8285 25.2383 37.7288 24.9082 37.7288 24.1879C37.7288 23.7078 37.3687 23.4077 36.1983 22.8675C35.0879 22.3273 33.6174 21.487 33.6174 19.9865C33.6174 17.8858 35.6581 16.4453 38.5691 16.4453C39.338 16.4453 40.0206 16.5461 40.567 16.6977C40.9536 16.805 41.1596 17.2026 41.0878 17.5973L40.8377 18.973C40.8175 19.0843 40.6806 19.127 40.6006 19.047C40.5869 19.0333 40.5705 19.0226 40.5524 19.0156C40.0172 18.8091 39.3622 18.606 38.359 18.606C37.2486 18.6661 36.7385 19.1462 36.7385 19.5664C36.7385 20.0465 37.3687 20.4067 38.359 20.8868C40.0329 21.664 40.8136 22.5602 40.8198 23.8127C40.8199 23.821 40.8266 23.8278 40.8349 23.8278ZM15.2849 16.7457C15.2178 16.7289 15.177 16.6599 15.196 16.5934C15.2109 16.5413 15.2585 16.5053 15.3128 16.5053H19.7527C20.3829 16.5053 20.8631 16.7154 21.0131 17.4056C21.1156 17.8962 19.431 18.7062 19.0222 18.4164C17.9896 17.6844 16.7395 17.1086 15.2849 16.7457Z" fill="white"/>
<path d="M28.3662 16.6152C28.3662 16.622 28.3648 16.6287 28.3622 16.6349L24.352 25.9658C24.0017 26.7809 23.1997 27.3091 22.3126 27.3091C21.3288 27.3091 20.4624 26.6615 20.1837 25.718L19.729 24.1782C19.1341 22.1635 21.215 20.856 22.0641 22.7775C22.1718 23.14 22.6773 23.1608 22.8145 22.8084L24.7853 17.7465C25.0626 17.0344 25.7484 16.5654 26.5126 16.5654H28.3164C28.3439 16.5654 28.3662 16.5877 28.3662 16.6152ZM29.3953 17.7469C29.5116 17.0645 30.1029 16.5654 30.7952 16.5654C31.6747 16.5654 32.3428 17.3569 32.195 18.224L30.8483 26.1276C30.732 26.81 30.1407 27.3091 29.4485 27.3091C28.5689 27.3091 27.9009 26.5176 28.0486 25.6505L29.3953 17.7469Z" fill="white"/>
</svg>
