<svg width="30" height="28" viewBox="0 0 30 28" fill="none" xmlns="http://www.w3.org/2000/svg">
<path d="M21.7185 10.0186C21.6279 9.92498 21.5195 9.85053 21.3996 9.79969C21.2798 9.74885 21.151 9.72266 21.0209 9.72266C20.8908 9.72266 20.7621 9.74885 20.6422 9.79969C20.5224 9.85053 20.414 9.92498 20.3233 10.0186L12.1846 18.1853L9.09823 15.0883C8.91321 14.9027 8.66228 14.7984 8.40063 14.7984C8.13897 14.7984 7.88804 14.9027 7.70302 15.0883C7.518 15.274 7.41406 15.5258 7.41406 15.7883C7.41406 16.0509 7.518 16.3027 7.70302 16.4883L11.5398 20.2853C11.6305 20.3789 11.7389 20.4534 11.8588 20.5042C11.9786 20.5551 12.1074 20.5813 12.2375 20.5813C12.3676 20.5813 12.4963 20.5551 12.6162 20.5042C12.736 20.4534 12.8444 20.3789 12.9351 20.2853L21.7714 11.4186C21.8614 11.3242 21.9315 11.2126 21.9777 11.0904C22.0239 10.9682 22.0452 10.838 22.0402 10.7074C22.0353 10.5768 22.0043 10.4486 21.949 10.3303C21.8938 10.212 21.8154 10.106 21.7185 10.0186Z" fill="#008000"/>
<path d="M14.6269 30.0002C11.7339 30.0002 8.90599 29.1293 6.50062 27.4978C4.09524 25.8662 2.22048 23.5472 1.11341 20.834C0.00633757 18.1208 -0.283323 15.1352 0.281058 12.2549C0.845438 9.37459 2.23851 6.72885 4.28412 4.65225C6.32972 2.57565 8.93598 1.16147 11.7733 0.588539C14.6106 0.0156068 17.5516 0.309656 20.2243 1.4335C22.897 2.55735 25.1814 4.46052 26.7887 6.90234C28.3959 9.34416 29.2537 12.215 29.2537 15.1517C29.2537 19.0898 27.7127 22.8665 24.9696 25.6512C22.2266 28.4358 18.5062 30.0002 14.6269 30.0002ZM14.6269 2.28656C12.1204 2.28656 9.67014 3.04109 7.58605 4.45473C5.50197 5.86837 3.87762 7.87763 2.91842 10.2284C1.95922 12.5792 1.70825 15.166 2.19725 17.6616C2.68624 20.1572 3.89324 22.4495 5.66561 24.2487C7.43798 26.048 9.69612 27.2733 12.1545 27.7697C14.6128 28.2661 17.161 28.0113 19.4767 27.0376C21.7924 26.0638 23.7717 24.4149 25.1642 22.2992C26.5567 20.1835 27.3 17.6962 27.3 15.1517C27.2972 11.7405 25.9611 8.46985 23.5851 6.05778C21.209 3.6457 17.9871 2.28937 14.6269 2.28656Z" fill="#05DA05"/>
</svg>
