<svg width="30" height="33" viewBox="0 0 30 33" fill="none" xmlns="http://www.w3.org/2000/svg">
<path d="M15.373 35.0002C12.48 35.0002 9.65209 34.1293 7.24671 32.4978C4.84134 30.8662 2.96658 28.5472 1.8595 25.834C0.752431 23.1208 0.462771 20.1352 1.02715 17.2549C1.59153 14.3746 2.98461 11.7288 5.03021 9.65225C7.07581 7.57565 9.68207 6.16147 12.5194 5.58854C15.3567 5.01561 18.2977 5.30966 20.9704 6.4335C23.6431 7.55735 25.9275 9.46052 27.5348 11.9023C29.142 14.3442 29.9998 17.215 29.9998 20.1517C29.9998 24.0898 28.4588 27.8665 25.7157 30.6512C22.9726 33.4358 19.2522 35.0002 15.373 35.0002ZM15.373 7.28656C12.8665 7.28656 10.4162 8.04109 8.33215 9.45473C6.24806 10.8684 4.62372 12.8776 3.66452 15.2284C2.70532 17.5792 2.45435 20.166 2.94334 22.6616C3.43234 25.1572 4.63934 27.4495 6.41171 29.2487C8.18408 31.048 10.4422 32.2733 12.9006 32.7697C15.3589 33.2661 17.907 33.0113 20.2228 32.0376C22.5385 31.0638 24.5177 29.4149 25.9103 27.2992C27.3028 25.1835 28.0461 22.6962 28.0461 20.1517C28.0433 16.7405 26.7072 13.4699 24.3312 11.0578C21.9551 8.6457 18.7332 7.28937 15.373 7.28656Z" fill="#FF0000"/>
<path d="M10.0096 25.15C9.7929 25.15 9.60124 25.0833 9.43457 24.95C9.2679 24.8167 9.17624 24.6417 9.15957 24.425C9.15957 24.1917 9.2679 23.95 9.48457 23.7L13.8596 18.2V19.25L9.75957 14.125C9.5429 13.8583 9.43457 13.6167 9.43457 13.4C9.45124 13.1833 9.5429 13.0083 9.70957 12.875C9.87624 12.7417 10.0679 12.675 10.2846 12.675C10.5346 12.675 10.7429 12.725 10.9096 12.825C11.0929 12.9083 11.2596 13.05 11.4096 13.25L14.9846 17.775H14.2846L17.8846 13.25C18.0346 13.05 18.1929 12.9083 18.3596 12.825C18.5262 12.725 18.7346 12.675 18.9846 12.675C19.2179 12.675 19.4096 12.7417 19.5596 12.875C19.7262 13.0083 19.8096 13.1917 19.8096 13.425C19.8262 13.6417 19.7262 13.8833 19.5096 14.15L15.4346 19.2V18.275L19.8096 23.7C20.0096 23.95 20.1012 24.1917 20.0846 24.425C20.0846 24.6417 20.0012 24.8167 19.8346 24.95C19.6679 25.0833 19.4679 25.15 19.2346 25.15C19.0012 25.15 18.7929 25.1 18.6096 25C18.4429 24.9167 18.2762 24.775 18.1096 24.575L14.2596 19.725H14.9846L11.1346 24.575C10.9846 24.7583 10.8179 24.9 10.6346 25C10.4679 25.1 10.2596 25.15 10.0096 25.15Z" fill="#FF0000"/>
</svg>
